<svg width="65" height="65" viewBox="0 0 65 65" fill="none" xmlns="http://www.w3.org/2000/svg"
  style="transform: scale(0.65)">
  <path fill-rule="evenodd" clip-rule="evenodd"
    d="M5.4165 16.25C5.4165 21.2979 8.86901 25.5394 13.5415 26.742V38.2579C8.86901 39.4606 5.4165 43.7022 5.4165 48.75C5.4165 54.7329 10.2667 59.5833 16.2498 59.5833C22.2329 59.5833 27.0832 54.7329 27.0832 48.75C27.0832 43.7022 23.6307 39.4606 18.9582 38.2579V26.742C22.765 25.7622 25.762 22.7652 26.7419 18.9583H32.5215C35.8043 18.9583 38.2667 19.1281 40.1373 19.5219C41.985 19.9109 43.0734 20.4815 43.7846 21.1551C45.2344 22.5284 46.0415 25.208 46.0415 31.6219V38.2579C41.3691 39.4606 37.9165 43.7022 37.9165 48.75C37.9165 54.7329 42.7669 59.5833 48.7498 59.5833C54.7328 59.5833 59.5832 54.7329 59.5832 48.75C59.5832 43.7022 56.1306 39.4606 51.4582 38.2579V31.6219C51.4582 25.3771 50.8331 20.3707 47.5097 17.2226C45.8343 15.6357 43.7012 14.7368 41.2532 14.2214C38.8281 13.7109 35.9207 13.5416 32.5215 13.5416H26.7419C25.5393 8.86913 21.2977 5.41663 16.2498 5.41663C10.2667 5.41663 5.4165 10.2669 5.4165 16.25Z"
    fill="#9747FF" />
</svg>