<?xml version="1.0" encoding="utf-8"?>
<!-- Generator: Adobe Illustrator 27.2.0, SVG Export Plug-In . SVG Version: 6.00 Build 0)  -->
<svg version="1.1" id="Layer_1" xmlns="http://www.w3.org/2000/svg" xmlns:xlink="http://www.w3.org/1999/xlink" x="0px"
	y="0px" viewBox="0 0 2500 2500" style="enable-background:new 0 0 2500 2500; transform: scale(4.2)"
	xml:space="preserve">
	<style type="text/css">
		.st0 {
			display: none;
			fill: #FEFEFE;
		}

		.st1 {
			display: none;
			fill: #A4A4A4;
		}

		.st2 {
			display: none;
			fill: #B1B1B1;
		}

		.st3 {
			display: none;
			fill: #CECECE;
		}

		.st4 {
			display: none;
			fill: #CCCCCC;
		}

		.st5 {
			fill: #313131;
		}

		.st6 {
			display: none;
			fill: #C0C0C0;
		}

		.st7 {
			display: none;
			fill: #7D7D7D;
		}

		.st8 {
			display: none;
			fill: #7E7E7E;
		}

		.st9 {
			display: none;
			fill: #323232;
		}

		.st10 {
			fill: #7C7C7C;
		}

		.st11 {
			display: none;
			fill: #343434;
		}

		.st12 {
			display: none;
			fill: #7A7A7A;
		}

		.st13 {
			display: none;
			fill: #353535;
		}

		.st14 {
			display: none;
			fill: #2F2F2F;
		}

		.st15 {
			display: none;
			fill: #7F7F7F;
		}

		.st16 {
			display: none;
			fill: #313131;
		}

		.st17 {
			display: none;
			fill: #7C7C7C;
		}

		.st18 {
			display: none;
			fill: #BBBBBB;
		}

		.st19 {
			display: none;
			fill: #BEBEBE;
		}

		.st20 {
			display: none;
			fill: #2C2C2C;
		}

		.st21 {
			display: none;
			fill: #393939;
		}

		.st22 {
			display: none;
			fill: #B9B9B9;
		}

		.st23 {
			display: none;
			fill: #6B6B6B;
		}

		.st24 {
			display: none;
			fill: #333333;
		}

		.st25 {
			display: none;
			fill: #C1C1C1;
		}

		.st26 {
			display: none;
			fill: #363636;
		}

		.st27 {
			display: none;
			fill: #373737;
		}

		.st28 {
			display: none;
			fill: #BDBDBD;
		}

		.st29 {
			display: none;
			fill: #818181;
		}

		.st30 {
			display: none;
			fill: #3A3A3A;
		}

		.st31 {
			display: none;
			fill: #797979;
		}

		.st32 {
			display: none;
			fill: #747474;
		}

		.st33 {
			display: none;
			fill: #8A8A8A;
		}

		.st34 {
			display: none;
			fill: #787878;
		}

		.st35 {
			display: none;
			fill: #B6B6B6;
		}

		.st36 {
			display: none;
			fill: #3F3F3F;
		}

		.st37 {
			display: none;
			fill: #BFBFBF;
		}

		.st38 {
			display: none;
			fill: #3D3D3D;
		}

		.st39 {
			display: none;
			fill: #3C3C3C;
		}

		.st40 {
			display: none;
			fill: #B5B5B5;
		}

		.st41 {
			display: none;
			fill: #414141;
		}

		.st42 {
			display: none;
			fill: #757575;
		}

		.st43 {
			display: none;
			fill: #CDCDCD;
		}

		.st44 {
			display: none;
			fill: #C7C7C7;
		}

		.st45 {
			display: none;
			fill: #B8B8B8;
		}

		.st46 {
			display: none;
			fill: #2B2B2B;
		}

		.st47 {
			display: none;
			fill: #AEAEAE;
		}

		.st48 {
			display: none;
			fill: #383838;
		}

		.st49 {
			display: none;
			fill: #6A6A6A;
		}

		.st50 {
			display: none;
			fill: #ADADAD;
		}

		.st51 {
			display: none;
			fill: #838383;
		}

		.st52 {
			display: none;
			fill: #C8C8C8;
		}

		.st53 {
			display: none;
			fill: #B3B3B3;
		}

		.st54 {
			display: none;
			fill: #ACACAC;
		}

		.st55 {
			display: none;
			fill: #AAAAAA;
		}

		.st56 {
			display: none;
			fill: #575757;
		}

		.st57 {
			display: none;
			fill: #4F4F4F;
		}

		.st58 {
			display: none;
			fill: #404040;
		}

		.st59 {
			display: none;
			fill: #9A9A9A;
		}

		.st60 {
			display: none;
			fill: #727272;
		}

		.st61 {
			display: none;
			fill: #4B4B4B;
		}

		.st62 {
			display: none;
			fill: #484848;
		}

		.st63 {
			display: none;
			fill: #666666;
		}

		.st64 {
			display: none;
			fill: #9F9F9F;
		}

		.st65 {
			display: none;
			fill: #696969;
		}

		.st66 {
			display: none;
			fill: #A0A0A0;
		}

		.st67 {
			display: none;
			fill: #949494;
		}

		.st68 {
			display: none;
			fill: #737373;
		}

		.st69 {
			display: none;
			fill: #5E5E5E;
		}

		.st70 {
			display: none;
			fill: #5C5C5C;
		}

		.st71 {
			display: none;
			fill: #6C6C6C;
		}

		.st72 {
			display: none;
			fill: #808080;
		}

		.st73 {
			display: none;
			fill: #858585;
		}

		.st74 {
			display: none;
			fill: #686868;
		}

		.st75 {
			display: none;
			fill: #8E8E8E;
		}

		.st76 {
			display: none;
			fill: #8D8D8D;
		}

		.st77 {
			display: none;
			fill: #898989;
		}

		.st78 {
			display: none;
			fill: #A8A8A8;
		}

		.st79 {
			display: none;
			fill: #909090;
		}

		.st80 {
			display: none;
			fill: #292929;
		}

		.st81 {
			display: none;
			fill: #494949;
		}

		.st82 {
			display: none;
			fill: #4A4A4A;
		}

		.st83 {
			display: none;
			fill: #636363;
		}

		.st84 {
			display: none;
			fill: #626262;
		}

		.st85 {
			display: none;
			fill: #444444;
		}

		.st86 {
			fill: #FFFFFF;
		}

		.st87 {
			display: none;
			fill: #5D5D5D;
		}

		.st88 {
			display: none;
			fill: #595959;
		}

		.st89 {
			display: none;
			fill: #525252;
		}

		.st90 {
			display: none;
			fill: #FFFFFF;
		}

		.st91 {
			display: none;
			fill: #9B9B9B;
		}

		.st92 {
			fill: #BBBBBB;
		}

		.st93 {
			fill: #F2F2F2;
		}

		.st94 {
			fill: #010101;
		}
	</style>
	<g>
		<path class="st0" d="M1056.9,1550c-35.6,0-71.3,0-106.9,0c0-200,0-400,0-600c200,0,399.9,0,599.9,0c0,139.1,0,278.2,0,417.3
		c-0.2,0.2-0.4,0.4-0.7,0.6c-1.4,1.3-3.2,1.3-4.9,1.5c-5.3,0.7-10.6,0.5-15.9,0c-0.9-0.1-1.8,0-2.6,0c-1.4,0.2-2.7,0.5-4.1,0.2
		c-1.9-0.3-3.7-0.4-5.6-0.7c-0.8-0.1-1.5-0.1-2.3-0.3c-0.6-0.1-1.2-0.2-1.8-0.3c-0.9,0-1.7-0.1-2.6-0.2c-0.7-0.1-1.5-0.2-2.2-0.3
		c-1,0-2,0-3-0.2c-0.7-0.1-1.5-0.2-2.2-0.3c-0.8,0-1.5-0.1-2.3-0.2c-0.6-0.1-1.3-0.2-2-0.2c-3.4-0.4-6.9-0.6-10.2-1.3
		c-2.2-0.9-4.4-0.3-6.5-0.1c-1.2,0.2-2.5,0.4-3.7,0.3c-0.3,0-0.5-0.1-0.8-0.1c-3.2-0.2-5.7-2.3-8.9-2.8c-3.2-0.5-6.3-1.4-9.3,0.4
		c-0.4,0.2-0.9,0.1-1.4,0.1c-3-0.7-6.2-1.2-9.2-2c-1.2-0.4-2.1-1.6-3.6-1.2c-1.3,0-1.4,1.1-1.6,2c-0.9,3.3-0.5,6.6-0.1,9.8
		c1.9,14.6-4.3,25.9-14.5,35.6c-0.5,0.5-1.1,0.9-1.8,1.2c-1.7,0.9-2.9,0.3-3.5-1.5c-0.6-2.1-0.7-4.3-1-6.4c-0.3-1.8-0.9-3.3-2.4-4.3
		c-2.1-1.5-3.6-3.4-4.8-5.6c-4.6-8.4-11.3-14.5-19.7-19c-6.2-3.3-10.2-8.6-12.2-15.3c-3.8-12.5-10-24-16-35.6
		c-1.4-2.6-2.7-5.3-4.1-7.9c-2.1-3.8-4.6-7.3-7.3-10.6c-1.9-2.4-3.6-4.9-4.1-8c-0.5-3.2,0.8-5.8,2.5-8.3c1.6-2.3,3.1-4.6,4-7.4
		c1.2-3.8,0.4-7.5-0.1-11.2c-0.8-5.7-1.8-11.3-1.7-17.1c0.1-4.5,1.5-8.3,4.8-11.6c3.9-3.9,8.1-7.5,12-11.4c2.4-2.4,4.4-5.1,5.7-8.2
		c2.2-5.1,0.7-11.8-3.3-14.9c-2.1-1.6-2.8-1.4-4,0.9c-3.3,6.4-5.9,13.1-9.4,19.4c-1.6,2.9-3.3,5.6-5.7,7.9c-6.1,6-13.3,5.4-18.4-1.5
		c-3.8-5.2-6-11.1-6.4-17.5c-0.2-2.6-1.4-4.4-3.5-5.9c-4.2-3-5.5-5,0.9-8.1c1.8-0.9,3.7-1.3,5.6-2.1c-3-1.5-5.4-0.9-8.5,2.2
		c-0.2,0.1-0.4,0.2-0.6,0.3c-0.8,0.4-1.5,0.7-2.3,0.9c-0.5,0.1-0.9,0.4-1.4,0.4c-2.7-1.1-2.8-1.6-0.8-3.5c0.5-0.4,1-0.8,1.4-1.3
		c0.2-0.3,0.4-0.5,0.7-0.7c0.8-0.4,1.4-1,1.8-1.8c0.1-0.2,0.2-0.4,0.3-0.6c1.2-3.7,1.6-3.9,6.2-2.6c0.5,0.1,0.9,0.4,1.3,0.5
		c0.6,0,1.1,0.2,1.7,0.4c0.2,0.1,0.5,0.1,0.7,0.1c4.3,1.7,8.8,2.6,13.3,4c2.9,0.9,5.8,2,8.7-0.2c0.5-0.4,1.2-0.1,1.9-0.1
		c2.4,0.3,4.7,0.9,7.1,1.2c3.1,0.4,4.2-0.4,4.8-3.5c0.7-3.9,0.5-7.8,0.1-11.7c-0.3-3.4-1-6.8-1.6-10.2c-1.3-7-4.2-13.4-7.8-19.4
		c-2.4-3.9-3.5-8.2-5.2-12.4c-2.7-6.5-7.3-10.5-14.5-11.2c-4.1-0.4-8.2-1.4-12.2-2.6c-4.2-1.3-7.8-3.5-10.8-6.9
		c-2.6-2.9-1.8-6.7,1.8-8.3c1.9-0.8,3.9-1,5.8-1.2c3.5-0.4,6-2.1,7.3-5.4c0.5-1.3,1.2-2.6,2-3.8c2.5-3.8,6.8-5.3,11.1-3.7
		c3.1,1.1,5.6,3.1,8.1,5c7.7,5.8,14.6,12.5,20.5,20.1c5.7,7.3,9.3,15.6,12.4,24.2c2.8,7.8,5,15.9,8,23.6c3,7.7,6.8,15.1,10.6,22.6
		c3.7,7.4,6.5,15.1,8.9,22.9c2.2,7.3,4.9,14.5,7.9,21.6c1.1,2.6,1.9,5.2,2.9,7.9c1.5,4,1.7,8.2,2.1,12.5c1.1,12.3,3.6,24.3,9.8,35.2
		c1.8,3.2,2.4,3.5,6,2.8c2.3-0.4,4.6-0.4,6.9-0.3c2.4,0.1,3.4,1.2,3.5,3.7c0,2.7-1.1,5-2.7,7c-1.1,1.3-3.9,1.6-5.8,0.7
		c-0.4-0.2-0.7-0.4-1-0.6c-4.2-3-5.5-2.4-6.1,2.9c-1.4,11,0.5,21.8,2.4,32.6c0.4,2.5,3,3.7,4.9,2.2c4.6-3.8,10-6.6,14.2-11
		c2-2.1,2.9-4.5,3-7.3c0.2-5.3-0.5-10.5-0.6-15.8c-0.1-4.7,1.2-8.8,3.6-12.7c2.5-3.9,4.2-8.1,4.4-12.8c0.1-3.7-0.2-7.4-1-10.9
		c-2.6-11.3-4.2-22.8-7.5-33.9c-2.1-6.9-4.5-13.5-8.9-19.3c-2.9-3.9-6.6-6.7-11.5-7.7c-2.5-0.5-4.6,0.9-6.3,2.5
		c-1.8,1.8-2.4,4-1.5,6.6c0.7,1.9,1.7,3.7,3.4,4.8c3.5,2.3,5.1,6,7.7,9.1c1.4,1.7,2.4,3.6,3.6,5.4c2.2,3.2,4,6.7,5.3,10.3
		c0.5,1.4,1.4,2.7,2.2,4c0.4,1.7,0,3.5,0.2,5.3c0.3,1.7-1.1,2.4-2.9,1.7c-3-1.2-5.3-3.2-7.3-5.6c-3.4-4-5.8-8.6-8.2-13.2
		c-2.3-4.5-5.1-8.7-8.3-12.6c-3.9-4.9-4.8-9.9-1.6-15.5c2.4-4,3-8.1,1.3-12.6c-0.4-1.1-0.6-2.3-0.8-3.5c-0.5-3-1.6-5.7-3.7-7.9
		c-0.4-0.6-0.6-1.2-0.6-1.8c0-3.3-0.1-6.7,0.1-10c0.1-1.7-0.8-3-1.4-4.5c-0.6-1.6-1-3.3-1.1-5c-0.1-2.7-0.8-5.3-1.3-8
		c0-0.3-0.1-0.5-0.1-0.8c0-2,0-4,0-5.9c-0.1-1,0.3-1.9,0.8-2.7c0.3-0.9,0-1.7-0.4-2.5c-0.6-0.8-1.8-0.9-2.3-1.9
		c-0.4-0.6-0.9-1.1-1-1.9c0-0.9-0.1-1.8,0-2.7c0.2-1,0.4-2,0.5-3c0.1-0.6,0.4-1.1,0.8-1.6c1.8-3,1.8-3.5-0.6-6
		c-0.6-0.7-1.8-0.6-2.4-1.4c-1.4-2.1-2.5-4.4-3.2-6.9c-0.1-0.4,0-0.8,0.1-1.1c0.3-0.6,0.8-1.2,0.9-2c0.4-1.4,0.4-2.7,0-4.1
		c-0.3-1.1-0.6-2.3-0.9-3.4c0-0.4-0.1-0.7-0.1-1.1c0-1-0.3-1.9-0.4-2.9c0-0.6,0-1.3,0-1.9c0-4.3,0.3-8.6-1.4-12.6
		c-0.3-1.3-1.6-1.5-2.4-2.2c-0.9-1.5-1.7-3-2.4-4.6c-0.1-1.1,0.5-2.1,0-3.2c-0.5-1.6-1.4-2.9-2.5-4.2c-1-1.7-1.9-3.5-3.6-4.6
		c-2.1-2-4-4.1-5.4-6.6c-0.6-2.8-2.6-4.3-4.8-5.8c-1.7-1.1-3.2-2.4-4.8-3.5c-1.1-1.1-2.6-1.5-3.9-2.3c-0.5-0.4-1-0.8-1.5-1.2
		c-0.7-0.7-1.6-1.1-2.4-1.8c-0.2-0.2-0.3-0.3-0.4-0.5c-2.2-3.9-5.4-7-7.9-10.7c-0.9-1.3-2.4-2.1-3.6-3c-0.4-0.3-0.8-0.6-1.3-0.9
		c-0.2-0.1-0.3-0.2-0.5-0.3c-0.3-0.2-0.6-0.5-1-0.7c-0.2-0.1-0.3-0.2-0.5-0.3c-0.3-0.2-0.6-0.4-1-0.6c-0.2-0.1-0.3-0.2-0.5-0.3
		c-0.3-0.2-0.7-0.4-1.1-0.4c-0.3,0-0.6,0-0.9-0.1c-0.2,0-0.4-0.1-0.6-0.2c-0.6-0.4-1.1-0.8-1.6-1.2c-1-1.2-2.3-1.9-3.7-2.5
		c-0.2-0.1-0.4-0.2-0.6-0.4c-0.7-0.6-1.5-1.2-2.2-1.8c-0.3-0.2-0.5-0.4-0.8-0.6c-0.8-1-1.7-1.9-2.8-2.6c-0.2-0.1-0.4-0.3-0.5-0.4
		c-1.7-2.3-4.1-4.1-6-6.3c-1.2-1.3-2.8-1.2-4.4-1.3c-0.2-0.1-0.4-0.1-0.6-0.2c-0.6-0.3-1.2-0.6-1.8-0.9c-3-1.4-5.9-3-8.8-4.6
		c-1.2-0.4-1.6-1.7-2.5-2.5c-3-2.5-6.4-3.7-10.2-4.4c-0.8-0.1-1.6-0.2-2.3-0.6c-6.5-3.7-12.3-8.6-18.6-12.5
		c-6.4-3.9-13.4-6.3-20.6-7.9c-1.1-0.3-2.2-0.1-3.3,0c-0.9,0.1-1.8,0.1-2.6-0.1c-3.5-2-7.2-3.7-11.3-4c-0.7-0.1-1.3-0.1-2-0.2
		c-0.2,0-0.4-0.1-0.6-0.1c-0.6-0.2-1.3-0.3-1.9-0.4c-4-0.7-7.6-2.7-11.4-4.1c-2.9-1.1-5.8-2.2-8.7-3.3c-0.7-0.1-1.4-0.3-2-0.7
		c-0.2-0.1-0.4-0.2-0.6-0.3c-1.3-1.2-2.7-2-4.3-2.5c-0.6-0.2-1.2-0.2-1.7,0.2c-0.6,0.6-1.3,1-2,1.2c-1.3,0.4-2.6,0.3-3.8,0.3
		c-1.8-0.7-3.6-1.3-5.4-0.2c-0.4,0.3-0.9,0.4-1.4,0.5c-0.9,0.1-1.7,0.3-2.5,0.5c-0.8,0.1-1.7,0.1-2.5,0.2c-2.2,0.3-4.3,0.8-6.4,1.6
		c-0.7,0.2-1.5,0.3-2.2,0.3c-0.5,0.1-1,0.2-1.5,0.2c-1,0.2-2-0.2-2.9-0.2c-0.7,0-1.4,0-2.2,0c-2.6,0.3-5.3-0.7-7.7,0.9
		c-0.8,0.4-1.6,0.6-2.5,0.6c-0.8,0-1.5,0-2.3,0c-3.2-1.4-6-0.3-8.8,1.3c-1.7,0.2-3.4,0.6-5.1,0.8c-1.4,0.2-2.7,0.1-4.1,0.3
		c-0.7,0.1-1.4,0.3-2.2,0.2c-0.8,0-1.4-0.6-2.2-0.7c-1.1-0.1-1.6,1.1-2.5,1.3c-0.2,0.1-0.4,0.2-0.6,0.3c-0.8,0.2-1.6,0.2-2.3,0.5
		c-4.5,2.1-8.7,4.9-13.5,6.4c-0.8,0.3-1.6,0.6-2.5,0.5c-2.5-1.7-5.5-1.2-7.4,1.3c-0.3,0.5-0.7,0.9-1.2,1.1c-2.2,1.1-4,2.6-5.8,4.2
		c-3.3,2.7-6.8,5-10.7,6.7c-2.3,0.6-4.4,1.5-6.4,2.7c-1,0.2-1.8,1.1-2.9,1.1c-1.6-0.9-2.8-0.3-4,1c-0.7,0.8-1.1,1.8-1.9,2.4
		c-1.5,0.9-3,1.8-3.9,3.4c-1,1-2.6,1.2-3.3,2.6c-4.1,4.2-8,8.5-10.3,14c-0.3,0.7-0.7,1.4-0.7,2.3c0,0.5,0.1,1,0,1.4
		c-0.6,1.4-1.3,2.7-2.5,3.7c-2.9,0.6-4.1,3-5.4,5.2c-0.3,0.7-0.3,1.3,0,2c0.1,0.3,0.1,0.6,0.3,0.9c0.2,0.6,0.4,1.1,0.4,1.7
		c-2.8,4.6-6.4,8.2-11.5,10.1c-1.4,0.3-3,0-3.9,1.6c-0.2,0.3-0.4,0.5-0.7,0.7c-0.6,0.4-1.1,0.9-1.7,1.3c-0.2,0.2-0.5,0.4-0.7,0.6
		c-0.4,0.3-0.8,0.7-1.2,1c-0.7,0.5-1.2,1.2-1.7,1.8c-1.6,1-3.5,1.8-4.1,3.9c-2,2.9-2.7,6.2-2.5,9.7c-0.9,1.7-1.6,3.5-3,4.9
		c-0.4,0.7-1,1.2-1.5,1.8c-0.2,0.2-0.3,0.3-0.6,0.4c-2.8,1.4-3.9,4-4.9,6.7c-1.1,1.6-0.6,3.7-1.4,5.3c-1.6,3.1-2.4,6.4-3.5,9.6
		c-1.4,4-3.2,7.8-4.6,11.8c-0.7,1.2-1.7,2.3-2.2,3.6c-1.7,1.8-1.3,3.7-0.2,5.6c0.4,0.7,0.9,1.5,1.2,2.3c0.2,0.7,0.6,1.4,0.5,2.1
		c0,1.4,0,2.8,0,4.2c-0.4,3.1-1.3,6-3.6,8.3c-1.4,1.4-2.5,3-3.1,4.9c-0.8,2.4-1.8,4.8-3,7c-2.4,4.3-3.3,8.9-3.3,13.8
		c-0.4,0.8-0.2,1.7-0.2,2.5c0,0.8,0,1.5-0.1,2.3c-0.2,1-0.4,2-0.3,3c0,0.8,0,1.5-0.1,2.3c-0.1,0.4-0.1,0.7-0.2,1.1
		c-0.3,2.3-0.4,4.7,0.1,7c0.1,0.2,0.1,0.5,0.1,0.7c0.1,0.9,0,1.7,0.1,2.6c0,1,0,2,0.2,2.9c0.1,0.4,0.2,0.8,0.2,1.1
		c0.1,0.9,0.1,1.8,0,2.7c0.1,1.3-0.4,2.5-0.3,3.7c0,0.3,0,0.5,0,0.8c-0.2,1.1-0.5,2.2-0.1,3.4c0.5,0.9,0.5,1.8,0.4,2.8
		c-0.3,1.7-0.7,3.4-0.7,5.2c-0.1,1.9-0.1,3.8,0,5.6c0.2,1.3,0.4,2.5,0.7,3.7c0.1,0.7,0.4,1.4,0.4,2.2c-1.1,1.9-0.1,3.4,0.8,5
		c0.1,0.2,0.2,0.4,0.3,0.7c-0.4,2.3,0.4,4.5,1.2,6.6c0.3,1.4,0.9,2.6,2,3.5c0.6,0.6,1.3,1.2,1.4,2.1c0.1,1.5,0.6,3,0.8,4.5
		c0.1,0.2,0.2,0.5,0.2,0.7c-0.1,1.2-0.8,2.4,0,3.5c0.2,0.3,0.4,0.7,0.7,0.9c0.7,0.7,1.7,0.2,2.4,0.7c0.3,0.2,0.6,0.4,0.8,0.7
		c0.2,0.5,0.4,0.9,0.5,1.4c0.3,1,0.2,2,0.4,3c0.1,0.2,0.1,0.5,0.1,0.7c0.3,1.7-0.4,3.4-0.3,5.2c0.5,2.9,1.4,5.5,4.2,7
		c0.4,0.2,0.7,0.6,0.9,1.1c0.1,0.2,0.2,0.4,0.3,0.6c0.5,0.9,0,2.1,0.6,3c0.4,1,0.4,2.2,0.7,3.2c0.1,0.6,0.2,1.2,0.4,1.8
		c0.1,0.2,0.1,0.4,0.1,0.6c0.1,0.7,0.4,1.3,0.8,1.9c0.1,0.2,0.2,0.4,0.2,0.6c0.2,0.6,0.6,1.1,0.9,1.7c1.1,2.3,2.7,4.4,4.2,6.5
		c1.7,2.5,3.7,4.9,5,7.7c0.4,1.2,0.2,2.6,1.3,3.6c1.7,2.2,3.2,4.6,4.7,6.9c0.5,1.4,1.2,2.6,1.9,3.9c0.4,1.3,0.9,2.7,1.4,4
		c0.1,0.2,0.1,0.4,0.2,0.6c0.1,0.6,0.4,1.3,0.5,1.9c0.4,2.4,2,4,3.6,5.6c1.2,2.1-0.4,3.1-1.6,4.3c-5,1.3-8,4.9-10.3,9.1
		c-1.6,2.2-1.9,4.9-3,7.3c-0.9,2-0.6,4.1-0.1,6.1c1.8,12.7,6.8,24.3,13.3,35.2c1.6,2.7,3.3,5.4,4.9,8.2c1.1,1.9,2.5,3.4,3.7,5.2
		c1.2,2.4,1.9,5.1,3.1,7.5c0.7,2.2,0.7,4.5,1.4,6.7c0.9,2.9,2.4,5.5,4.4,7.7c8.3,8.9,17.9,15.9,29.4,20.1c3,1.1,6,1.5,9.4,1
		c3.7-0.6,7.5-0.2,11.3,0.5c2,0.4,4,0.6,6,0.3c0.9,0.2,1.7,0.7,2.4,1.3c3.1,5.7,6.8,10.9,9.9,16.6c1.4,2.4,2.9,4.8,4.3,7.2
		c1.1,1.9,3.1,2.9,4.4,4.5c0.5,0.9,0.9,1.9,1.3,2.9c0.2,0.7,0.1,1.4-0.1,2c-1.1,1.4-2.6,2.4-3.2,4.1c-2.4,1.7-4.9,3.1-7.1,5.2
		c-8,2.8-13.7,8.9-20.3,13.8c-2.8,1.3-4.5,3.8-6.3,6.1c-4.7,4.2-10.3,7.4-15,11.6c-4.9,2.7-9.4,5.9-13.1,10.2
		c-3.9,4.6-8.2,8.6-12.4,12.8c-1.3,1.3-1.4,3.2-2.6,4.5C1058.9,1548.4,1058,1549.3,1056.9,1550z" />
		<path d="M1129.3,986.4c2.2-0.3,4.1-1.4,6.1-2.2c3.4-1.4,6.5-3.3,9.7-5c0.7-0.6,1.7,0,2.4-0.4c0.1,0,0.3,0,0.4-0.1
		c0.6-0.3,1.3-0.3,1.9-0.5c1-0.4,2-0.5,3,0c0.6-0.1,1.2-0.3,1.8-0.4c1.4-0.6,2.9,0.1,4.4-0.4c1.7,0.1,3.4-0.6,5.1-0.7
		c2.8-0.9,5.6-1.3,8.5-0.6c0.9,0,1.7,0,2.6,0c4.5-0.6,9.1-1,13.6-1.7c0.6-0.3,1.3,0,1.9-0.4c0.4,0,0.9-0.1,1.3-0.1
		c0.6-0.4,1.4,0.1,2-0.4c2.2-0.5,4.4-1.3,6.7-1.5c0.9-0.5,2.1,0.2,3-0.6c0.7-0.1,1.3,0,2-0.1c2.1-0.2,4.2-0.2,6.3-0.3
		c0.3-0.1,0.5-0.1,0.8,0c1.3,0,2.6,0.4,3.8-0.5c3.4-1.5,6.2,0.4,9.2,1.4l0,0c0.4,0.4,1,0.7,1.5,1c1.5,0.1,2.7,0.9,4,1.4
		c3.9,1.5,7.8,3,11.6,4.7c1.5,0.7,3.2,1.3,5,1.2c0.6,0.4,1.4-0.1,2,0.4l0,0c0.6,0.5,1.4,0,2,0.4c1.3,0.2,2.6,0.5,3.9,0.7
		c2.3,0.4,4.3,1.5,6.2,2.7c0.4,0.3,0.8,0.5,1.3,0.6c1,0.2,1.9,0.3,2.9,0c2.3-0.4,4.4,0.3,6.5,0.9c5.9,1.8,11.8,3.6,17,6.8
		c3.9,2.4,7.7,5.1,11.4,7.8c2.5,1.8,5.1,3.5,7.8,5c5.3,2.3,10.5,4.5,15.4,7.7c2.8,1.6,5.6,3.3,8.6,4.4c0.7,0.3,1.4,0.4,1.9,0.9l0,0
		c3.9,1.2,6.6,3.9,9.5,6.5c0.7,0.6,1.2,1.3,2,1.7l0,0c1.2,0.8,2.1,2,3.3,3c0.2,0.2,0.4,0.3,0.5,0.5c0.9,0.5,1.5,1.4,2.4,1.9l0,0
		c1.3,1,2.6,1.8,3.9,2.7c0.6,0.6,1.1,1.2,1.9,1.6l0,0c0.3,0.5,1,0.5,1.4,0.8c5.8,3.3,10.2,8.1,14.2,13.2c1.1,1.4,2.4,2.5,3.6,3.8
		l0,0c0.5,1.1,1.2,1.9,2.3,2.3c0.5,0.4,0.9,0.8,1.5,1c0.7,0.9,1.8,1.4,2.6,2.2c0.4,0.7,1.1,1,1.7,1.4c0.3,0.2,0.5,0.4,0.7,0.7
		c4.8,3.2,7.6,8.2,11.3,12.4c2.3,2.6,4.4,5.4,6.4,8.3c0.9,1.4,1.9,2.8,2.1,4.5c0.2,0.4,0,0.9,0.4,1.3c0.7,1.4,1.3,2.9,2,4.3
		c0.3,0.2,0.6,0.4,0.9,0.7c0.9,1.7,1.5,3.5,1.7,5.4c0.9,4.7,0.1,9.5,1.2,14.3c0.8,3.7,1.4,7.5,0.9,11.3c0.6,2.3,1.7,4.3,2.9,6.3
		c0.7,1,1.8,1.8,1.7,3.2c0.1,3-0.2,6-0.3,9c-0.3,0.9-0.1,1.9-0.2,2.8c2.2,4.9,2.8,10.1,2.3,15.4c-0.3,3.4,0.1,6.6,0.7,9.8
		c0.4,2.7,0.2,5.3-2,7.3c-1.7,1.6-2.7,1.6-4.2-0.1c-0.9-1-1.5-2.3-1.9-3.6c-3.1-9.3-6.2-18.7-8.8-28.1
		c-3.6-13.1-11.1-23.7-21.3-32.6c-5.2-4.6-10.8-8.8-15.9-13.4c-4.3-3.8-7.1-8.8-10.6-13.2c-0.7-0.9-1.2-1.9-2-2.7
		c-2.7-3.1-4.1-6.5-4-10.7c0.1-3.6-1.5-6.2-5-7.6c-5.2-2-8.8-5.6-10.8-10.8c-0.8-2.2-2.1-4.3-3.2-6.4c-1.1-2.1-2.3-4-4.2-5.5
		c-2.5-2.1-4.4-1.7-6.1,1.1c-2.9,4.7-4.7,5.1-9.4,2.2c-1.7-1-3.2-2.4-4.8-3.5c-3.5-2.3-7.3-3.1-11.4-2.3c-4.4,0.8-8.3,2.7-12.3,4.7
		c-3.2,1.6-6.6,2.9-10.3,2.6c-2.8-0.3-5.3-1.1-7.8-2.1c-3.1-1.3-6.2-2.7-9.5-3.3c-4.4-0.9-6.9,0.5-8.5,4.6c-0.4,1-0.7,1.9-1.2,2.9
		c-1.8,4.1-5.4,5.7-9.6,4.2c-1.4-0.5-2.7-1.1-4-1.7c-4.8-2.1-7.9-0.1-8,5.1c0,2.5,0,4.9-0.6,7.4c-0.7,2.8-2.1,5.2-5,5.9
		c-7.3,2-9.9,7.5-10.5,14.1c-0.8,8.6,0.8,17,3.8,25.1c0.6,1.6,1.8,2.8,2.8,4.2c4.2,5.3,4,10.1-0.4,15.4
		c-5.5,6.6-12.4,11.2-20.1,14.7c-3.7,1.7-7.6,1.6-11.5,1c-3.6-0.5-7.1-1.7-10.8-2.2c-2.6-0.3-4.6,0.5-5.9,2.7
		c-3.2,5.3-5.4,11.1-6,17.3c-0.7,6.6,2.9,10.3,9.5,10.3c3.3,0,6.5-0.6,9.8-0.5c3.5,0,6.4,1.3,8.9,3.5c1,0.8,1.9,1.7,2.7,2.7
		c3.1,3.5,6.7,5.8,11.5,6.1c7,0.5,9.1,5.9,11,11.4c0.7,1.9,1.2,3.8,1.5,5.8c1.5,9,4.9,17.3,8.1,25.8c4,10.8,7,22,8,33.5
		c0.8,9.1,2.5,17.8,5.9,26.3c1.4,3.4,2.2,7,2.8,10.7c0.8,5.1-1.1,8.9-5.6,11.3c-3.5,1.9-7.4,3-11.1,4.5c-2.2,0.9-4.2,1.8-6.1,3.2
		c-2.9,2.1-3.9,5.2-4,8.6c0,1,0.3,1.9,0.8,2.7c0.9,1.3,2.1,1.4,3.2,0.1c0.8-1,1.3-2.2,1.8-3.4c1-2,2.3-3.8,3.9-5.4
		c3.2-3.1,6.3-3.7,10.5-1.9c3.7,1.6,6.9,3.9,10.2,6.2c2.1,1.5,4.4,2.6,7,3c3.9,0.6,7.2,2.5,9.8,5.6c2.3,2.7,2,4.4-1.4,5.8
		c-8.1,3.3-13.6,11.6-13.5,20.3c0,1.9,0.5,3.8,1.1,5.6c1.4,3.8,4,6,8.1,6.6c2.8,0.5,5.7,0.5,8.6,1.1c2.4,0.5,4.7,1.1,6.4,3
		c3.6,4.3,8.5,5.8,13.8,6c1.2,0.1,2.4,0.2,3.5,0.6c3.5,1,4.1,2.2,2.6,5.6c-1.3,3-3,5.6-4.8,8.3c-1,1.4-2,2.9-3.2,4.2
		c-1.5,1.6-3.3,2.7-5.5,3.1c-2.8,0.5-5.6,1.1-8.1,2.9c-1.1,0.8-2.2,1.5-1.9,3c0.3,1.6,1.6,2.2,2.9,2.4c2.8,0.4,5.4-0.2,8-1.1
		c2.2-0.8,3.7-0.8,5.3,1.5c1.3,1.9,3.8,2.2,6,2.7c2.6,0.6,5.2,1,7.7,1.7c3.2,0.8,5.6,2.6,7.1,5.6c1.4,2.6,2.5,5.4,3.5,8.2
		c1.2,3.6-0.5,6.4-3.2,8.6c-2.3,1.9-4.6,3.8-7,5.5c-3.3,2.4-5.6,5.5-6.7,9.4c-2,7-3.3,14.2-2,21.5c0.9,5.2,3.2,9.5,8.3,11.9
		c0.9,0.4,1.7,1.2,2.6,1.7c2.5,1.6,4.4,0.8,5.2-2.1c0.2-0.7,0.2-1.4,0.3-2.1c0.8-6.2,4.8-8.6,10.6-6.2c3.1,1.3,6.1,2.9,8.7,5.1
		c3.6,3,7.8,4.3,12.4,4.2c4.8-0.1,8.9,1.5,12.7,4.2c2.3,1.7,4.6,3.4,7,5.1c6.5,4.4,12.2,4.3,18.6-0.2c5.4-3.9,10.3-8.3,14.5-13.5
		c4.5-5.6,9.8-10.5,14.8-15.7c3.5-3.5,6.8-7.2,9.1-11.7c0.8-1.6,1.5-3.2,2.3-4.7c5.3-10.7,11.4-21.1,16.7-31.8
		c2.1-4.3,4.4-8.5,5.6-13.2c0.8-3,2-5.8,1.9-9c0.1-0.3,0.2-0.7,0.3-1c0.2-0.6,0.4-1.2,0.6-1.8c0.1-0.2,0.1-0.4,0.2-0.6
		c0.2-0.6,0.3-1.1,0.4-1.7c0.1-0.3,0.2-0.6,0.3-0.8c0.1-0.6,0.3-1.2,0.4-1.8c0.1-0.2,0.1-0.4,0.2-0.6c0.2-0.6,0.5-1.1,0.6-1.7
		c0-0.2,0.1-0.4,0.1-0.6c0.4-0.6,0.4-1.4,0.6-2.1c0.3-0.8,0.2-1.7,0.5-2.6c0-0.2,0.1-0.5,0.2-0.7c0.2-1.1,0.1-2.2,0.1-3.2
		c0-1.4,0-2.8,0-4.2c0.6-2.6,0.4-5.3,1.7-7.9c1.1-2.3,2.8-3.2,5.1-3.5c1.8-0.2,3.6,0.2,5.4,0.7c6,1.6,12.2,1.9,18.4,2.5
		c9.8,1,19.5,2.5,29.1,4.3c4.4,0.8,8.9,0.8,13.3,1.5c1,0.2,2,0.4,3,0.9c3.4,1.6,3.9,3.9,1.4,6.6c-3.2,3.6-7.1,6.5-11,9.2
		c-3.1,2.2-6.3,4.3-9.7,6.2c-3.7,2.1-6.9,4.5-9.4,8c-3.1,4.2-6.8,7.8-10.5,11.4c-2.3,2.2-4.3,4.7-5.7,7.6c-1.8,3.5-4.3,6.5-7.6,8.5
		c-6.6,4-8.3,10.4-9,17.3c-0.1,1.3-0.1,2.7,0,4.1c0.1,4,1.4,5.6,5.4,6.4c4.8,1,9.1,3,12.9,6.1c2.4,1.9,4.6,4,6.3,6.5
		c2.1,3.1,1.1,5.2-2.6,5.5c-7,0.6-13.5-1.1-19-5.7c-0.7-0.6-1.3-1.2-2.1-1.6c-2.7-1.7-5.4-1.4-7.3,1.1c-4.1,5.5-5.7,11.7-4.9,18.5
		c0.2,2,1.1,3.8,2.9,4.7c6.2,3.1,9.8,8.8,14,13.9c2.2,2.6,4.9,4.6,7.9,6.1c2.6,1.3,5.2,1.2,7.5-0.4c6.6-4.4,10.7-10.6,12.8-18.2
		c0.7-2.4-0.1-4.9-0.9-7.3c-0.7-2.4-1.7-4.7-2.1-7.1c-0.4-2.5,0.2-3.4,2.6-4c5-1.2,9.9-2.6,14.4-5.2c1-0.6,2.3-0.8,3.5-0.9
		c2.9-0.3,3.5,0.1,4.6,2.9c1,2.8,2.1,5.5,3.9,7.9c2.7,3.7,6.1,4.7,10.3,2.8c2.8-1.3,5.6-2.4,8.3-3.7c4.1-2,8.2-1.5,12.4-0.8
		c0.9,0.2,1.7,0.5,1.7,1.7c0,22.3,0,44.5,0,66.8c0,0.9,0.2,1.8-0.2,2.6c-164.2,0-328.3,0-492.5,0c0.2-1.3,1-2.2,1.5-3.3
		c4.1-4.1,8.3-7.9,12.1-12.3c4.6-5.3,9.5-10.2,15.2-14.4c0.5-0.4,1-0.7,1.4-1.3c3.6-2.6,7.2-5.3,10.7-7.9c1.5-1.1,2.9-2.3,4.2-3.5
		c1.8-1,2.9-2.8,4.7-3.8c6.8-4.6,13.1-10,19.8-14.7c0.8-0.5,1.7-0.9,2.3-1.7c2.2-1.6,4.5-3.2,6.7-4.7c1.3-0.6,2.4-1.6,3.6-2.3
		c3-1.6,4.3-1.5,6.8,0.8c8.9,8.2,16.9,17.2,24.2,26.8c4.6,6.1,9.8,11.8,15.2,17.3c5.1,5.2,10.4,10.2,16.4,14.3
		c5,3.4,10.5,3.9,16.3,3.3c1.4-0.2,2-0.6,2-2.3c0-3.6,2.3-6.1,5.7-7.1c1.1-0.3,2.2-0.7,3.3-0.8c3.7-0.4,5.8-3.1,8-5.6
		c1-1.2,0.7-2.4-0.2-3.4c-1.2-1.3-2.7-2.3-4.2-3.2c-3.2-2-6.3-4.2-7.8-7.9c-0.1-0.4-0.4-0.7-0.6-1c-3-3.4-5.4-7.1-7.4-11.1
		c-1.6-3.2-4.6-5.1-7.4-7c-3-2-5.9-4.1-8.4-6.7c-2.8-2.9-4-6.2-4.2-10.2c-0.3-7.1,0.8-14,1.7-21c0.4-3.6,0.3-7.2,0.1-10.8
		c-0.2-2.9-2.1-4.7-4.7-5.8c-2.4-1-4.9-1.6-7.2-2.5c-7.7-3.1-13-8.4-14.9-16.6c-0.9-3.8-0.5-7.6,0.6-11.4c1.5-5.1,3.2-10.1,3.1-15.7
		c-0.1-5.5,2.8-10.3,4.6-15.3c1.3-3.4,2-6.9,2-10.5c-0.1-7.4,0.1-14.8-0.4-22.3c-0.3-4.4-1.9-7.6-6.1-9.4c-4.9-2.1-9.9-4.1-14.7-6.5
		c-1.8-0.9-3.4-0.5-4.9,0.8c-1.1,1-2.2,1.9-3,3.1c-3,4-7,6.5-11.6,8.2c-3.2,1.2-6.1,2.7-8.2,5.6c-1,1.4-2.5,2-4.3,2.2
		c-5.3,0.5-10.6,1.3-15.9,1.7c-4.1,0.3-8.1-0.2-12-1.8c-2.3-0.9-4.1-2.4-5.4-4.5c-1.3-2.1-2.7-4.2-3.4-6.6c-2.7-8-7.3-14.7-12.7-21
		c-4.4-5.1-8.1-10.7-9.8-17.4c-1.1-4.1-1.4-8.4-1.7-12.6c-0.5-6.7-2.1-13.1-4.2-19.4c-1.9-5.8-3.9-11.5-4.4-17.6
		c-0.4-4.7-0.6-9.4-1.5-14c-0.3-1.3-0.6-2.6-1.2-3.9c-0.4-0.9-0.7-2-1.9-1.8c-1.1,0.1-1.2,1.2-1.4,2c-0.6,2.9-1.2,5.8-1.3,8.8
		c-0.4,8.9,0.7,17.7,2.8,26.4c2.7,11.6,4.4,23.4,5.4,35.2c0.7,7.5,2.1,14.9,5.1,21.9c4.3,10.1,7.5,20.6,9.9,31.3
		c0.6,2.9,1.7,5.7,3.6,8c3.5,4.3,5.2,9.5,7.2,14.5c1.2,2.8,2.6,5.5,4.4,7.9c8.7,11.5,14.4,24.5,19.5,37.8c1.3,3.3,2.5,6.6,3.2,10
		c0.8,4.1-0.2,6-4.2,7.2c-8.9,2.9-17.4,1.9-25.1-3.4c-5.1-3.5-10-7.4-15.2-10.9c-5.8-3.9-9.6-9.1-11.7-15.7c-3-9.4-7.8-17.9-13-26.2
		c-1.9-3.1-3.5-6.4-4.4-10c-2.1-7.6-3.8-15.4-5.1-23.2c-1.6-9.2,1.2-16.6,9.1-22c0.1-0.1,0.2-0.2,0.3-0.4c0.2-0.2,0.4-0.5,0.7-0.6
		c1.4-0.5,1.2-1.5,0.8-2.6c-1.2-2.2-2.4-4.5-3.1-6.9c-1.2-4.9-4-9-6.1-13.4c-3.8-7.9-9.5-14.6-13.8-22.2c-1.5-2.8-1.7-6-3-8.9
		c-0.4-0.6-0.6-1.2-0.8-1.9c0-0.1,0-0.3-0.1-0.4c-0.9-2.1-2.8-3.6-3.5-5.7c-1.1-2.6-1.5-5.4-1.7-8.2c0-0.1-0.1-0.3-0.1-0.4
		c-0.5-1,0.1-2-0.3-3c-0.1-0.4-0.1-0.8-0.2-1.3c-1.5-3.6-3.4-7.1-4.3-10.9c-0.1-0.2-0.1-0.5-0.1-0.7c-1.5-2.4-3-4.8-4-7.5
		c-0.5-1.5-1-3-1.5-4.6c0-0.1-0.1-0.3-0.1-0.4c-1.4-1.6-0.6-3.7-0.9-5.5c-0.5-0.5-0.1-1.2-0.5-1.8c0.2-1.3-0.4-2.5-0.6-3.8
		c-0.3-1.9-0.3-3.9,0-5.8c0.2-1.7,0.4-3.5,0.6-5.2c0.4-0.8,0-1.7,0.3-2.6c0.1-1.9,0.6-3.8,0-5.6c-0.1-0.8,0-1.5-0.1-2.3
		c-0.1-1,0.2-2-0.2-3c0-0.3-0.1-0.6-0.1-0.9c-0.3-0.9-0.1-1.8-0.2-2.7c-0.1-1,0.2-2.1-0.2-3.1l-0.1,0c-0.4-2.6-0.3-5.1,0-7.7
		c0-0.3,0.1-0.6,0.1-0.9c0.3-0.8,0.1-1.7,0.2-2.5c0-0.7,0-1.5,0.1-2.2c0.7-0.9,0.3-1.9,0.4-2.9c0-0.4,0-0.8,0.1-1.1
		c1-5.1,1.6-10.4,3.8-15.2c2.5-4.4,4.6-9,7.6-13.1c3-4.1,3.9-8.9,2.1-14c-1.2-3.1-1.5-6.3-0.1-9.5c0.3-0.6,0.6-1.2,0.3-1.8
		c3.3-6.9,5.7-14.2,8.1-21.5c1.3-1.4,1.3-3.3,2.1-4.9c1.3-2.8,3.4-5.1,5-7.6l-0.1-0.1c0.6-0.5,0.9-1.3,1.6-1.8
		c1.4-1.2,2-2.8,2.7-4.5c0.9-1.4,0.8-3.1,1.5-4.6c1.4-3.6,2.8-7.2,5.7-9.9c0.5-0.6,1-1.2,1.5-1.8c0.4-0.4,1-0.5,1.3-1.1
		c0.2-0.2,0.4-0.3,0.6-0.5c0.7-0.3,1.3-0.9,1.9-1.4c0.1-0.2,0.3-0.4,0.6-0.3c1.5-0.6,2.8-1.6,4.3-2c4.4-1.2,7.2-4.5,10-7.9
		c0.3-0.4,0.8-0.8,1.1-1.2c0.3-2,0.1-4,1-5.9c1.3-1.5,2.1-3.5,3.8-4.6c1.1-0.8,1.7-2,2-3.4c4.7-7,9.7-13.9,14.8-20.6
		c1.1-1.3,2.2-2.6,3.7-3.5c1.5-1,2.9-2,4.5-2.9c0.8-0.4,1.5-0.7,2.4-0.5c0.7-0.5,1.5-0.9,2.2-1.4c2.3-0.9,4.5-2,6.8-2.8
		c5.9-2.4,10.6-6.6,15.5-10.5c0.2-0.1,0.5-0.1,0.7-0.2C1123.1,987.5,1125.9,985.7,1129.3,986.4z" />
		<path class="st1" d="M1549.4,1550c0-22.4,0-44.9,0-67.3c0-0.9-0.1-1.8-0.1-2.6c-0.9-0.9-1-2.1-1.1-3.3c-0.1-2.3,0.1-4.6-0.3-6.8
		c0.8-3.3-0.1-6.7,0.3-10c0.1-1.8-0.5-3.6,0.7-5.2c0.2-0.2,0.5-0.3,0.8-0.2c0,31.2,0,62.4,0,93.5
		C1549.9,1548.7,1550.4,1549.6,1549.4,1550z" />
		<path class="st2" d="M1549.9,1380.2c0,15.3,0,30.7,0,46c-0.3,0.1-0.6,0-0.8-0.2c-0.7-0.7-0.6-1.6-0.7-2.5
		c-0.4-4.3-0.1-8.5-0.2-12.8c-0.2-5,0.7-9.9,0.1-14.9c-0.5-4-0.1-8.1-0.1-12.1c0-1.2-0.1-2.4,0.7-3.4
		C1549.3,1380.1,1549.6,1380.1,1549.9,1380.2z" />
		<path class="st3" d="M1549.4,1426.3c0.2,0,0.3,0,0.5,0c0,9.4,0,18.9,0,28.3l-0.2,0l-0.2,0c-0.1-0.1-0.3-0.2-0.4-0.3
		c-0.9-1-0.8-2.2-0.8-3.4c0-7,0-14,0-21c0-1.2-0.1-2.4,0.8-3.4C1549.2,1426.4,1549.3,1426.3,1549.4,1426.3z" />
		<path class="st4" d="M1549.9,1380.2c-0.1,0-0.3,0-0.4,0c-0.3-0.2-0.5-0.4-0.6-0.7c-0.9-3.2-0.6-6.4-0.5-9.6c0-1,0.3-1.8,1-2.6
		c0.2,0,0.4-0.1,0.6-0.1C1549.9,1371.6,1549.9,1375.9,1549.9,1380.2z" />
		<path class="st5"
			d="M1437.2,1406.1c-0.1,2-0.9,3.7-1.7,5.4c-3.4,7.1-7.2,14.1-10.9,21.1c-3.3,6.1-6.6,12.3-9.5,18.5
		c-3.4,7.1-7.9,13.3-13.5,18.8c-4.8,4.7-9.3,9.7-13.6,14.8c-4.2,5-9,9.5-14.5,13.1c-2.8,1.8-5.8,3.3-9.3,3.3c-3.2,0-6-0.8-8.6-2.5
		c-2.6-1.8-5.3-3.6-7.8-5.6c-3.9-3-8.3-4.6-13.3-4.5c-4.5,0.1-8.6-1.2-12.2-4.1c-2.4-2-5.1-3.6-8-4.9c-1.6-0.7-3.1-1.2-4.9-1
		c-2.1,0.2-3.6,1.3-4.2,3.3c-0.4,1.1-0.6,2.3-0.6,3.5c-0.1,1.5-0.5,2.8-1.3,4c-1.1,1.5-2.3,2.2-3.9,1.3c-3.6-2.1-7.5-3.7-10.1-7.2
		c-2.5-3.3-3.7-7.3-3.9-11.4c-0.3-6,0.5-11.8,2-17.6c1.3-4.9,3.9-8.9,8-11.8c2.3-1.6,4.5-3.4,6.6-5.2c3.1-2.6,3.9-5.3,2.1-8.9
		c-1.1-2.1-1.8-4.3-2.8-6.4c-1.2-2.7-3.3-4.3-6.1-4.9c-1.6-0.4-3.1-0.8-4.7-1c-3.2-0.4-6.1-1.8-9.2-2.5c-0.7-0.2-1.1-0.6-1.2-1.3
		c-0.3-2-1.2-1.9-2.7-1.3c-2.2,0.9-4.5,1.2-6.8,1.5c-1.5,0.2-3,0-4.4-0.7c-1.4-0.6-2.3-1.6-2.4-3.3c-0.1-1.7,0.6-2.6,2-3.5
		c2.9-1.8,6-3,9.4-3.5c2.1-0.3,3.8-1.3,5.1-2.9c2.9-3.5,5.5-7.3,7.4-11.4c1.5-3.2,1.3-3.9-2.2-4.5c-2.2-0.4-4.4-0.7-6.6-0.9
		c-3.4-0.3-6.5-1.4-8.7-4.1c-3.2-3.8-7.4-4.8-12-5c-1.9-0.1-3.8-0.4-5.7-0.8c-3.2-0.6-5.4-2.5-6.9-5.4c-2.5-4.8-2.5-9.8-0.9-14.9
		c1.8-5.5,5.1-9.9,10.1-13c1.2-0.7,2.5-1.1,3.7-1.6c1.7-0.7,2-1.7,0.8-3.1c-2.3-2.8-5-4.9-8.7-5.4c-3.5-0.5-6.5-2.1-9.3-4.1
		c-2.6-1.9-5.2-3.7-8.2-5c-0.9-0.4-1.9-0.8-2.9-1.1c-2.6-0.7-4.7,0-6.6,1.7c-1.6,1.5-2.9,3.2-3.9,5.1c-0.7,1.5-1.4,3-2.3,4.5
		c-1.1,2.1-2.8,2.3-4.4,0.5c-1.5-1.6-1.9-3.6-1.7-5.8c0.4-5.4,3.8-8.6,8.5-10.7c3.3-1.4,6.7-2.6,10.1-3.9c1.3-0.5,2.5-1.1,3.7-1.7
		c3.8-2.1,5.3-5.3,4.7-9.6c-0.7-5-2.2-9.8-4.1-14.5c-2.8-6.8-4-13.9-4.4-21.2c-0.3-4.7-1.3-9.3-2.2-13.9c-2.1-11-6-21.4-10-31.7
		c-1.6-4-2.6-8.2-3.5-12.4c-0.7-3.6-1.5-7.2-2.8-10.6c-0.3-0.7-0.6-1.3-0.9-2c-1.6-3.6-4.2-6-8.3-6.3c-0.6,0-1.3-0.2-1.9-0.3
		c-3.1-0.3-5.7-1.6-7.8-3.7c-1.4-1.4-2.8-2.8-4.2-4.2c-2.7-2.7-5.9-4.1-9.9-4.1c-3.3,0-6.5,0.8-9.8,0.6c-1.4-0.1-2.7-0.2-4-0.7
		c-3.7-1.5-5.7-4.2-6-8.2c-0.2-2.3,0.1-4.6,0.7-6.9c1.1-4.5,2.8-8.8,5-12.9c1.8-3.3,4.1-4.8,8.3-4c3.4,0.6,6.7,1.6,10.1,2.2
		c4.3,0.8,8.4,0.4,12.4-1.5c5.5-2.6,10.4-6,14.9-10c2-1.8,3.7-4,5.1-6.3c2-3.3,1.8-6.5-0.2-9.7c-0.4-0.6-0.8-1.2-1.2-1.8
		c-2.5-2.7-3.8-5.9-4.6-9.3c-1.5-6.1-2.6-12.2-2.4-18.5c0.1-3.8,1-7.4,2.7-10.8c1.3-2.6,3.3-4.5,6.1-5.4c0.9-0.3,1.8-0.7,2.7-1
		c2.4-0.9,3.7-2.6,4.3-5.1c0.3-1.6,0.6-3.1,0.6-4.7c0-1.4-0.1-2.9,0.1-4.3c0.4-3.9,3.7-6.2,7.5-5.2c1.9,0.5,3.5,1.6,5.3,2.2
		c1.2,0.5,2.4,0.8,3.7,0.7c2.1-0.1,3.7-1,4.6-2.9c0.6-1.2,1.1-2.5,1.5-3.8c1.5-4.8,4.4-6.4,9.9-5.5c3.4,0.6,6.5,2,9.7,3.4
		c2.3,1,4.6,1.8,7.1,2.1c3.4,0.4,6.5-0.7,9.4-2.1c2.3-1.1,4.6-2.2,6.9-3.3c2.2-1,4.5-1.6,6.9-2c4-0.6,7.8,0,11.2,2.3
		c1.1,0.7,2.2,1.6,3.3,2.4c1.4,1.1,2.8,2.1,4.5,2.7c2.4,0.8,3,0.6,4.4-1.5c0.4-0.6,0.7-1.3,1-1.9c0.4-0.8,1-1.4,1.6-2.1
		c0.9-1.1,2-1.2,3.2-0.7c1.7,0.7,3.1,1.6,4.2,3c1.3,1.6,2.5,3.3,3.4,5.2c1.6,3.2,3.1,6.3,4.7,9.4c1,2,2.4,3.7,4.6,4.7
		c2.4,1.1,4.6,2.6,6.9,3.8c1.3,0.7,2,1.8,2.2,3.2c0.2,1.8,0.5,3.6,0.5,5.5c0,2.4,0.8,4.5,2.2,6.4c2.8,3.7,5.6,7.4,8.3,11.2
		c2.7,3.9,6.1,7,9.7,9.9c5.8,4.8,11.8,9.5,17.1,15c7.8,8.1,13.4,17.4,16.4,28.3c2.6,9.4,5.7,18.6,8.7,27.9c0.5,1.4,1,2.7,2.1,3.7
		c0.6,0.6,1.1,0.6,1.6,0.1c1.5-1.3,2.2-3.1,2.4-5.1c0.1-2.2-0.4-4.3-0.6-6.4c-0.1-0.8-0.3-1.6-0.1-2.4c0.8-5.5,0.3-11-1.2-16.4
		c-0.1-0.5-0.3-1.1-0.4-1.6c0.2-0.3,0.3-0.3,0.4,0.1c0.4,0.4,0.7,0.9,1.1,1.3c0.8,0.8,1.7,1.5,1.6,2.8c0,3.2-0.4,6.3-0.2,9.5
		c0,1,0,2,0.4,3c1,4.6,1.3,9.3,2.6,13.8c1.2,4,0.5,8.2,0.9,12.4c1.2,3.3,2.6,6.6,3.3,10.1c0.6,2.9,1,5.7,0.2,8.6
		c-0.5,1.9-1.4,3.3-3.1,4.3c-2.8,1.7-4.6,1.3-6.5-1.4c-2-2.8-3.5-6-4.6-9.2c-2.5-7.4-5.5-14.5-8.6-21.6c-3.7-8.3-6.3-16.9-8.8-25.6
		c-3.1-10.5-6.8-20.7-13.7-29.4c-5-6.2-10.7-11.7-16.5-17.1c-5-4.7-9.8-9.6-14-15.1c-4.1-5.3-9.2-9.3-15.2-12.1
		c-4.8-2.2-8.6-5.5-11.2-10.1c-1.1-2-2.5-3.9-4.2-5.5c-1.8-1.8-3.9-2.9-6.5-2.1c-5.6,1.7-9.6-0.4-12.7-5c-0.9-1.3-1.9-2.6-3.3-3.4
		c-3.2-1.9-6.5-0.2-6.8,3.5c-0.2,2.6,0.4,5.2,0.7,7.9c0.2,2.2,0.4,4.5-0.2,6.7c-0.8,2.8-2.3,3.6-5,2.4c-3-1.4-5.2-3.7-7.3-6.1
		c-2.8-3.2-5.7-6.5-9.4-8.8c-4.9-3.1-10.7-2.1-13.9,2.8c-2.9,4.5-6.3,8.3-11.1,11c-3.2,1.8-4.5,5-4.7,8.7c-0.2,2.2-0.1,4.5,0,6.7
		c0.1,5,1,9.9,1.6,14.8c0.7,5.7,0,11-2.2,16.2c-1.9,4.7-3.7,9.4-4.5,14.4c-0.9,5.3,0.5,9.8,5.2,13c3.1,2.1,6.4,2.6,10,1.3
		c1.3-0.5,2.5-1,3.6-1.8c5.2-3.9,11.2-5.2,17.6-5.1c7.1,0.1,13.4-2.7,19.8-5.1c4.1-1.5,8.1-3.1,12.2-4.4c8-2.5,15.2-0.9,21.2,5
		c3.1,3,3.3,5.4,1.1,9c-1.6,2.6-3.1,5.2-4.4,8c-1.7,3.7-1,6.1,2.6,8.3c1.9,1.1,3.9,1.7,5.8,2.8c4.4,2.6,7.5,6.6,10.3,10.7
		c2.5,3.7,5.3,7.2,8.1,10.6c0.7,0.8,1.5,1.6,1,2.7c-0.5,1.2-1.6,1.5-2.7,1.6c-2.8,0.4-7.2-2.3-8-4.8c2.8-2.4,2.8-2.5,0.3-5.5
		c-3.6-4.3-7.8-7.8-12.7-10.5c-3.6-2-7.8-2.3-11.8-2.6c-5-0.3-9.9,0.8-14.8,0.4c-1.5-0.1-3.4,0.4-3.8-1.6c-0.4-1.7,0.5-3.2,2-4.2
		c2.1-1.4,3.8-3.1,5.1-5.3c2.3-4.1,0.8-7.4-3.7-8.5c-3.8-1-7.6,0-11.4,0.1c-8.8,0.2-16.6,3.6-24.6,6.7c-7.3,2.7-14.6,5.3-22.6,4.7
		c-4.8-0.3-9.5-1-14.3-0.9c-5.5,0.1-7.4,2.5-6,7.8c1.2,4.7,3.6,8.4,7.6,11.2c4.7,3.3,9.9,4.7,15.5,5c1.6,0.1,3-0.3,4.3-1.1
		c3.2-1.8,6.7-3,10.4-3.5c1-0.1,1.9-0.2,2.9-0.1c2.2,0.3,3.2,2,2.2,4c-0.8,1.7-2.2,2.9-3.7,4c-2.6,2-5.6,3.4-8.4,5.1
		c-2.6,1.6-3.6,3.8-3.8,6.7c-0.5,7.8,2.7,14.3,7,20.4c4.1,5.8,9.3,10.5,15.5,14.1c2.3,1.3,4.8,2.2,7.4,2.8c2.5,0.5,4.7-0.1,6-2.4
		c2-3.3,4.3-6.4,6.5-9.5c1.9-2.7,1.6-4.5-1-6.6c-1.8-1.5-3.7-2.7-5.9-3.7c-4.6-2-9.6-8-9.1-13.8c0.2-2.7,1.4-5,3-6.9
		c5-5.7,10.4-10.8,18-13c3.2-0.9,3.7-0.8,4.5,2.4c0.2,1,0.5,2,0.8,3c1,3.3,1.2,3.3,4.7,3.4c2.6,0,5.5,2.5,5.7,5.1
		c0.1,1.4,0.8,2.2,2,2.6c1.3,0.4,2.6,0.8,4,0.5c3-0.5,3.8-2.4,2-4.9c-0.6-0.9-1.8-1.6-0.9-2.9c0.9-0.6,1.5-0.1,2.1,0.4
		c0.8,0.7,1.6,1.3,2.4,1.9c2.5,1.6,2.7,3.2,0.5,5.4c-0.4,0.4-0.9,0.7-1.1,1.2c-0.8,0.9-1.8,1.3-2.8,1.8c-5.6,1.1-10.4-0.8-14.8-3.9
		c-2.4-1.7-4-3.5-6.2-5.5c-0.5-0.5-1.7-1.7-2.6-0.7c-0.7,0.8-0.7,1.4-0.5,2.1c0.9,3,0.1,5.7-1.4,8.2c-0.3,0.5-0.6,1-0.8,1.5
		c-1.1,2.6,0,4.3,2.9,4.2c2-0.1,4-0.3,5.9-0.6c2-0.3,4-0.3,6-0.1c1.6,0.1,2.6,1.1,2.4,2.7c-0.4,2.5,0.9,4.3,2.2,6.1
		c1.6,2.3,3.1,4.6,3.6,7.5c0.4,2.7,0,5.3-0.6,7.8c-0.7,3.5-1.1,6.9-1.1,10.4c0.1,5.7-1.6,7.7-7.1,9.1c-1.2,0.3-2.3,0.5-3.5,0.7
		c-2.1,0-4.3,0-6.4,0c-12.7-1.7-24.3-6.1-34.8-13.4c-3.8-2.6-7-5.8-9.9-9.3c-6-7.1-11.2-14.8-15.3-23.1c-0.4-0.7-0.8-1.4-1.3-2
		c-3.2-3.6-8.1-2.7-9.8,1.7c-1.5,3.9-1.5,7.9-0.7,12c1.4,7.1,3.6,13.9,5.9,20.7c2.8,8.6,5.3,17.3,7,26.1c2.1,11,6.9,20.9,12.6,30.3
		c1.6,2.6,3,5.3,4.5,7.9c2.2,3.8,3.6,8,4.2,12.4c0.8,6,3.6,10.9,7.8,15c1.7,1.6,3,3.5,4,5.6c2.7,5.7,6,11.1,8.1,17.1
		c1.4,4.2,1.9,8.4-0.2,12.6c-0.8,1.6-1.3,3.4,0.2,4.9c1.5,1.6,3.4,1.5,5.4,1c3.2-0.9,6.3-2.3,9.8-2c1.4,0.1,2.7,0.2,4,0.5
		c9.1,2.7,18.5,3.5,27.9,4.4c4.3,0.4,8.8-0.2,13.2,0c2.9,0.1,5.3,1.1,6.6,4c0.7,1.7,0.7,3.2-0.2,4.8c-2.6,4.5-8.2,6.7-14.7,5.8
		c-4.4-0.6-8.8-1.7-13.2-2.2c-2.5-0.2-5-0.2-7.4,0c-4.7,0.5-9.1,1.8-12.6,5.2c-3.2,3.2-3.3,6.9-0.1,10.1c3,3.1,6.7,5.5,10.4,7.7
		c6.8,4,12.2,9.5,17,15.6c0.8,1.1,1.8,2,2.9,2.8c1.9,1.4,3.3,3.3,4.4,5.3c2.1,3.9,0.4,8.7-3.6,10.8c-2.6,1.4-5.5,1.8-8.3,2.3
		c-2.1,0.4-4.2,0.8-6.3,1.6c-3.4,1.3-4.2,3.1-3,6.6c0.5,1.5,1.4,2.9,2.3,4.2c1.9,3,4.1,5.7,6.2,8.5c2.1,2.6,4.8,4.4,8.1,5.3
		c2.5,0.7,5,1.4,7.5,1.2c6.4-0.5,11.2,2.5,15.7,6.4c3.5,3,7,6.1,10.9,8.6c6,3.8,12,3.8,18,0c2.5-1.6,4.8-3.4,6.9-5.5
		c5.5-5.5,11-10.9,16.4-16.5c4.1-4.2,7.6-9,10.3-14.3c6.9-13.4,13.8-26.7,21.1-39.9C1435.4,1408.2,1435.1,1406.2,1437.2,1406.1z" />
		<path class="st5" d="M1043.4,1328.7c-0.7,1.6-1.9,2.7-3,4c-4.4,4.7-6.3,10.2-5.4,16.5c1.4,9.3,3.4,18.5,6.2,27.6
		c1,3.2,2.7,6.1,4.5,9c2.3,3.8,4.6,7.7,6.9,11.5c1.7,2.9,2.5,6.2,3.7,9.3c0.7,1.9,1.3,3.8,2,5.6c1.7,4.4,4.4,8,8,10.8
		c5.9,4.4,11.8,8.7,17.9,12.9c4.5,3.1,9.6,5.1,15.2,5c3.5-0.1,6.8-1,10-2.1c2.4-0.8,2.9-2.1,2.4-4.8c-0.8-4.3-2.5-8.3-4-12.3
		c-3.5-9.4-7.8-18.5-12.9-27.3c-1.1-1.9-2.3-3.8-3.7-5.6c-3.3-4.2-6-8.7-7.7-13.7c-1.6-4.7-4-9-7-13.1c-1.2-1.6-2-3.4-2.4-5.4
		c-0.4-1.7-0.9-3.4-1.3-5.1c-2-8.8-4.7-17.4-8.2-25.8c-3.5-8.1-5.2-16.6-5.9-25.3c-1-12.4-3.2-24.5-5.9-36.6
		c-1.6-7.3-2.5-14.8-2.2-22.4c0.1-4.1,0.8-8.1,1.8-12.1c0.1-0.5,0.3-1.1,0.5-1.6c0.6-1.4,1.6-1.6,2.8-0.4c1,1,1.6,2.2,2.1,3.5
		c1.2,3.2,1.7,6.6,2,10.1c0.3,3.1,0.6,6.2,0.8,9.3c0.4,4.1,1.5,8,2.8,11.9c1.4,4.4,2.9,8.8,4,13.3c1.1,4.3,1.7,8.7,1.8,13
		c0.3,10.4,4.3,19.2,11,26.9c1.2,1.4,2.3,2.8,3.5,4.3c3.7,4.4,6.5,9.3,8.4,14.7c0.8,2.3,2,4.5,3.1,6.8c2.4,4.7,6.3,6.7,11.3,7.3
		c5.2,0.7,10.2-0.2,15.3-0.7c2.3-0.2,4.6-0.6,6.9-0.7c1.4-0.1,2.6-0.4,3.3-1.6c2.1-3.3,5.4-4.9,8.9-6.2c3.7-1.4,7.1-3.3,9.8-6.3
		c1-1.1,2-2.3,3.1-3.4c3.8-3.9,4.2-3.9,9.1-1.6c3.5,1.7,7,3.1,10.5,4.7c2.1,0.9,4.2,2,6.1,3.3c1.5,1,2.3,2.3,2.6,4.1
		c0.6,3.4,0.8,6.8,0.9,10.2c0.2,6,0,12,0.1,18c0,2.6-0.4,5.1-1.4,7.5c-1.2,3.1-2.2,6.2-3.5,9.2c-1.3,3.1-1.9,6.3-1.8,9.6
		c0,3.2-0.5,6.2-1.6,9.2c-1.3,3.8-2.4,7.6-2.4,11.7c0,6.3,2.9,11.2,7.4,15.3c2.4,2.2,5.3,3.8,8.5,4.7c1.8,0.5,3.7,1.2,5.5,1.8
		c4.4,1.6,5.9,4,6.1,8.7c0.3,7.1-0.9,14-1.7,21c-0.4,3.5-0.4,7-0.2,10.5c0.4,5.3,3.9,8.8,7.9,11.8c2.3,1.7,4.7,3.3,7.1,4.9
		c2.5,1.8,4.5,4.1,5.8,6.9c1.3,2.8,2.7,5.4,5,7.5c1.2,1.1,2.2,2.6,2.8,4.1c0.7,1.6,1.7,2.9,3.2,3.8c1.4,0.9,2.8,1.9,4.2,2.8
		c2,1.2,3.7,2.8,5.3,4.5c0.8,0.9,0.8,1.6,0,2.5c-1.6,1.6-3.2,3.2-4.6,4.9c-0.7,0.9-1.7,1.3-2.9,1.6c-2,0.5-4,1-6.1,1.5
		c-2.3,0.6-4.4,3.2-4.5,5.6c0,0.6,0.2,1.1,0.6,1.5c0.4,0.6,1.2,0.8,1.4,1.7c-4.6,0.3-9.2,1.1-13.8,0.3c-5-0.9-9-3.6-12.7-6.8
		c-4.4-3.7-8.7-7.5-12.7-11.7c-6.5-6.9-12.6-14-18.4-21.4c-2.7-3.4-5.4-6.8-8.1-10.1c-1.4-1.7-3.2-2.9-4.7-4.4
		c-2.6-2.5-5.2-5-7.7-7.6c-1.3-1.3-2.6-1.6-4.3-1c-1.7,0.6-3.3,1.6-5.1,1.9c1-1.1,2-2.2,3-3.3c0.4-0.6,0.3-1.3,0-1.9
		c-0.3-0.8-0.7-1.6-1-2.3c-5.4-8-9.9-16.7-15.3-24.8c-0.8-1.2-1.7-2.3-2.9-3.1c-0.6-0.5-1.2-0.8-1.9-1c-3.3-1.3-6.8-1.4-10.3-1.9
		c-3.4-0.5-6.8,0.1-10.3,0.3c-7-0.6-12.9-3.9-18.7-7.6c-6.8-4.3-13-9.3-18-15.6c-2.5-3.1-3.4-6.8-4.7-10.3c-0.3-0.7-0.4-1.5-0.9-2.1
		c-0.9-2.4-1.6-4.9-2.8-7.3c-2.1-4.6-5-8.7-7.5-13c-6.1-10.4-10.9-21.4-13.4-33.3c-1.3-6-0.6-11.7,2.1-17.1
		C1035.4,1333.7,1038.7,1330.4,1043.4,1328.7z" />
		<path class="st6" d="M1441.1,1391.3c0,0.3-0.1,0.6-0.1,0.9c-0.4,0.6,0.1,1.4-0.4,2l0,0c-0.4,0.6-0.1,1.5-0.9,2c0,0.3,0,0.6-0.1,0.9
		c-2.3,7.8-6,15-10,22c-3.8,6.6-7.5,13.2-10.5,20.2c-1.7,3.8-3.7,7.5-7.1,10.3c-1.3,1.1-2.7,2-4.3,2.5c-2.5,0.8-4.9,0.5-6.4-1.8
		c-2.7-4.2-6.5-2.9-9.4-0.9c-1.6,1.1-2.8,2.6-3.7,4.3c-1.3,2.5-2.3,5.1-3,7.8c-0.9,3.5-3.2,5.3-6.3,6.6c-5,2.1-10.1,2.1-15.3,0.9
		c-3.8-0.9-7.6-1.9-11.2-3.3c-4.6-1.8-9.3-2.9-14.1-3.6c-1.6-0.2-3.1-0.6-4.7-1.1c-1.8-0.5-3.4-1.5-4.5-3c-1.5-2.3-0.9-4.6,1.6-5.7
		c1.9-0.9,3.9-1.5,5.9-2c4.2-1.1,8.1-2.9,11.5-5.7c5.4-4.5,11.5-5.9,18.4-4.3c1.4,0.3,2.8,0.5,4.3,0.5c3.9,0.1,6.4-1.7,7.3-5.5
		c0.9-3.8,1.3-7.7,0.9-11.7c-0.5-4.5-0.6-9.1-2.4-13.4c-0.9-2-0.1-4.1,0.8-6c2.9-6.3,2.4-8.4-2.4-13.4c-5.8-6-11.3-12.2-18-17.1
		c-3.5-2.5-7-5-10.7-7.2c-3.3-2-6.8-2.2-10.3-0.6c-0.4,0.2-0.7,0.3-1.1,0.5c-6.5,4.1-13.5,3.9-20.6,1.9c-7.9-2.1-15.4-5.2-23.3-7.5
		c-4.4-1.3-7-4.3-7.9-8.8c-1-5.2-2.6-10-5.9-14.3c-0.9-1.2-1.5-2.7-1.8-4.1c-1.1-4.4,0.8-7.8,5.2-9c1.2-0.3,2.5-0.7,3.7-0.8
		c3.2,0.1,6.4,0.1,9.6-0.2c4.4-0.1,8-1.5,9.6-6.1c0.7-2.1,2.4-2.1,4.1-1.8c3.5,0.6,6.7,1.9,9.8,3.7c3,1.8,5.9,3.6,8.7,5.5
		c5.8,3.8,12.1,6.5,18.5,9.1c3.4,1.4,6.7,3,10,4.6c2.2,1.1,4.4,1.9,6.9,1.7c2.4-0.1,3.5-1.1,3.8-3.5c0.3-1.9-0.4-3.6-1.3-5.2
		c-1.6-2.7-3.7-4.8-6.1-6.7c-4.6-3.7-8-8.3-11.2-13c-6.1-9-13.2-17-22.5-22.9c-5.5-3.5-11.4-6.4-17.5-8.9c-1.5-0.6-3-1-4.6-1.2
		c-4.5-0.7-6.9,2-5.7,6.4c0.9,3.3,2.5,6.2,3.8,9.3c1.9,4.3,3.3,8.7,3.9,13.3c0.1,0.6,0.2,1.1,0.2,1.7c0.1,3.5-1.2,4.3-4.4,3
		c-2.8-1.2-4.9-3.2-7.3-5c-0.7-0.5-1.4-1.1-2.1-1.6c-5.1-3.8-9.9-3.8-15,0.1c-1.6,1.2-3.1,2.5-4.8,3.5c-2.8,1.8-5.2,1.4-7.4-1.2
		c-3.4-4.1-5.4-9.1-7.2-14c-1.6-4.3-3.7-8.3-5.9-12.3c-4.8-8.7-9.1-17.6-11.6-27.3c-2.8-11-6-21.9-9-32.8c-1-3.6-1.3-7.2-1.1-10.9
		c0.1-2.2,0.9-3.9,3-4.8c2.1-0.8,3.7,0.1,5.2,1.5c3.7,3.8,6.9,8,10.3,12c5.1,5.9,9.9,12.1,16.6,16.5c6.1,4,12.8,6.9,19.4,9.9
		c9.4,4.1,19.2,7.6,27.9,13.3c1.1,0.7,2.4,1.3,3.7,1.7c4.8,1.4,9.1,3.8,13.4,6.3c1.9,1.2,4,2.1,6.1,2.6c2.6,0.7,4.3-0.2,5.6-2.5
		c3.3-6.3,1.5-14.9-4-19.4c-1.1-0.9-2.2-1.9-3.3-2.8c-4.9-3.7-6.5-9-7-14.7c-0.5-6-2-11.6-5.5-16.6c-1-1.5-1.7-3.1,0-4.7
		c0.8-0.8,0.4-1.6-0.1-2.4c-1.4-2.4-1.2-3.2,1.3-4.5c2.1-1.2,4.4-1.9,6.5-3.1c-0.9,0.4-1.9,1.5-2.9,0c2-1.8,4.4-2.6,6.9-3.1
		c2.1-0.4,4.1,0.4,6,1.2c0.3,0.1,0.6,0.4,0.6,0.7c0,0.5-0.4,0.7-0.8,0.7c-1.7,0.3-3.5,0.6-5.2,0.9c-2,0.3-3.9,1.1-5.5,2.2
		c-1.7,1.2-1.7,2-0.4,3.5c0.9,0.9,2,1.7,3,2.3c1.7,1.1,2.6,2.7,2.9,4.7c0.2,1.2,0.4,2.4,0.5,3.6c0.4,5.5,2.8,10.3,5.8,14.8
		c0.2,0.3,0.5,0.6,0.7,0.9c4.7,5.4,10.7,5.7,15.8,0.6c2.1-2.1,3.8-4.5,5.2-7.1c3.9-7.1,7.1-14.5,10.5-21.8c0.1-0.3,0.3-0.6,0.4-0.9
		c0.4-0.9,0.9-1.1,1.9-0.6c6.8,3.5,9.6,11.7,6.4,18.7c-1.3,2.9-3.2,5.3-5.4,7.6c-3.8,4-8.1,7.5-12,11.4c-3.3,3.3-4.8,7.1-4.9,11.8
		c-0.1,5.5,0.9,10.8,1.7,16.2c0.3,1.8,0.5,3.6,0.7,5.5c0.4,4.1-0.5,7.9-2.8,11.4c-1,1.5-1.9,3-2.8,4.4c-2,3.1-1.9,6.2-0.1,9.3
		c0.8,1.4,1.6,2.8,2.7,4c2.9,3.4,5.4,7.1,7.6,11c6.4,11.7,12.3,23.7,17.6,35.9c1,2.4,1.7,5,2.5,7.5c1.9,6.5,5.9,11.2,11.6,14.6
		c2.6,1.5,5.1,3.3,7.7,4.9c3.3,2.1,5.9,4.8,8.1,8.1c1.3,1.9,2.6,3.8,3.8,5.8c1.6,2.7,3.6,5.1,6.1,7c1.1,0.8,1.5,1.9,1.6,3.3
		c0.2,2.3,0.5,4.6,0.9,6.9c0.2,1.4,0.7,1.6,1.9,0.9c1.5-0.9,2.8-2.2,4-3.4c5.2-5.6,9.1-12.1,11.4-19.5c1.1-3.4,0.9-7,0.7-10.5
		c-0.2-2.4-0.5-4.8-0.7-7.1c-0.2-2.3,0-4.7,0.9-6.8c0.4-0.9,0.8-2.2,2.3-1.7c0.5,0.6,0.6,1.3,0.4,2c-1.5,6.5-2,13.1-1.9,19.8
		c0,0.3,0,0.6-0.1,1c-0.3,0.8-0.1,1.7-0.2,2.5c-0.8,0.9-0.1,2.1-0.7,3l0,0c-0.4,0.6,0,1.4-0.4,2c0,0.1,0,0.3-0.1,0.4
		C1441,1389.9,1441.5,1390.7,1441.1,1391.3z" />
		<path class="st7" d="M1324.5,1198.9c1,0,1.8-0.5,2.7-0.8c1.5-0.5,1.5-0.5,3.3-0.4c0.2,0.8-0.5,0.9-1,1.1c-2.7,1.5-5.5,2.9-8.3,4.4
		c-1.7,0.9-1.7,1.2-0.5,2.7c0.5,0.6,1.1,1.2,1.4,1.9c0.6,1.3,0.3,2.1-1.2,2.3c-1.3,0.2-1.1,0.9-0.7,1.7c0.9,1.7,1.8,3.4,2.8,5
		c1.8,2.8,2.6,5.8,2.9,9c0.3,3,0.8,6,1.4,9c0.8,3.9,2.9,7,6,9.5c0.9,0.7,1.7,1.5,2.6,2.1c5.7,4.2,7,10,6.1,16.6
		c-0.3,1.8-0.7,3.6-1.6,5.2c-1.5,2.5-3.5,3.3-6.3,2.7c-3.6-0.8-6.6-2.8-9.7-4.6c-2.9-1.7-5.9-3.2-9.1-4.1c-2.1-0.6-4.1-1.5-5.9-2.7
		c-6.3-4.1-13.1-6.9-20-9.8c-7.5-3.2-15-6.3-22.1-10.4c-7.2-4.1-13.3-9.3-18.4-15.8c-3.8-4.7-7.8-9.3-11.7-14
		c-0.5-0.6-1.1-1.2-1.7-1.7c-1.1-0.9-2.3-1.5-3.7-0.9c-1.4,0.6-2,1.8-2.1,3.2c-0.2,2.3-0.2,4.6,0.2,6.9c0.6,3.4,1.4,6.7,2.4,10
		c2.4,7.5,4.4,15.2,6.3,22.9c2.6,10.2,6.4,19.9,11.5,29.1c3.4,6,6.3,12.2,8.7,18.6c1.2,3.1,2.7,6.2,4.8,8.8c0.4,0.6,0.9,1.1,1.5,1.6
		c1.5,1.3,2.7,1.3,4.4,0.4c1.7-1,3.3-2.3,4.8-3.5c0.9-0.8,2-1.4,3-1.9c4.5-2.4,8.8-1.9,12.9,0.9c1.8,1.3,3.5,2.7,5.2,4.2
		c1.7,1.4,3.5,2.6,5.5,3.3c1.6,0.6,2.1,0.3,2-1.5c-0.2-4.1-1.1-8.1-2.7-11.9c-1.4-3.5-3-6.9-4.4-10.4c-0.4-1-0.7-1.9-1-2.9
		c-1.4-5.7,2.5-8.1,7-7.5c1.5,0.2,3,0.5,4.4,1.1c7.7,3.3,15.3,6.8,22.1,11.9c7.5,5.6,13.6,12.5,18.8,20.3c1.7,2.5,3.5,5,5.4,7.3
		c1.6,1.9,3.3,3.6,5.2,5.3c2.7,2.4,5.4,4.8,7.3,7.9c1.6,2.7,1.9,5.4,0.7,8.2c-0.6,1.3-1.5,2-2.9,2.1c-3,0.2-5.8-0.3-8.4-1.7
		c-5.9-3.1-12.2-5.5-18.4-8.2c-6-2.7-11.5-6.3-17-9.8c-3.7-2.3-7.5-4.2-11.8-5c-1.9-0.4-2.3-0.3-2.9,1.2c-1.7,4.8-5.3,6.5-10,6.7
		c-2.7,0.5-5.3,0.1-8,0.2c-0.9,0-1.7-0.2-2.6,0.2c-1.6,0.1-3.2,0.4-4.6,1.2c-2.1,1.1-3.2,2.7-3.1,5.2c0.1,1.4,0.5,2.7,1.1,3.9
		c0.5,1.1,1.1,2.1,1.8,3.1c2.4,3.2,3.9,6.8,4.5,10.7c0.3,2,0.8,3.9,1.7,5.7c0.8,1.6,2,2.9,3.6,3.7c0.9,0.4,1.7,0.9,2.6,1.1
		c7.5,2,14.7,5,22.1,7.1c2.8,0.8,5.6,1.4,8.5,1.6c3.5,0.3,6.8-0.5,9.9-2.1c1.3-0.7,2.6-1.3,3.9-1.9c3.4-1.4,6.7-1.4,9.9,0.5
		c5.8,3.4,11.2,7.3,16.4,11.6c5.6,4.6,10.2,10.3,15.3,15.5c3.5,3.6,3.9,7,1.6,11.2c-0.6,1.1-1,2.2-1.5,3.3c-0.5,1.4-0.5,2.8,0.2,4.2
		c0.9,1.8,1.2,3.8,1.5,5.8c0.7,5.4,1.3,10.8,0.4,16.2c-0.2,1-0.3,2-0.5,3.1c-1,5.1-5.2,6.7-9.3,6.2c-2.1-0.2-4.1-0.6-6.2-0.9
		c-4.4-0.7-8.4,0-12.1,2.5c-0.8,0.5-1.6,1-2.4,1.6c-4,3.3-8.6,5.4-13.7,6.7c-1.6,0.4-3.2,1-4.7,1.7c-1.5,0.7-1.9,1.8-1.1,3.3
		c0.8,1.6,2.3,2.4,3.9,2.9c2.1,0.7,4.3,1.1,6.6,1.4c4.6,0.6,9,2,13.4,3.6c4.4,1.6,8.8,2.9,13.4,3.5c4.6,0.6,9.1,0,13.2-2.2
		c1.8-0.9,3-2.3,3.6-4.3c0.9-3.1,2-6.1,3.5-8.9c1.9-3.7,4.9-6,9.1-6.8c1.7-0.3,3.1-0.1,4.3,1.4c0.7,0.9,1.5,1.7,2.2,2.6
		c0.8,1.1,1.9,1.4,3.2,1.1c2.1-0.4,3.9-1.3,5.5-2.7c3.3-2.8,5.6-6.4,7.3-10.3c3.7-8.4,8.2-16.4,12.8-24.4c2.7-4.7,5-9.6,7.1-14.7
		c0.3-0.7,0.5-1.5,1.1-2.1c0.1,1.6-0.5,3.1-1.1,4.6c-0.5,1.5-1.2,2.9-1.4,4.5c-1,1.2-1.3,2.7-2,4.1c-2.8,5.9-6,11.6-9.4,17.2
		c-1.9,3.1-3.3,6.4-4.9,9.6c-2.5,5.2-4.9,10.4-7.6,15.5c-2,3.9-4.9,7.3-7.9,10.5c-6.3,6.4-12.6,12.7-18.9,19
		c-1.8,1.8-3.9,3.3-6.1,4.7c-6.1,3.8-12.2,3.9-18.3,0.2c-2.8-1.6-5.3-3.6-7.7-5.7c-2.1-1.8-4.1-3.5-6.2-5.2
		c-3.5-2.8-7.2-4.6-11.9-4.3c-2.1,0.2-4.1-0.3-6.2-0.6c-5.1-0.8-9.1-3.2-12.1-7.4c-2-2.9-4.3-5.6-6.1-8.6c-0.9-1.5-1.7-3.1-2.2-4.8
		c-0.7-2.1-0.1-3.7,1.5-5.1c1.3-1.1,2.9-1.8,4.5-2.1c2.4-0.6,4.8-1,7.3-1.5c1.7-0.3,3.4-0.7,5-1.5c4.1-1.9,5.4-6.1,3.2-10
		c-0.7-1.2-1.5-2.5-2.6-3.4c-3.8-3-6.6-6.9-9.7-10.6c-1.7-2-3.6-3.6-5.7-5.1c-4.4-3-8.8-6.1-13.2-9.1c-1.3-0.9-2.5-2-3.5-3.2
		c-2.7-3.1-2.7-7.2,0-10.3c1.9-2.2,4.3-3.7,7.1-4.8c2.2-0.8,4.4-1.4,6.7-1.6c2.7-0.3,5.5-0.3,8.2,0c4.3,0.7,8.7,1.5,13,2.2
		c2.5,0.4,4.9,0.2,7.4-0.4c2.5-0.7,4.5-2,5.9-4.2c1.7-2.5,0.9-5.5-1.8-6.8c-1.1-0.5-2.3-0.8-3.5-0.8c-3.7,0-7.3,0-11,0.3
		c-3.1,0.3-6.2-0.5-9.3-0.8c-4.1-0.5-8.2-1.2-12.3-1.7c-2.3-0.3-4.6-0.8-6.8-1.5c-4.3-1.3-8.5-1.4-12.6,0.4c-1.5,0.6-3,1.1-4.6,1.1
		c-3.4,0.1-6.9-2.8-5-7.1c1-2.2,2-4.5,1.8-7.1c-0.3-3.2-1.1-6.3-2.5-9.2c-2.4-5-4.9-9.9-7.4-14.8c-1.4-2.7-3.7-4.6-5.6-6.8
		c-2.3-2.7-3.9-5.6-4.7-9c-0.1-0.3-0.2-0.6-0.2-0.9c-1-8.3-4.9-15.4-9.1-22.5c-2.6-4.3-5-8.7-7.4-13.2c-1.9-3.5-2.8-7.3-3.8-11.1
		c-2.2-8.2-3.7-16.5-6.2-24.6c-2.2-7.3-4.7-14.4-6.7-21.8c-0.9-3.2-1.6-6.3-2.1-9.6c-0.5-3.6,0-7,1.2-10.4c0.9-2.6,2.8-4.4,5.6-4.5
		c2.9-0.1,5.5,0.9,7.1,3.6c1.3,2.4,2.7,4.7,3.9,7.2c2.8,5.9,7.2,10.7,11.1,15.9c6.5,8.8,15.4,14.3,25.4,18.2
		c5.1,2,10.3,3.6,15.6,4.5c1.1,0.2,2.2,0.3,3.3,0.4c2.4,0.3,4.8,0.3,7.2,0c1.6,0,3.2-0.4,4.7-0.9c3-1,4.3-2.7,4.4-5.8
		c0-0.3,0-0.6,0-1c-0.2-3.9,0.3-7.8,1.2-11.6c0.5-2.2,0.9-4.5,0.5-6.9c-0.4-2.1-1-4-2.3-5.7c-0.9-1.2-1.7-2.5-2.6-3.7
		c-0.9-1.3-1.5-2.5-0.9-4.2c0.5-1.4,0-1.9-1.5-2c-1.7-0.1-3.3-0.1-5,0.2c-1.9,0.3-3.8,0.5-5.7,0.7c-1.1,0.1-2.2,0.1-3.3-0.2
		c-1.9-0.6-2.6-1.6-2.2-3.6c0.2-1,0.7-1.9,1.2-2.9c0.6-1.1,1.2-2.3,1.7-3.4c0.7-1.6,0.7-3.2-0.1-4.9c-0.7-1.4,0-3.9,1.3-4.9
		c0.7-0.6,1.1-0.2,1.6,0.4c2.7,3.7,6.4,6.2,10.2,8.6c3.8,2.4,7.9,3.8,12.5,3.3c-0.3,2.2-2.1,1.8-3.1,2c1.4-0.6,3.3,0.4,5.1,0
		c0.3-0.2,0.6-0.3,0.9-0.5C1322.9,1199.4,1323.8,1199.3,1324.5,1198.9L1324.5,1198.9z" />
		<path class="st7" d="M1339.4,1185.5c1.2,1.6,2.9,2.5,4.6,3.3c0.7,0.4,1.5,0.5,2.3,0.5c1,0,2.1,0.1,2.6-0.8c0.5-1-0.7-1.5-1.2-2.1
		c-2.4-2.7-4.4-5.7-6.5-8.6c-2.1-3-4.3-6-6.9-8.6c-2.1-2.1-4.4-3.7-7.1-4.8c-1.6-0.7-3.2-1.4-4.6-2.5c-2.7-2.1-3.4-4.4-2.1-7.6
		c1-2.4,2.2-4.8,3.6-7c0.5-0.8,0.9-1.5,1.4-2.2c1.9-3.2,1.8-4.9-0.9-7.7c-3.3-3.5-7.6-5.1-12.4-5.6c-2.9-0.3-5.7,0.2-8.5,1.2
		c-7.4,2.8-14.8,5.5-22.3,8.2c-2.8,1-5.7,0.7-8.5,1.1c-2.7,0.4-5.4,0.4-8.1,0.6c-1.4,0.1-2.6,0.6-3.9,1.2c-2.2,1.1-4.3,2.4-6.5,3.7
		c-1.9,1.1-3.9,2-6,2.2c-7,0.8-13.7-5-14.1-12c-0.2-3.3,0.4-6.5,1.4-9.7c0.9-2.7,1.6-5.4,2.8-7.9c3.1-6.6,3.4-13.3,2.3-20.4
		c-0.6-3.8-1.2-7.6-1.3-11.4c-0.3-2.4-0.3-4.8,0-7.2c0.2-4.4,2.2-7.8,6.1-9.9c3.8-2,6.7-4.8,8.8-8.5c0.4-0.6,0.8-1.2,1.2-1.8
		c3.7-5.1,9.9-6.3,15.2-3c3.9,2.4,6.7,5.9,9.7,9.2c1.5,1.6,2.9,3.2,4.6,4.5c0.2,0.1,0.4,0.3,0.6,0.4c1.2,0.8,2.5,1.9,3.9,1.2
		c1.5-0.7,1.3-2.4,1.5-3.8c0.3-3-0.4-5.9-0.6-8.8c-0.1-1.4-0.3-2.9-0.1-4.3c0.3-3.5,3.8-5.6,7.2-4.4c1.5,0.6,2.7,1.6,3.7,2.9
		c1.3,1.6,2.6,3.1,3.8,4.6c1.6,1.9,3.7,2.4,6,2c1.1-0.2,2.2-0.3,3.3-0.6c2.5-0.6,4.6,0.3,6.4,1.8c1.7,1.4,2.9,3.2,4.1,5
		c5.8,8.6,4.7,7.2,12.6,11.6c0.9,0.5,1.8,1.1,2.7,1.5c4.5,2.1,7.9,5.4,10.9,9.2c3.9,4.9,7.7,9.8,12.4,13.9
		c4.4,3.9,8.4,8.1,12.6,12.2c8.4,8.2,14.4,17.9,17.9,29.1c1.5,4.9,3.1,9.7,4.5,14.7c2.6,9.2,6.4,17.9,10.2,26.6
		c2.2,5.1,3.9,10.5,6,15.7c1.1,2.7,2.3,5.3,4,7.6c1.1,1.5,1.5,1.6,3.2,1.1c3.2-0.9,4.8-4,4.6-8.3c-0.2-3.1-1-6.1-2-9.1
		c-0.5-1.5-1.1-3-1.3-4.6c0-0.1,0.1-0.2,0.1-0.2c0.2-0.1,0.3,0,0.4,0.2c0.2,0.5,0.4,0.9,0.6,1.4c3.2,4.7,4.5,10.1,4.6,15.6
		c0.1,4.9-2.2,9.1-6.3,12c-2.1,1.5-3.8,1.2-5.5-0.7c-2.4-2.9-4.3-6.1-5.6-9.7c-2.4-6.8-5-13.5-8.3-19.9c-5.6-10.7-9.6-21.9-13-33.5
		c-3.3-11.5-7.6-22.6-15.3-32c-3.5-4.2-7.1-8.2-10.9-12.1c-3.8-3.8-7.2-7.9-10.9-11.7c-3.5-3.7-7.5-6.9-12.5-8.6
		c-4.2-1.4-8.2-1.1-11.5,1.7c-3.5,2.9-7.5,4.8-11.7,6.3c-2.7,1-5.1,2.4-7.3,4c-3.4,2.4-7,4.4-11,5.8c-3.6,1.3-7.2,2.7-10.7,4.2
		c-3.4,1.4-6.9,2.1-10.5,2.2c-1.5,0-2.9,0.3-4.2,0.8c-1.9,0.7-3.1,2.1-3.4,4c-0.5,3.5-0.2,6.9,1.4,10.1c1.8,3.7,4.5,4.5,8.1,2.7
		c0.4-0.2,0.9-0.4,1.2-0.7c2.6-1.9,5.5-2.9,8.7-3.2c4.8-0.4,9.4-1.7,14-3.2c4.6-1.5,9.1-1.2,13.3,0.9c5.7,3,11.9,4.6,18.1,6.3
		c4.7,1.3,9.3,3,12.8,6.7c5.1,5.4,3.4,14.2-3.3,17.2c-1.7,0.8-3.6,1.4-5.1,2.5c-3.6,2.5-4.1,4.8-1.9,8.6c2.5,4.4,5.2,8.6,8.4,12.6
		c0.8,1,1.7,1.9,2.6,2.8c1.2,1.1,2.4,1.3,3.9,0.4c2.2-1.4,2.9-1.2,4.2,1c1.2,2.1,2.1,4.3,1.9,6.8c-0.3,2.3-0.8,3-3.1,3.2
		c-0.8,0.1-1.6,0.1-2.4,0.1c-1.3,0-2.4,0-2.2,1.9c0.1,0.9-0.6,1.8-1.7,1.5c-4-1.3-8.2-1.6-12.1-3.4c0.5-1.7,1.8-1.2,2.9-1.1
		c0.6,0,1.4,0.3,1.7-0.4c0.3-0.7-0.3-1.2-0.7-1.6c-1.2-1.2-2.8-2.1-3.9-3.5c-0.7-0.9-1.3-1.7,0-2.6c0.2-0.1,0.5-0.1,0.7-0.1
		c0.6,0.2,0.9,0.6,1.3,1.1C1339.3,1185.2,1339.4,1185.3,1339.4,1185.5z" />
		<path class="st6" d="M1337.4,1193.2c3.7,1.3,7.6,1.8,11.4,2.8c0.4,0.1,0.8,0.2,1.1-0.2c0.4-0.5,0-0.9-0.2-1.3
		c-0.4-0.6-0.9-1.1-1.1-1.8c0.3-0.7,1-0.6,1.5-0.6c1.8,0,3.7,0,5.5,0c1.1,0,1.9-0.4,2-1.6c0.4-3-0.9-5.4-2.4-7.8
		c-0.3-0.5-0.8-0.4-1.3,0c-0.3,0.3-0.5,0.6-0.8,0.9c-1.4,1.6-1.8,1.7-3.6,0.5c-2-1.4-3.6-3.3-5.2-5.3c-3.3-4.3-6.2-8.9-8.7-13.7
		c-1-1.9-1-3.4,0.5-5.2c1.6-1.8,3.3-3.4,5.6-4.4c0.8-0.3,1.6-0.7,2.4-1c6-2.6,7.7-10.4,3.3-15.4c-2.2-2.5-5-3.9-8.1-5
		c-3-1.1-6.1-2-9.2-2.7c-4.1-1-8.1-2.3-11.9-4.4c-1.6-0.9-3.4-1.5-5.1-1.9c-2.4-0.6-4.7-0.6-7.1,0c-1.9,0.5-3.9,1-5.8,1.6
		c-3.5,1.1-7.1,1.7-10.8,2.1c-2.6,0.3-5,1-7.1,2.6c-1.2,0.9-2.6,1.6-4.1,2c-2.5,0.6-4.6-0.1-6.1-2.2c-2.9-4-3.5-8.6-2.7-13.3
		c0.4-2.7,2.4-4.2,5-4.9c2.6-0.7,5.2-0.4,7.8-0.9c1.2-0.2,2.3-0.4,3.5-0.8c5.7-2.2,11.5-4.4,17.2-6.6c1-0.4,2.1-0.9,2.9-1.6
		c5.1-3.8,10.7-6.6,16.7-8.8c1.6-0.6,3-1.5,4.3-2.6c5.5-5,11.5-5.3,17.9-1.9c3.6,1.9,6.8,4.4,9.4,7.3c6,6.7,12.4,13.1,18.5,19.8
		c7.5,8.2,12.9,17.6,16.4,28.2c2.1,6.3,4.1,12.6,6,19c1.7,5.7,3.9,11.2,6.6,16.4c4.5,8.6,8,17.6,11.5,26.6c1.2,3.2,2.9,6.1,5,8.7
		c1.6,2.1,2.7,2.2,4.8,0.6c2.7-2,4.1-4.9,4.9-8c1-3.7,0.9-7.4-0.4-11.1c-0.9-2.4-1.8-4.8-2.7-7.2c2.1,1.7,3,4.1,3.6,6.6
		c0.7,3,1.2,6.1,2.3,9.1c0.4,1.2,0.4,2.5,0,3.8c-0.4,1.4-0.9,2.7-1.5,4c-0.5,1.1-1,2.2-1.5,3.2c-1.9,3.7-1.1,7.1,1,10.4
		c0.6,1,1.3,2,2.1,2.9c3.8,4.6,6.6,9.8,9.4,15c1.9,3.5,3.9,6.9,6.5,10c1.8,2.1,3.9,3.8,6.4,4.9c1.5,0.7,2.1,0.2,1.8-1.5
		c-0.2-1.4-0.5-2.8-0.7-4.2c1.3-0.5,1.7,0.6,2.1,1.4c0.9,1.4,1.4,3.1,2.1,4.6c0.4,0.9,0.8,1.7,1.5,2.5c0.7,0.7,1.4,1.4,2.5,1
		c1-0.4,1.1-1.3,1.1-2.2c0.1-3.4,0.2-6.7-0.6-10c-2.2-9.3-4.6-18.6-9.3-27.1c-2.1-3.9-4.5-7.5-8.6-9.8c-2.3-1.3-4.6-1.9-7-0.3
		c-3,2-3.8,5.3-1.9,8.3c1.5,2.3,3.1,4.5,5,6.4c2.3,2.3,4.1,4.9,5.7,7.7c0.6,1.1,1.6,2.3,0.5,3.7c-0.6-0.3-0.9-0.9-1.2-1.5
		c-3.1-5-6.5-9.7-10.8-13.7c-1-0.9-1.7-2.1-2.5-3.2c-2.4-3.9-0.8-7.2,2.1-9.5c3.5-2.7,7.2-2.1,10.8-0.2c2.9,1.6,5.3,3.9,7.3,6.5
		c4.3,5.5,7,11.9,8.8,18.5c3.3,12.3,6.4,24.7,8.6,37.3c0.7,4,1,8.1,0.3,12.1c-0.5,2.5-1.3,4.9-2.6,7.2c-0.6,1-1.2,2.1-1.9,3.1
		c-2.2,3.6-3.3,7.3-3.2,11.6c0.1,4.6,0.4,9.1,0.7,13.6c0.4,6.1-2.3,10.2-6.9,13.6c-2.7,2-5.7,3.6-8.2,5.9c-0.8,0.7-1.6,1.3-2.3,2.1
		c-0.8,0.9-1.6,1.3-2.8,1c-3-0.7-4.1-0.1-4.6-4.5c-0.8-6.2-2-12.3-2.5-18.5c-0.3-3.3-0.4-6.5,0.1-9.8c0.3-2.3,0.1-4.6,0.6-6.9
		c0.2-0.8,0.3-1.6,0.8-2.3c1-1.5,2.1-1.8,3.7-1c0.8,0.4,1.5,1,2.2,1.5c0.5,0.3,0.8,0.7,1.3,1c2.4,1.5,4.7,0.9,6-1.6
		c0.7-1.3,1.3-2.6,1.4-4.1c0.2-2.2-0.5-3.1-2.7-3.3c-2.7-0.2-5.3,0.2-7.9,0.7c-3,0.5-3.1,0.4-4.7-2c-4.9-7.3-7.2-15.6-9-24.1
		c-1.1-5.2-2.1-10.3-2.1-15.6c0-5.3-1.9-10.2-3.8-15c-2.9-7.5-6-15-8.4-22.7c-1.3-4.3-2.6-8.6-4.1-12.8c-0.8-2.3-1.8-4.6-2.9-6.8
		c-3.6-7.5-7.3-14.9-10.9-22.4c-1.8-3.7-3.1-7.7-4.4-11.6c-2.8-8.1-5.2-16.3-8.4-24.2c-3.3-7.9-7.7-15-13.4-21.4
		c-5.8-6.5-12.3-12.3-19.4-17.4c-2.3-1.6-4.7-3.1-7.6-3.1c-2.9,0-5.1,1.1-6.6,3.6c-0.8,1.3-1.5,2.7-2,4.1c-1.4,3.5-4,5.4-7.8,5.8
		c-1.7,0.2-3.5,0.4-5.2,0.9c-1.4,0.4-2.4,1.2-3,2.5c-0.6,1.4-0.5,2.6,0.5,3.8c2.5,2.8,5.3,5,8.9,6.3c4.5,1.6,9.2,2.8,14,3.2
		c7.5,0.7,12.3,4.8,15.1,11.5c1,2.3,1.8,4.6,2.6,6.9c1.5,4.3,4,8,6.1,11.9c0.8,1.6,1.8,3.2,2.3,5c2,7,3.6,14.1,4.1,21.4
		c0.3,3.7,0.2,7.3-0.6,10.9c-0.6,2.9-1.8,3.7-4.8,3.2c-2.6-0.4-5.2-0.9-7.8-1.4c-1-0.2-1.9-0.1-2.6,0.7c-1,1-2.3,1.1-3.6,0.7
		c-5.7-2-11.5-3.3-17.3-5c-0.4-0.1-0.8-0.5-1.2-0.7C1335.1,1191.6,1336.4,1191.6,1337.4,1193.2z" />
		<path class="st5" d="M1549.3,1379.8c0,0.1,0.1,0.3,0.2,0.4c0,9.1,0,18.1-0.1,27.2c0,1.2-0.1,2.4-0.1,3.6c-0.7,1.7-2.3,2.1-3.8,2.5
		c-3,0.9-5.9,2-8.4,3.9c-1.9,1.5-1.8,2.7,0.4,3.7c2.6,1.2,5.5,1.5,8.4,1.6c1.3,0.1,2.6-0.1,3.5,1.2c0,0.8,0.1,1.6,0.1,2.4l-0.1,0
		c-0.7,1.1-1.8,1.1-3,1.2c-3.9,0.4-7.8,0.8-11.4,2.4c-2.3,1.1-4.2,2.3-3.7,5.4c0.2,0.9-0.3,1.7-1,2.3c-1.2,1.2-2.1,2.6-3.3,3.8
		c-2.2,2.5-1.9,4.8,0.9,6.6c1.8,1.2,3.7,2.2,5.8,2.7c3.8,1,7.6,1.8,11.5,2.1c1.5,0.1,3,0.3,4.1,1.6l0,0c0,1.8,0,3.5-0.1,5.3
		c-0.3,0.3-0.5,0.6-0.9,0.8c-2.8,1.7-3,2.3-1,4.9c1,1.3,1.3,2.8,1.9,4.3c0,3.4,0,6.8,0,10.2c-2.5,0.1-4.9-0.5-7.4-0.5
		c-1.8,0-3.5,0.3-5.1,1c-3,1.4-6,2.7-9,4c-4.8,2.2-8.8,1.1-11.9-3.2c-1.8-2.6-3-5.4-4.1-8.4c-0.7-2-1.1-2.3-3.1-2
		c-1.5,0.2-3,0.6-4.3,1.4c-3.8,2.2-7.8,3.5-12.1,4.3c-0.5,0.1-1.1,0.3-1.6,0.4c-1.3,0.3-1.8,1.1-1.5,2.3c0.3,1.2,0.6,2.5,1,3.7
		c0.5,1.8,1.2,3.5,1.7,5.2c1,3.5,0.7,7-0.8,10.3c-2.2,4.6-4.9,8.9-8.8,12.5c-0.9,0.9-1.9,1.7-3,2.3c-3,1.9-6.1,2.1-9.3,0.5
		c-4.4-2.2-7.6-5.6-10.5-9.3c-0.6-0.8-1.2-1.5-1.7-2.3c-2.2-3-4.6-5.7-8.1-7.3c-3.9-1.9-5.2-5.1-5.2-9.2c0-5.1,1.2-9.8,3.6-14.3
		c0.2-0.4,0.4-0.7,0.6-1c3.2-5.1,7.1-5.7,11.7-1.7c5.3,4.6,11.5,6.3,18.4,5.9c0.4,0,0.8-0.1,1.2-0.2c1.9-0.5,2.2-1.3,1.2-2.9
		c-1.5-2.6-3.7-4.6-6-6.5c-3.8-3.1-8.1-5.5-13-6.2c-0.5-0.1-1.1-0.3-1.6-0.4c-2.7-0.7-4.2-2.6-4.4-5.3c-0.6-6,0.3-11.8,2.7-17.3
		c0.8-1.9,2.3-3.4,3.9-4.8c0.4-0.3,0.7-0.6,1.2-0.9c4.4-2.7,7.7-6.4,9.9-11.1c0.9-2,2.3-3.6,3.9-5.1c4.9-4.6,9.5-9.5,13.5-14.9
		c1.3-1.8,3.1-3,5-4.1c6.5-3.9,13-7.9,18.8-12.8c1.6-1.3,3.1-2.8,4.5-4.3c1.7-2,1.4-3.3-1-4.5c-1.8-0.8-3.7-1.1-5.6-1.2
		c-6.6-0.3-13-1.7-19.4-2.7c-8.9-1.5-17.8-2.8-26.8-3.5c-3.9-0.3-7.8-0.9-11.5-1.9c-1.5-0.4-3-0.6-4.5-0.6c-3.1,0.1-4.9,1.3-6,4.3
		c-0.4,1-0.6,2-0.6,3c0,1,0,1.9-0.4,2.8c-1-1.6-0.4-3.2-0.3-4.8c0.1-2.3,0.4-4.6,1.1-6.8c0.6-1.8,1.6-2.6,3.5-1.9
		c3,0.8,5.9,1.9,9.1,2c6.7-0.6,13.1,1.6,19.7,2.3c0.2,0,0.3,0,0.4,0c1.3,0.5,2.6,0.1,4,0.2c1.1,0,2.2-0.1,3.3,0.1
		c4.6,0.4,9.2,0.6,13.8,1.1c0.6,0,1.2,0.1,1.8,0.1c0.6,0.3,1.4,0,2,0.3c0.8,0.1,1.5,0.1,2.3,0.2c1,0.4,2-0.1,3,0.3
		c0.8,0.1,1.6,0.1,2.3,0.2c0.8,0.4,1.7-0.1,2.5,0.3c0.6,0,1.2,0.1,1.8,0.1c0.6,0.4,1.4,0,2,0.3c1.8,0.4,3.7,0.6,5.6,0.6
		c0.8,0.3,1.7,0,2.6,0.2c4.1,1.1,8.4,0.8,12.4,2.5c3.6,1.4,7,3.1,10.2,5.3C1547.9,1377.1,1548.9,1378.2,1549.3,1379.8z" />
		<path class="st7" d="M1447.3,1240.6c-1.5-3.9-3.7-7.4-6.5-10.5c-1.5-1.6-3-3.1-4.3-4.8c-0.9-1.1-1.7-2.3-2.2-3.7
		c-0.8-2.5-0.7-4.8,1.2-6.7c2.1-2,4.5-3.3,7.6-2.2c3,1.1,5.5,2.9,7.5,5.4c3.9,4.7,6.3,10.2,8.3,15.8c2.3,6.4,4.2,12.9,5.3,19.6
		c0.5,3.2,0.4,6.4,0.2,9.6c0,0.5-0.2,0.9-0.3,1.4c-0.5,1.4-1.1,1.7-2.6,1.2c-1.5-0.5-2.7-1.4-3.4-2.9c-0.7-1.3-1.2-2.6-1.8-3.9
		c-0.7-1.5-1.2-3.1-2.3-4.4C1452.1,1249.7,1449.8,1245.1,1447.3,1240.6z" />
		<path class="st7" d="M1549.3,1379.8c-6.5-5.6-14.3-8.5-22.6-10.3c-0.9-0.2-1.8-0.5-2.8-0.7c0.5-0.5,1-0.3,1.5-0.1
		c7.3,0.2,14.5,0.3,21.8-0.9c0.7-0.1,1.4-0.3,2.1-0.4C1549.5,1371.5,1549.5,1375.6,1549.3,1379.8z" />
		<path class="st7" d="M1054.4,1408.6c0.7,0.4,0.9,1.1,1.1,1.8c3,10.3,10.4,17,18.7,22.9c3.6,2.6,7.4,4.8,11.2,6.9
		c3.3,1.9,6.9,2.8,10.8,2.8c2.8,0.4,5.7,0.1,8.5,0.2c0.9,0,1.7-0.2,2.6,0.2c2.4,0,4.7,0.4,7,0.9c1.2,0.2,2.2,0.7,3.1,1.5
		c-3,0-5.9-0.7-8.8-1.1c-3-0.4-5.9-0.5-8.8,0c-2.7,0.4-5.4,0.2-8-0.7c-5.4-1.7-10.2-4.4-14.9-7.5c-4.9-3.2-9.4-6.8-13.6-10.9
		c-3.5-3.5-6.3-7.4-7.5-12.3C1055.4,1411.8,1054.9,1410.2,1054.4,1408.6z" />
		<path class="st5" d="M1337.4,1193.2c-1.3-0.1-2.4-0.7-3.7-0.6c0,0,0,0,0,0c-0.6-0.4-1.4,0-2-0.4c-0.3-0.2-0.6-0.4-0.9-0.5
		c-1.5-0.8-3.2-1.3-4.2-2.7c-1.2-0.5-2.9,0.8-3.6-1.2c-0.3-0.6-1-1-0.9-1.8c0-0.2,0.1-0.3,0.1-0.5c0.4-1-0.3-2.6,1.3-3
		c1.6-0.4,2.5,0.7,3.5,1.7c0.9,0.8,1.5,1.9,2.2,2.9c1.1,1.5,2.5,2.5,4.3,2.7c1.7,0.2,2.3-0.4,1.6-2c-0.8-2-2.3-3.6-3.6-5.4
		c-0.8-1.1-1.7-2.1-2.3-3.3c-0.3-0.6-0.4-1.3,0.1-1.8c0.6-0.6,1.3-0.6,2-0.2c0.5,0.3,1,0.5,1.4,0.9c1.4,1.4,2.9,2.7,4.4,4
		c0.7,0.6,1.7,1.4,0.9,2.6c-0.7,0.3-0.6,0.7-0.2,1.1c0.9,0.9,1.9,1.7,2.9,2.5c1.2,1,2.5,2,3.3,3.4c0.9,1.4,0.5,2.1-1.1,2.1
		C1341.1,1193.6,1339.2,1193.3,1337.4,1193.2z" />
		<path class="st8" d="M1032.9,1337.9c-0.1,0.5-0.2,1.1-0.4,1.6c-2.4,5.2-2.3,10.5-1.2,15.9c1.3,6.4,3.7,12.4,6.1,18.3
		c3.2,7.8,7.6,14.9,11.9,22.1c1,1.7,2.2,3.3,2.3,5.4c-4.2-6.3-8.1-12.8-11.6-19.5c-3.2-6.1-5.9-12.4-7.8-19c-1-3.4-1.8-6.9-2.2-10.5
		c-0.3-2.2-0.3-4.5,0-6.7C1030.6,1342.9,1031,1340.2,1032.9,1337.9z" />
		<path class="st7" d="M1119.3,1446.9c1.3,0.4,2.3,1.1,3,2.2c5.7,7.7,10.6,15.9,14.8,24.5c0.2,0.4,0.2,0.8,0.3,1.1
		c-3.3-3.3-6-6.9-8.3-11C1126,1458,1122.9,1452.3,1119.3,1446.9z" />
		<path class="st9"
			d="M1022.4,1282.8c6.5,9.3,12.8,18.8,17.7,29.1c1,2.1,2.2,4.1,2.5,6.4c-1.2,0-1.1-1.1-1.6-1.8
		c-0.4-1-0.7-2-1.3-2.9c-0.7-1.2-1.5-2.5-1.9-3.8c-1.5-3.1-3.6-5.9-5.5-8.8c-0.3-0.6-0.3-1.3-0.6-1.9c-1.1-2.4-2.5-4.6-4.3-6.6
		c-0.3-0.3-0.5-0.6-0.6-1c-1.5-2.2-2.7-4.6-4.3-6.8c-0.4-0.4-0.7-0.9-0.8-1.5C1021.7,1282.9,1021.9,1282.5,1022.4,1282.8z" />
		<path class="st9" d="M1014.9,1115.9c0.5,0.8,0.2,1.6,0,2.3c-0.7,2.5-0.7,5.1,0.2,7.5c2.1,6,0.9,11.4-2.5,16.6
		c-2.6,3.9-5.2,7.9-7.4,12c-0.3,0-0.3-0.3-0.4-0.5c1.6-2.7,2.9-5.6,4.1-8.5c0.3-0.6,0.4-1.1,1-1.6c2.9-2.4,4-5.7,5-9.1
		c0.3-1.6,0.3-3.2,0-4.8c-0.2-0.6-0.4-1.3-0.5-1.9c-0.9-2.7-2.3-5.3-1-8.2C1013.8,1118.4,1014.3,1117.2,1014.9,1115.9z" />
		<path class="st9"
			d="M1087.1,1518.7c-1.1,2.1-3.2,3.1-4.8,4.6c-4.9,4.4-9.6,9.1-13.8,14.3c-2.7,3.4-6.2,6-9.4,8.9
		c-0.2,0.1-0.4,0.2-0.7,0.2c2.2-3.2,5-5.8,7.7-8.4c2.2-2.2,4.4-4.4,6.4-6.8C1076.7,1526.4,1081.6,1522.2,1087.1,1518.7z" />
		<path class="st10" d="M1322.8,1187.8c0.2,0.3,0.5,0.6,0.7,0.9c1.2-0.5,0.4-1.6,1.1-2.2c0.7,0.5,1.3,1.1,1.7,1.9
		c0.1,0.2,0.2,0.5,0.2,0.8c-0.2,1.7-0.9,4.1-2.3,5.7l0,0c-0.5,0.7-1,1.5-1.9,1.9c-0.2,0.1-0.4,0.3-0.6,0.4c-0.2,0.4-0.5,0.3-0.8,0.1
		c0.7-1.1,1.6-2,2-3.2c0.2-0.6,0.3-1.2-0.3-1.7c-1.7-1.3-3.1-2.9-5-3.9c-2.8-0.2-5.4-3.5-4.9-6.1c0.5-0.8,1.4-0.7,2.2-0.8
		c0.5,0,1,0.1,1.3,0.5c0.5,0.7-0.3,1.7,0.6,2.3c0.2,0.2,0.5,0.3,0.8,0.4c0.6,0.3,1.2,0.8,1.7,1.3c0.2,0.2,0.5,0.4,0.8,0.6
		C1320.7,1188.1,1321.6,1188.6,1322.8,1187.8z" />
		<path class="st11" d="M1128.8,1487.1c-2.3,2.5-5.1,4.5-7.8,6.6c-4.3,3.3-8.6,6.5-13,9.7c-0.4,0.3-0.8,0.4-1.3,0.6
		c0-1.3,1.2-1.7,1.9-2.4c5.8-4.7,11.5-9.6,18-13.4C1127.4,1487.8,1128,1487.2,1128.8,1487.1z" />
		<path class="st12" d="M1406,1087.2c-2.6-4.3-5.3-8.5-8.5-12.5c-3.1-3.9-6.4-7.5-10-11c-0.6-0.6-1.2-1.3-1.8-1.9
		c0.4-0.5,0.9-0.4,1.2,0c2.6,2.4,5.7,4.4,7.5,7.7c1.6,2.2,3.3,4.4,5.2,6.3c1.6,1.3,2.8,3,3.9,4.7c0.8,1.4,2.2,2.5,2.5,4.2
		C1406.3,1085.5,1406.5,1086.4,1406,1087.2z" />
		<path class="st12" d="M1476.6,1364.3c-4.7,0.2-9.3-0.7-13.9-1.2c-1.9-0.2-3.9-0.4-5.8-1.1c1.5-0.3,3.1-0.5,4.6-1
		c1.4-0.4,2.8-0.4,4.2,0.1C1469.2,1362.4,1472.8,1363.6,1476.6,1364.3z" />
		<path class="st9" d="M1084.3,1010.4c-1.4,2.9-3.2,5.5-5,8.1c-2.7,3.8-5.4,7.4-8.2,11.2c-0.4,0.6-0.8,1.2-1.6,1.3
		c-0.1-0.4-0.1-0.8,0.3-1.1c3.3-6,7.3-11.5,11.6-16.7C1082.3,1012.3,1083.1,1011.2,1084.3,1010.4z" />
		<path class="st8" d="M1447.8,1360c-2.6,0.4-3.2,2.4-3.7,4.4c-0.8,3-0.7,6-0.5,9.1c0,1.6-0.1,3.1-0.1,4.7c-0.5,1.1,0.2,2.3-0.4,3.4
		l0,0c-0.1,0.4-0.2,0.4-0.4,0.1c-0.1-7.7-0.2-15.5,1.9-23C1445.5,1359.1,1446.7,1359.6,1447.8,1360z" />
		<path class="st7" d="M1423.7,1188.9c-0.6-1.6-0.7-3.3-0.7-4.9c0-4.7-1.1-9.3-1.8-14c-0.4-2.5-0.8-5-1.2-7.5
		c-0.3-0.5-0.2-0.9-0.1-1.4c0.2-0.2,0.4-0.2,0.6-0.1l0,0c0.5,2.7,1.1,5.4,1.4,8.2c0.3,1.6,0.7,3.2,1,4.8c2.1,4.8,1,9.8,1,14.8
		C1423.8,1188.8,1423.7,1188.9,1423.7,1188.9z" />
		<path class="st13" d="M1377.4,1054c-1.8-0.9-2.9-2.4-4.1-3.8c-3.9-4.6-8-9-13.2-12.1c-0.3-0.2-0.6-0.5-0.9-0.8
		c0.1-0.2,0.3-0.3,0.5-0.3c0.3,0,0.6,0.1,0.8,0.3l0,0c0.5,0.3,1,0.6,1.4,0.9l0,0c0.4,0.4,1,0.6,1.4,1l0,0c0.4,0.4,1,0.6,1.4,1
		c2.1,1.3,3.7,2.9,5.2,4.9c1.8,2.5,4,4.7,6,7.1C1376.5,1052.7,1377.1,1053.2,1377.4,1054z" />
		<path class="st14" d="M1413.2,1124.1c-0.7-1.6-0.5-3.4-0.8-5.1c-0.9-6.4-1.6-12.9-2-19.4c0-0.5,0-1,0-1.4c1.9,1.9,1.3,4.5,1.6,6.8
		c0.1,0.9-0.2,1.9,0.1,2.8c0,0.6,0.1,1.2,0.1,1.8c0.4,1-0.1,2,0.4,3c0,0.3,0.1,0.6,0.1,0.9c0.8,3.2,1.3,6.4,0.5,9.7
		C1413.3,1123.5,1413.2,1123.8,1413.2,1124.1z" />
		<path class="st15" d="M1081.4,1013.3c-1,2.2-2.7,3.9-4,5.9c-2.4,3.7-5,7.3-7.7,10.8c0.7-2.6,2.1-4.8,3.5-7
		C1075.7,1019.5,1078.1,1016,1081.4,1013.3z" />
		<path class="st11" d="M1324,1013.3c-1-0.1-1.8-0.6-2.6-1.1c-3.6-1.8-7.1-3.6-10.7-5.4c-0.7-0.4-1.5-0.6-2-1.3
		C1314.3,1007.2,1319.7,1009.2,1324,1013.3z" />
		<path class="st16" d="M1008.1,1242c1.8,2.9,2.9,6.1,4,9.3c0.2,0.6,0.1,1.2,0.2,1.9c-0.2-0.2-0.3-0.3-0.5-0.5
		c-2.4-1.2-3.1-3.5-3.7-5.9c0-0.1-0.1-0.3-0.1-0.4C1007.7,1244.9,1007.5,1243.5,1008.1,1242z" />
		<path class="st17" d="M1412.2,1107.8c-0.8-2-0.3-4.2-0.9-6.3c-0.3-1.1-0.3-2.3-0.9-3.4c-0.5-1.7-1.1-3.4-1.6-5.2
		c1.2-0.3,1.5,0.7,2,1.4C1412.4,1098.7,1412.6,1103.2,1412.2,1107.8z" />
		<path class="st18" d="M1321.7,1197c0.3,0,0.5-0.1,0.8-0.1c-0.3,0.9-1.1,1.3-1.8,1.8c-0.4,0.3-1.1,0.5-0.8,1.2
		c0.2,0.4,0.8,0.4,1.3,0.5c-2.4,1-4.9,1.2-7.7,0.3c1.8-1.5,4.2-1,5.7-2.3C1320.1,1197.9,1320.9,1197.5,1321.7,1197z" />
		<path class="st19" d="M1394.5,1069.4c-2.1-2-4.2-4.1-6.3-6.1c-0.7-0.7-1.3-1.4-2.4-1.5c-0.2-0.1-0.3-0.3-0.5-0.4
		c-0.2-0.5-0.8-0.6-1-1.1c0-0.2,0-0.4,0.2-0.5c2.9,1.7,5.4,3.9,7.9,6.1C1393.6,1066.7,1394.5,1067.8,1394.5,1069.4z" />
		<path class="st9" d="M1129.3,986.4c-3,1.1-6.1,1.5-9.2,2.3c1.4-1.4,3.3-2.2,5-3.2c1.3-0.7,2.4-0.7,3.4,0.4
		C1128.8,986.1,1129.1,986.3,1129.3,986.4z" />
		<path class="st8" d="M1008.1,1246.8c1.3,1.9,2.7,3.7,3.7,5.9c-1.2,0-2.1,0.9-3.2,0.8c-0.2-0.8,0.2-1.7-0.4-2.4
		C1008.1,1249.7,1008.1,1248.3,1008.1,1246.8z" />
		<path class="st20" d="M1189.3,974.5c-4.6,1.3-9.2,2.1-14,1.8c-0.1-0.1-0.2-0.2-0.3-0.3c0.1,0,0.2-0.1,0.4-0.1
		c0.8-0.2,1.6-0.4,2.3-0.6c1.5-1.1,3.3-0.6,5-0.7c0.9-0.1,1.9,0.2,2.8-0.2c0.8-0.1,1.5-0.1,2.3-0.2
		C1188.3,974.2,1188.8,974,1189.3,974.5z" />
		<path class="st21" d="M1004.7,1153.8c0.1,0.2,0.3,0.3,0.4,0.5c-1.6,4.5-2.6,9.1-3.4,13.7c-0.1,0.5-0.3,1.1-0.4,1.6
		c-0.5-0.5-0.3-1-0.1-1.5C1001.8,1163.2,1002.7,1158.4,1004.7,1153.8z" />
		<path class="st12" d="M1067.5,1034.4c-1,1.6-2,3.1-2.9,4.7c-1,1.3-1.1,3.2-2.4,4.3c-0.2-0.2-0.3-0.3-0.5-0.5
		c-0.6-1.1-0.1-2,0.4-2.9c1-1.8,2.4-3.2,3.6-4.9C1066.2,1034.6,1066.7,1034.2,1067.5,1034.4z" />
		<path class="st8" d="M1041.2,1316.3c0.4,0.7,0.9,1.3,1.3,2c0.3,1.7,1.3,3.1,1.8,4.7c0.2,0.8,0.7,1.6,0.6,2.5
		c-1.8-1.5-2.9-3.5-3.3-5.8c-0.5-0.6,0.1-1.4-0.5-1.9l0,0C1040.8,1317.3,1040.7,1316.8,1041.2,1316.3z" />
		<path class="st22" d="M1325,1194.6c0.7-1.6,1.2-3.3,1-5.1c-0.1-0.9,0.4-1.3,1.3-1.1c1.1,1.1,2.3,2.2,3.4,3.3
		c-0.9,0.1-1.7-0.3-2.5-0.6c-0.9-0.3-1.5,0-1.8,0.9C1326.2,1193,1325.9,1194,1325,1194.6z" />
		<path class="st23" d="M1346.1,1026.7c-1.3-0.2-2-1.2-2.8-2c-2.6-2.4-5.6-4.4-8.7-6.1c1.6-0.1,3,0.6,4.2,1.5
		C1341.4,1022,1344,1024.1,1346.1,1026.7z" />
		<path class="st24" d="M1004.2,1233.9c1.5,2.4,2.8,5,3.8,7.7c-0.1,0.1-0.2,0.2-0.3,0.3c0-0.1-0.1-0.3-0.1-0.4
		c-0.3-0.7-0.9-1.1-1.5-1.5c-1.4-0.9-2-2.1-2-3.7C1004,1235.5,1003.5,1234.7,1004.2,1233.9z" />
		<path class="st25" d="M1423.9,1188.7c0-0.7-0.2-1.4-0.1-2.2c0.2-4.2-0.1-8.5-0.9-12.6c1.4,1.8,1.9,3.8,1.6,6.2
		c-0.3,2.9-0.2,5.8-0.2,8.7C1424.1,1188.8,1424,1188.8,1423.9,1188.7z" />
		<path class="st26" d="M1041.5,1061.1c-1.8,2.8-3.3,5.6-4.3,8.8c-0.2,0.5-0.4,1-0.9,1.4c-0.8-2.2,0.8-3.9,1.4-5.8
		C1038.5,1063.6,1039.8,1062.2,1041.5,1061.1z" />
		<path class="st8"
			d="M1013.3,1119.7c0.3,2.7,0.7,5.5,1,8.2c-0.7-0.7-1-1.6-1.5-2.5C1011.6,1123.4,1011.7,1121.5,1013.3,1119.7z" />
		<path class="st27" d="M1030.1,1081.9c0,0.9-0.5,1.6-1,2.3c-1.2,1.8-2.5,3.6-3.8,5.4c-0.3,0-0.3-0.3-0.4-0.5c0.8-2,2-3.8,3.3-5.5
		C1028.7,1082.9,1029.2,1082.1,1030.1,1081.9z" />
		<path class="st17" d="M1417.1,1133.1c-0.4-0.9-0.7-1.9-1.1-2.8c0.7,0.5,1.3,0.9,2,1.4c1.5,2.2,1.9,4.7,1,7.2
		c-0.4,0.2-0.9,0.4-1.1,0.8c-0.2,0.2-0.4,0.2-0.6-0.1C1417.5,1137.5,1417.9,1135.3,1417.1,1133.1z" />
		<path class="st8" d="M1037.6,1065.4c-0.5,1.9-0.9,3.9-1.4,5.8c-0.8,1.4-0.5,3.2-1.9,4.3c0.3-2.2,0.8-4.5,1.4-6.6
		C1036.2,1067.6,1036.6,1066.4,1037.6,1065.4z" />
		<path class="st8" d="M1015.2,1266.1c0.3,1.3,1.5,2,2,3.1c0.3,0.9,1,1.6,0.9,2.6c-1.6-1.7-3.2-3.3-4.1-5.4c-0.4-0.9-0.7-1.8-0.6-2.7
		C1014.7,1263.9,1014.4,1265.4,1015.2,1266.1z" />
		<path class="st17"
			d="M1032.5,1300.6c2,2.9,4.1,5.8,5.2,9.2c-1.9-2-3.1-4.5-4.7-6.8C1032.6,1302.2,1031.7,1301.6,1032.5,1300.6z" />
		<path class="st14" d="M1173,976.3c-3-0.2-5.9,0.2-8.8,0.4c0.7-0.6,1.6-0.6,2.3-1c1.9-1.1,3.7-1.2,5.5,0c0.3,0.2,0.6,0.2,0.9,0.2
		c0.1,0,0.2,0.1,0.3,0.1C1173.2,976.2,1173.1,976.2,1173,976.3z" />
		<path class="st28" d="M1419,1139c0-2.5-0.5-4.8-1-7.2C1420.6,1133.8,1420.9,1135.8,1419,1139z" />
		<path class="st29" d="M1419.5,1149.5c0-0.9-0.5-1.7-0.9-2.5c1.1,0.3,1.8,1.1,2.3,2c0.2,1,1.2,1.8,0.5,2.9c-0.5,0.7-0.9,1.5-1.1,2.3
		c-0.3,0.2-0.5,0.1-0.6-0.2C1419.6,1152.6,1420,1151,1419.5,1149.5z" />
		<path class="st30"
			d="M1094.9,1003.6c-2.3,1.1-4.5,2.5-6.9,3.4c1.3-1.7,3.2-2.7,4.9-4C1093.7,1002.4,1094.3,1003.3,1094.9,1003.6z" />
		<path class="st14" d="M1022.4,1282.8c-0.3,0.1-0.5,0.3-0.8,0.4c-0.1-0.1-0.2-0.3-0.2-0.4c-0.5-0.8-0.5-1.7-0.9-2.5l0,0
		c-0.6-0.5,0.1-1.4-0.6-1.8c-0.7-1-0.2-2.4-0.9-3.4c-0.3-0.5-0.3-1,0-1.4C1020.5,1276.6,1021.4,1279.8,1022.4,1282.8z" />
		<path class="st31" d="M1498.1,1365.8c-4.7,0.1-9.3-0.3-14-0.8c1.1-0.6,2.3-0.3,3.4-0.2c2.8,0.2,5.5,0.3,8.3,0.5
		C1496.6,1365.4,1497.4,1365.4,1498.1,1365.8z" />
		<path class="st27" d="M1225.8,972c-0.4,0-0.8,0-1.2-0.2c-2.6-1.2-5.3-1.4-8-1.3c0.5-0.6,1.3-0.8,2-1c0.7-0.2,1.3-0.2,2,0
		C1222.2,970.4,1224.3,970.6,1225.8,972z" />
		<path class="st32"
			d="M1108.7,1501.5c-0.6,0.8-1.3,1.6-1.9,2.4c-1.7,1-2.8,2.8-4.8,3.3C1103.8,1504.9,1106,1502.9,1108.7,1501.5z" />
		<path class="st24"
			d="M1062.2,1043.5c0.1-1.8,1.2-3.1,2.4-4.3c-0.6,2-0.8,4-1.9,5.8C1062.5,1044.4,1062.4,1044,1062.2,1043.5z" />
		<path class="st12"
			d="M1004.2,1233.9c0,0.8-0.1,1.7-0.1,2.5c-1.1-2.1-1.6-4.4-1.8-6.8C1003.3,1230.8,1003.7,1232.4,1004.2,1233.9z" />
		<path class="st27" d="M1015.2,1266.1c-0.9-0.6-1.2-1.7-1.9-2.4c-0.7-1.9-0.5-3.8-0.4-5.8
		C1013.3,1260.7,1014.2,1263.4,1015.2,1266.1z" />
		<path class="st33" d="M1185.5,974.5c-0.9,0.5-1.8,0.5-2.8,0.4c-1.7-0.2-3.3,0.4-5,0.4c0.2-0.8,0.5-1.6,1.6-1.3
		C1181.3,974.6,1183.4,974.4,1185.5,974.5z" />
		<path class="st29" d="M1022.3,1284.8c2,1.9,3.2,4.3,4.3,6.8C1024.8,1289.6,1023.4,1287.3,1022.3,1284.8z" />
		<path class="st34" d="M1413.3,1123.2c-0.2-3.2-0.3-6.5-0.5-9.7c0.6,1,0.8,2.2,1,3.3c0.2,1.5,0.3,2.9,0,4.4
		C1413.7,1121.9,1413.6,1122.6,1413.3,1123.2z" />
		<path class="st35" d="M1421.8,1169.2c-0.7-2.7-1.4-5.4-1.4-8.2C1421.3,1163.7,1422,1166.3,1421.8,1169.2z" />
		<path class="st36" d="M1103.9,999.4c-2.1,1.3-4.3,2.4-6.8,2.8C1099.2,1000.6,1101.5,999.8,1103.9,999.4z" />
		<path class="st37" d="M1403.6,1080.5c-1.6-1.3-2.8-3-3.9-4.7C1401.8,1076.6,1402.8,1078.4,1403.6,1080.5z" />
		<path class="st9"
			d="M1001.4,1223.3c0.6,1.9,0.4,3.9,0.9,5.8c-1.7-1.5-1.4-3.4-1-5.3C1001,1223.6,1001.1,1223.4,1001.4,1223.3z" />
		<path class="st38" d="M1024.9,1089.1c0.1,0.2,0.3,0.4,0.4,0.5c-0.6,1.7-0.7,3.6-2.3,4.8C1023.6,1092.6,1024.3,1090.8,1024.9,1089.1
		z" />
		<path class="st39" d="M1051.6,1054c-1.3,0.9-2.5,2.2-4.3,2C1048.5,1054.8,1049.9,1054,1051.6,1054z" />
		<path class="st40" d="M1000.3,1179.2c0,2.6,0,5.1,0,7.7C999.5,1184.4,999.7,1181.8,1000.3,1179.2z" />
		<path class="st41" d="M1212.3,971.2c-2.2,0.6-4.5,0.4-6.8,0.3c-0.2-0.1-0.2-0.2-0.1-0.3c0.1,0,0.1-0.1,0.2-0.1
		c0.5,0,0.9-0.1,1.4-0.1C1208.8,970.8,1210.6,970.5,1212.3,971.2z" />
		<path class="st42"
			d="M1356.1,1034.9c-1.3-1-2.9-1.5-3.8-3c1.7,0.6,3.1,1.7,4.4,2.8C1356.5,1035.1,1356.3,1035.1,1356.1,1034.9z" />
		<path class="st43" d="M1030,1345.7c0,2.2,0,4.5,0,6.7C1029.4,1350.1,1029.3,1347.9,1030,1345.7z" />
		<path class="st35" d="M1420,1154.3c0.1,0,0.2-0.1,0.3-0.1c0,2.3,0.1,4.5,0.1,6.8c-0.1,0-0.3,0-0.4,0
		C1419.5,1158.8,1419.5,1156.5,1420,1154.3z" />
		<path class="st44" d="M1487.6,1364.8c-1.1,0.1-2.3,0.1-3.4,0.2c-1.1-0.1-2.2-0.1-3.2-0.2c-0.2,0-0.3-0.1-0.3-0.2
		c0-0.1,0.1-0.2,0.1-0.2C1483.1,1364.4,1485.3,1364.1,1487.6,1364.8z" />
		<path class="st19" d="M1383.6,1059.7c-0.9-0.7-1.7-1.5-2.6-2.2c-0.3-0.2-0.3-0.3,0-0.5c1.3,0.7,2.5,1.6,3.5,2.7
		c-0.1,0.1-0.1,0.1-0.2,0.2C1384.1,1060.1,1383.8,1060.1,1383.6,1059.7z" />
		<path class="st3"
			d="M1212.3,971.2c-1.8-0.1-3.5-0.1-5.3-0.2c1.9-0.6,3.8-0.7,5.8,0C1212.6,971.1,1212.5,971.1,1212.3,971.2z" />
		<path class="st45"
			d="M1032.5,1300.6c0.2,0.8,0.3,1.6,0.5,2.4c-1.3-1-1.5-2.4-1.4-3.9C1032.1,1299.5,1032.2,1300.1,1032.5,1300.6z" />
		<path class="st33" d="M1000.3,1212.3c0,1.9,0,3.9,0,5.8C999.6,1216.2,999.6,1214.2,1000.3,1212.3z" />
		<path class="st23" d="M1349.4,1029.6c-1.4-0.7-2.5-1.6-3.3-3C1347.5,1027.3,1348.6,1028.3,1349.4,1029.6z" />
		<path class="st46" d="M1001.4,1198.9c0.6,1.9,0.6,3.9,0,5.8c-0.3-0.1-0.4-0.4-0.4-0.7c0.1-1.1-0.2-2.2,0.2-3.2c0-0.1,0-0.3,0-0.4
		C1001.1,1199.8,1000.9,1199.3,1001.4,1198.9z" />
		<path class="st47"
			d="M1041.2,1316.3c0,0.5-0.1,1-0.1,1.5c-0.8-1.3-1.2-2.8-1.5-4.3C1040.6,1314.3,1040.7,1315.4,1041.2,1316.3z" />
		<path class="st48"
			d="M1152.9,978.2c-1,0.1-2,0.3-3,0.4c-0.2-0.8,0.7-0.9,1-1.4C1151.9,976.8,1152.4,977.6,1152.9,978.2z" />
		<path class="st1" d="M1007.6,1241.5c0.1,0,0.3,0.1,0.4,0.1c0,0.1,0,0.3,0.1,0.4c0,1.5-0.1,2.9-0.1,4.4
		C1007.3,1244.8,1007.5,1243.1,1007.6,1241.5z" />
		<path class="st49" d="M1014.8,1129.8c0.6,1.6,0.7,3.2,0,4.8C1014.8,1133,1014.8,1131.4,1014.8,1129.8z" />
		<path class="st18" d="M1008.1,1251.1c1.2,0.6,1.2,1.5,0.4,2.4C1007.9,1252.8,1008,1252,1008.1,1251.1z" />
		<path class="st6" d="M1421.4,1151.9c-0.2-1-0.4-1.9-0.5-2.9C1421.4,1149.9,1422.8,1150.7,1421.4,1151.9z" />
		<path class="st50" d="M1413.8,1121.2c0-1.5,0-2.9,0-4.4C1414.4,1118.3,1414.4,1119.8,1413.8,1121.2z" />
		<path class="st13" d="M1379.6,1056.5c-1.1-0.5-2-1.2-2.2-2.6c1,0.5,1.5,1.4,2.3,2.1c0.2,0.1,0.2,0.2,0.1,0.3
		C1379.7,1056.5,1379.6,1056.5,1379.6,1056.5z" />
		<path class="st23" d="M1159.1,977.4c-1.4,0.5-2.9,0.5-4.4,0.4C1156.2,977.1,1157.6,977.2,1159.1,977.4z" />
		<path class="st51"
			d="M1150.9,977.2c-0.3,0.5-0.6,0.9-1,1.4c-0.6,0-1.3,0-1.9,0.1C1148.9,978,1149.8,977.6,1150.9,977.2z" />
		<path class="st44"
			d="M1525.5,1368.6c-0.5,0-1,0.1-1.5,0.1c-0.8-0.1-1.7,0-2.5-0.5C1522.8,1368.2,1524.2,1368.1,1525.5,1368.6z" />
		<path class="st12"
			d="M1480.8,1364.4c0,0.1,0.1,0.2,0.1,0.3c-1.3,0.1-2.6,0.2-3.9-0.4C1478.3,1364.4,1479.5,1364.4,1480.8,1364.4z" />
		<path class="st45" d="M1001.4,1198.9c-0.1,0.5-0.1,1-0.2,1.5c-0.5-1.3-0.4-2.6-0.3-3.9c0.2-0.2,0.3-0.2,0.3,0.1
		C1001.3,1197.3,1001.3,1198.1,1001.4,1198.9z" />
		<path class="st52" d="M1323.1,1196.5c0.5-0.8,1.1-1.4,1.9-1.9C1324.7,1195.5,1324.3,1196.5,1323.1,1196.5z" />
		<path class="st42" d="M1352.3,1032c-1.1-0.2-1.8-1-2.4-1.9C1351,1030.3,1351.7,1031.1,1352.3,1032z" />
		<path class="st44" d="M1410.8,1094.4c-0.7-0.4-1.1-1.2-2-1.4c-0.2-0.1-0.4-0.3-0.3-0.6C1409.8,1092.5,1410.5,1093.1,1410.8,1094.4z
		" />
		<path class="st53" d="M1062.1,1040.1c-0.1,1-0.3,2-0.4,2.9C1061,1041.9,1061.2,1040.9,1062.1,1040.1z" />
		<path class="st45"
			d="M1001.2,1200.8c0.2,1.1,0,2.2,0,3.3c0,0.3-0.1,0.3-0.3,0.1C1000.8,1203.1,1000.7,1201.9,1001.2,1200.8z" />
		<path class="st54"
			d="M1019,1273.7c0,0.5,0,1,0,1.4c-0.6-0.9-0.9-1.9-0.9-3C1018.7,1272.6,1018.7,1273.2,1019,1273.7z" />
		<path class="st55"
			d="M1406,1087.2c0-0.8,0.1-1.7,0.1-2.5c0.5,1.1,0.4,2.3,0.4,3.4C1406.3,1087.8,1406.2,1087.5,1406,1087.2z" />
		<path class="st29" d="M1020.5,1280.4c0.6,0.7,0.9,1.5,0.9,2.5C1020.6,1282.2,1020.4,1281.4,1020.5,1280.4z" />
		<path class="st56"
			d="M1001.2,1196.6c-0.1,0-0.2-0.1-0.3-0.1c0-0.9-0.2-1.9,0-2.8C1001.3,1194.5,1001.4,1195.5,1001.2,1196.6z" />
		<path class="st57" d="M1001.3,1170.5c0.1,1,0.1,2-0.4,3c-0.3-0.1-0.4-0.3-0.2-0.5c0.1-0.8,0.1-1.5,0.2-2.3
		C1000.9,1170.3,1001,1170.3,1001.3,1170.5z" />
		<path class="st58"
			d="M1203.7,971.6c-1,0.4-2,0.5-3,0.4c0.7-0.7,1.6-0.3,2.4-0.5C1203.4,971.3,1203.6,971.3,1203.7,971.6z" />
		<path class="st59"
			d="M1189.3,974.5c-0.5,0-1-0.1-1.5-0.1c0.9-0.5,1.9-0.5,3-0.3C1190.3,974.1,1189.8,974.3,1189.3,974.5z" />
		<path class="st60" d="M1000.9,1204.2c0.1,0,0.2-0.1,0.3-0.1c0.1,0.2,0.1,0.4,0.2,0.6c-0.1,0.8,0,1.7-0.5,2.4
		C1000.7,1206.1,1000.9,1205.2,1000.9,1204.2z" />
		<path class="st61" d="M1266,985c-1,0.5-1.9,0.6-2.9,0C1264.1,985,1265.1,985,1266,985z" />
		<path class="st62"
			d="M1356.1,1034.9c0.2,0,0.4-0.1,0.6-0.1c0.7,0.3,1.1,0.8,1.4,1.4C1357.2,1036.1,1356.6,1035.6,1356.1,1034.9z" />
		<path class="st15" d="M1046.8,1056.4c-0.3,0.9-0.9,1.4-1.9,1.4C1045.4,1057.1,1045.9,1056.6,1046.8,1056.4z" />
		<path class="st6" d="M1324.5,1198.9c-0.7,0.7-1.5,1-2.4,1C1322.8,1199.2,1323.6,1198.9,1324.5,1198.9z" />
		<path class="st63" d="M1412.7,1112.6c-0.5-0.9-0.5-1.9-0.4-3C1412.8,1110.5,1412.8,1111.5,1412.7,1112.6z" />
		<path class="st40"
			d="M1000.8,1189.8c0,0.9,0,1.9,0,2.8c-0.5-0.9-0.4-2-0.3-3C1000.6,1189.5,1000.7,1189.6,1000.8,1189.8z" />
		<path class="st64" d="M1507.3,1366.7c-1,0.2-2,0.1-3-0.3C1505.3,1366.2,1506.3,1366.2,1507.3,1366.7z" />
		<path class="st61"
			d="M1000.8,1189.8c-0.1,0-0.2-0.1-0.3-0.1c0-0.9,0-1.9,0-2.8C1000.9,1187.8,1000.9,1188.8,1000.8,1189.8z" />
		<path class="st65" d="M1417.5,1145.7c-0.1,0-0.3,0-0.4-0.1c0-0.9,0-1.9,0-2.8c0.1-0.1,0.2-0.1,0.2-0.2c0.1,0,0.2,0.1,0.3,0.1
		C1417.6,1143.7,1417.5,1144.7,1417.5,1145.7z" />
		<path class="st66" d="M1031.6,1080c-0.3,0.8-0.7,1.5-1.6,1.8C1030.3,1080.9,1030.8,1080.4,1031.6,1080z" />
		<path class="st67" d="M1012.4,1254.5c0.5,0.9,0.5,2,0.3,3C1012.3,1256.5,1012.2,1255.5,1012.4,1254.5z" />
		<path class="st44" d="M1417.6,1139.9c0.1,0,0.2-0.1,0.3-0.1c0.1,1,0.2,2-0.3,2.9c0,0-0.2,0-0.2,0
		C1417.3,1141.8,1417.1,1140.9,1417.6,1139.9z" />
		<path class="st44" d="M1000.7,1173c0.1,0.2,0.1,0.4,0.2,0.5c-0.1,0.8-0.1,1.5-0.2,2.3c0,0.3-0.1,0.3-0.3,0.1
		C1000.3,1174.9,1000.3,1173.9,1000.7,1173z" />
		<path class="st35" d="M1001.3,1170.5c-0.1,0-0.2,0.1-0.4,0.1c-0.1-0.9-0.1-1.7,0.3-2.5c0,0.5,0.1,1,0.1,1.5
		C1001.3,1170,1001.3,1170.3,1001.3,1170.5z" />
		<path class="st47" d="M1203.7,971.6c-0.2-0.1-0.4-0.1-0.6-0.2c0.8-0.4,1.6-0.5,2.5-0.3c0,0.1-0.1,0.2-0.1,0.4
		C1204.9,971.5,1204.3,971.6,1203.7,971.6z" />
		<path class="st68" d="M1379.6,1056.5c0-0.2,0-0.3,0.1-0.5c0.5,0.3,0.9,0.6,1.4,1c0,0.2,0,0.3,0,0.5
		C1380.4,1057.3,1380,1056.9,1379.6,1056.5z" />
		<path class="st69"
			d="M1000.4,1175.9c0.1,0,0.2-0.1,0.3-0.1c0.1,0.9,0.1,1.7-0.3,2.5C1000.4,1177.5,1000.4,1176.7,1000.4,1175.9z" />
		<path class="st70" d="M1334.6,1018.5c-0.8-0.1-1.4-0.4-1.9-0.9C1333.5,1017.5,1334.2,1017.8,1334.6,1018.5z" />
		<path class="st17" d="M1147.6,978.8c-0.7,0.5-1.6,0.6-2.4,0.4C1145.9,978.6,1146.7,978.7,1147.6,978.8z" />
		<path class="st71" d="M1173,976.3c0-0.1,0-0.2-0.1-0.4c0.8,0,1.6,0,2.5,0c0,0.1-0.1,0.2-0.1,0.3
		C1174.5,976.3,1173.8,976.3,1173,976.3z" />
		<path class="st72" d="M1512.1,1367.2c-0.9,0.2-1.7,0.1-2.5-0.3C1510.5,1366.7,1511.3,1366.8,1512.1,1367.2z" />
		<path class="st47" d="M1041.1,1317.9c0.4,0.6,0.5,1.2,0.5,1.9C1041.2,1319.2,1041,1318.6,1041.1,1317.9z" />
		<path class="st41" d="M1194.1,973.5c-0.6,0.4-1.2,0.6-2,0.4C1192.7,973.5,1193.4,973.4,1194.1,973.5z" />
		<path class="st6" d="M1331.7,1192.2c0.7-0.1,1.4-0.1,2,0.4C1333,1192.7,1332.3,1192.6,1331.7,1192.2z" />
		<path class="st27" d="M1227.2,972.9c-0.7,0-1.1-0.4-1.5-1C1226.4,972,1226.8,972.5,1227.2,972.9z" />
		<path class="st45" d="M1220.5,969.6c-0.7,0-1.3,0-2,0C1219.2,969.1,1219.8,969.1,1220.5,969.6z" />
		<path class="st73" d="M1044.3,1058.3c-0.2,0.7-0.6,1-1.3,1.1C1043.3,1058.8,1043.7,1058.4,1044.3,1058.3z" />
		<path class="st74" d="M1251.7,981c-0.7,0.1-1.4,0-2-0.4C1250.4,980.5,1251.1,980.6,1251.7,981z" />
		<path class="st75" d="M1364.8,1040.1c-0.6-0.1-1.1-0.4-1.4-1C1364,1039.3,1364.5,1039.6,1364.8,1040.1z" />
		<path class="st76" d="M1363.4,1039.2c-0.6-0.1-1.1-0.4-1.4-1C1362.6,1038.3,1363,1038.6,1363.4,1039.2z" />
		<path class="st29" d="M1019.9,1278.6c0.6,0.5,0.7,1.1,0.6,1.8C1020.1,1279.9,1020,1279.2,1019.9,1278.6z" />
		<path class="st77" d="M1361.9,1038.2c-0.6-0.1-1.1-0.4-1.4-0.9C1361.1,1037.3,1361.6,1037.6,1361.9,1038.2z" />
		<path class="st77" d="M1360.5,1037.3c-0.3,0-0.6-0.1-0.8-0.1c-0.4-0.1-0.8-0.2-0.6-0.8C1359.7,1036.4,1360.1,1036.7,1360.5,1037.3z
		" />
		<path class="st62" d="M1359,1036.4c0.2,0.3,0.4,0.5,0.6,0.8c-0.2,0-0.4,0-0.5,0.1c-0.4-0.2-0.8-0.5-1-1
		C1358.4,1036.3,1358.7,1036.3,1359,1036.4z" />
		<path class="st78" d="M1502,1366.2c-0.7,0.2-1.4,0.1-2-0.3C1500.7,1365.7,1501.3,1365.8,1502,1366.2z" />
		<path class="st79" d="M1249.7,980.6c-0.7,0.1-1.4,0-2-0.4C1248.5,980.1,1249.1,980.2,1249.7,980.6z" />
		<path class="st75" d="M1515.9,1367.6c-0.7,0.2-1.4,0-2-0.3C1514.6,1367.2,1515.3,1367.3,1515.9,1367.6z" />
		<path class="st15" d="M1138.5,1477.1c0.4,0.7,0.6,1.3,0,1.9C1138.5,1478.4,1138.5,1477.7,1138.5,1477.1z" />
		<path class="st28" d="M1001.4,1223.3c-0.1,0.2-0.1,0.4-0.2,0.5c-0.3-0.6-0.5-1.3-0.4-2C1001.4,1222.2,1001.3,1222.8,1001.4,1223.3z
		" />
		<path class="st5" d="M1077.1,1259.6c-0.1-1.9,1-3.8,2.5-5.2c4.5-4.3,7.8-9.7,11.7-14.5c3.7-4.5,7.7-8.8,13-11.5
		c1.3-0.7,2.6-1.6,3.7-2.6c0.7-0.7,1.5-0.9,2.4-0.3c0.9,0.6,0.9,1.5,0.6,2.4c-0.5,1.4-1.2,2.6-2.1,3.7c-3.3,4.3-5.1,9.1-6.7,14.2
		c-1.9,5.9-3.8,11.9-6.3,17.6c-0.4,0.8-0.7,1.6-1.1,2.4c-1.4,2.8-3.6,4.4-6.9,4.2c-0.4,0-0.8,0-1.2,0.1c-3,1-4.9-0.5-6.5-2.7
		C1078.4,1265.1,1077.1,1262.8,1077.1,1259.6z" />
		<path class="st5" d="M1451.4,1548.1c-3.1,0.1-5.6-0.8-7.6-2.8c-1-1-1.6-2.2-2-3.5c-0.5-1.6-0.1-3,1.3-4c1.2-0.8,2.3-1.8,3.5-2.6
		c2.9-1.9,4.1-4.7,4.5-8.1c0.2-1.5,0.4-3,0.5-4.5c0.1-1.2,0.8-1.9,1.8-2.3c1.6-0.6,3.3-0.8,4.9-0.5c3.5,0.7,6.4,2.5,8.6,5.2
		c1.8,2.2,1.7,4.9,1,7.6c-0.9,3.4-3,6.1-5.3,8.8c-1.5,1.8-3.1,3.4-5.1,4.7C1455.7,1547.4,1453.5,1548.2,1451.4,1548.1z" />
		<path class="st5" d="M1164.9,1246.9c-0.7,1-1.5,1.1-2.3,1.2c-5.6,0.8-10.8,3-16.3,4c-3.1,0.6-6.3,1.3-9.4,1.9
		c-3.1,0.6-6.1,1.2-9,2.3c-1.1,0.4-2.1,0.6-3.3,0.6c-2.2,0-2.8-0.5-3.3-2.6c-0.5-2.5,0.3-4.7,1.5-6.9c1.8-3.1,4.2-5.7,7-7.8
		c3.3-2.6,6.7-4.9,10.9-5.8c0.5-0.1,1-0.2,1.3-0.6c0.9-1.3,1.9-0.8,2.9-0.1c0.7,0.4,1.2,1,1.6,1.7c3.5,6.1,9.2,9.1,15.6,11
		C1163.1,1246.1,1164,1246.1,1164.9,1246.9z" />
		<path class="st5" d="M1253.5,1446.3c-2,0.2-3.9-0.2-5.9-0.5c-3.9-0.7-6.2-3.3-8.1-6.5c-0.6-1-0.2-2,0.4-2.9c0.9-1.2,2-2,3.4-2.5
		c4.1-1.7,8.5-2.1,12.8-2.8c2-0.3,4-0.4,5.8-1.2c2.8-1.2,5.2-0.4,7.5,1c2.3,1.4,4.4,3.2,5.3,6c1,2.9,0.1,5-2.7,6.3
		c-3.5,1.7-7.3,2.2-11.1,2.7C1258.5,1446.1,1256.1,1446.6,1253.5,1446.3z" />
		<path class="st5" d="M1061.8,1347.6c0.1,2.5-1.1,4.6-2,6.8c-0.4,1-1.1,2-1.3,3.1c-0.3,1.7-1.2,2.9-2.7,3.9
		c-1.1,0.8-1.4,0.3-1.8-0.4c-0.9-1.7-1.7-3.4-2.1-5.3c-0.8-3.9-1.5-7.8-2.1-11.8c-0.4-2.7,2.6-5.2,5.2-4.6
		C1059,1340.1,1062.2,1344.1,1061.8,1347.6z" />
		<path class="st9" d="M1417.6,1139.9c-0.1,0.9-0.1,1.9-0.2,2.8c-0.1,0-0.2,0-0.3,0c0-3.2,0-6.5,0-9.7
		C1418.7,1135.3,1417.9,1137.6,1417.6,1139.9z" />
		<path class="st80" d="M1172.1,1249c-0.1,0.6-1.5,1.3-2.2,1c-0.3-0.1-0.4-0.5-0.2-0.8c0.5-0.6,1.1-0.9,1.8-0.8
		C1171.9,1248.4,1172.1,1248.7,1172.1,1249z" />
		<path class="st16" d="M1442.9,1381.6c-0.1-1.2-0.1-2.3,0.4-3.4C1443.5,1379.4,1443.6,1380.6,1442.9,1381.6z" />
		<path class="st16" d="M1442.5,1381.7c0.1,0,0.3,0,0.4-0.1c0.1,1,0,2-0.4,3c-0.3-0.2-0.4-0.4-0.2-0.7
		C1442.4,1383.2,1442.5,1382.4,1442.5,1381.7z" />
		<path class="st81"
			d="M1442.4,1383.9c0.1,0.2,0.1,0.5,0.2,0.7c-0.1,0.8-0.1,1.6-0.6,2.3C1441.9,1385.9,1442,1384.9,1442.4,1383.9z" />
		<path class="st12"
			d="M1383.6,1059.7c0.3,0.1,0.5,0.1,0.8,0.2c0.4,0.5,0.9,0.8,1,1.5C1384.6,1061,1384,1060.5,1383.6,1059.7z" />
		<path class="st82" d="M1439.7,1396.1c0.1-0.7,0.4-1.4,0.9-2C1440.7,1394.9,1440.5,1395.6,1439.7,1396.1z" />
		<path class="st83" d="M1441.6,1388.9c-0.1-0.7-0.1-1.4,0.4-2C1442.1,1387.6,1442,1388.3,1441.6,1388.9z" />
		<path class="st84" d="M1441.1,1391.3c-0.1-0.7,0-1.4,0.4-2C1441.6,1390,1441.5,1390.7,1441.1,1391.3z" />
		<path class="st85" d="M1440.5,1394.1c-0.1-0.7,0-1.4,0.4-2C1441.1,1392.9,1441,1393.5,1440.5,1394.1z" />
		<path d="M1549.4,1469.8c-1-1.3-2.1-2.6-3.1-3.9c-1.1-1.4-2.3-3-1.4-4.7c0.9-1.7,2.8-1.4,4.5-1.4
		C1549.4,1463.2,1549.4,1466.5,1549.4,1469.8z" />
		<path d="M1549.4,1423.8c-2.9,0.1-5.7,0-8.6-0.5c-2.1-0.4-4-1.1-5.8-2.2c-1.6-1-1.8-1.9-0.4-3.2c1.8-1.8,3.9-3,6.2-4.1
		c2.8-1.2,5.8-1.8,8.6-2.9C1549.5,1415.2,1549.5,1419.5,1549.4,1423.8z" />
		<path class="st7" d="M1549.4,1454.6c-5.1-0.4-10.1-1-15.1-2.4c-2.3-0.6-4.4-1.5-6.4-2.6c-1-0.5-1.9-1.2-2.5-2.1
		c-1.7-2.3-1.7-4.1,0.2-6.2c1.2-1.4,2.4-2.8,3.7-4.1c0.8-0.8,1.1-1.7,0.7-2.8c-0.7-1.6,0.1-2.6,1.2-3.5c3.1-2.5,6.8-3.5,10.6-4
		c2.5-0.4,5.1-0.6,7.6-0.6C1549.4,1435.7,1549.4,1445.1,1549.4,1454.6z" />
		<path d="M1316.9,1182.5c-0.3-0.2-0.7-0.3-1-0.5c-0.7,0-1.7-0.9-2,0.6c1,2.3,2.8,3.9,4.5,5.6c0.5,1.1,1.4,1.7,2.1,2.6
		c1,1.1,1.3,2.3,1,3.8c-0.2,1.1-0.9,1.8-2,2.2c-3.6,1.2-6.8,0.4-9.8-1.5c-0.8-0.5-1.1-1.2-0.3-1.9c0.8-0.8,0.5-1.5-0.1-2.3
		c-0.6-0.6-1.3-1.2-2-1.7c-1-0.6-2-0.7-3.1,0c-1.3,0.8-1.9,0.6-2.7-0.6c-0.5-0.7-0.8-1.5-1.2-2.4c-0.7-1.8-1.2-3.6-1.5-5.5
		c-0.2-1.4-0.5-1.5-1.8-1.1c-5.1,1.6-9.8,3.9-13.6,7.8c-1.4,1.4-2.9,2.8-4.2,4.3c-5.4,5.8-4,12,0.3,16.4c1.6,1.6,3.4,2.8,5.5,3.7
		c2.6,1.2,5,2.9,6.9,5c1.7,1.9,1.7,3.3,0.4,5.5c-0.5,0.7-0.9,1.5-1.5,2.2c-1.9,2.4-3.7,5-5.3,7.7c-2.1,3.7-4.3,4.5-8.4,3.6
		c-4.6-1-8.6-3.4-12.3-6.3c-7.1-5.4-12.5-12.2-16.1-20.5c-1.8-4.3-2.1-8.8-1.7-13.4c0.2-2.3,1.3-4,3.2-5.3c2.9-1.9,6.2-3.4,9-5.5
		c1.2-0.9,2.4-1.9,3.2-3.2c0.4-0.7,0.9-1.4,0.5-2.2c-0.5-0.9-1.3-0.8-2.1-0.8c-3.9,0.3-7.7,1.1-11,3.1c-2.7,1.7-5.4,1.9-8.3,1.5
		c-6-0.8-11.5-2.7-16-6.9c-3.8-3.5-6-7.9-6.2-12.8c-0.2-4.4,1.8-6.2,5.5-6.4c2.8-0.2,5.6-0.4,8.4,0.1c10.5,1.9,20.5,0.1,30.2-3.9
		c3.7-1.5,7.5-2.9,11.2-4.3c3.5-1.3,7.1-2,10.8-2.1c1.9-0.1,3.9-0.1,5.7-0.7c3.2-0.9,6.3-0.4,9.5,0.2c5,1,6.9,5.5,4.4,9.9
		c-1.2,2-2.6,3.9-4.6,5.2c-1.6,1-2.4,2.4-2.9,4c0.6,0.7,1.4,0.6,2.1,0.6c3,0,6.1,0,9.1-0.3c5.8-0.7,11.5,0.2,17.1,1.6
		c0.5,0.1,0.9,0.3,1.3,0.5c5.6,3.4,10.8,7.5,14.8,12.8c0.9,1.2,1.5,2.4,1.8,3.9c0.2,1.2-0.3,1.7-1.5,1.4c-0.9-0.2-1.7-0.5-2.5-0.7
		l0,0c-0.4-0.4-1-0.6-1.4-1c0,0,0,0,0,0c-2.4-2.6-5.1-4.8-8.1-7.2c0,1.3,0.5,1.7,0.9,2.3c1.4,1.9,2.8,3.7,4.1,5.6
		c0.7,1,1.3,2.2,1.8,3.3c1,2.2,0.6,2.8-1.9,2.8c-2.7-0.1-5-1-6.6-3.3c-0.6-0.8-1.1-1.6-1.7-2.3c-0.6-0.8-1.2-1.5-2.1-1.9
		c-0.7-0.4-1.3-0.4-1.2,0.6c0,0.6,0.2,1.3-0.6,1.6c-0.7,0.1-1.3,0.1-2,0c-0.9-0.4-1.6-1.2-2.6-1.5
		C1317.5,1184,1316.8,1183.5,1316.9,1182.5z" />
		<path class="st86" d="M1250.6,1358c-0.1-3.3,1-5.8,2.8-8c1.5-1.8,2.9-1.9,4.8-0.4c1.1,0.9,1.9,1.9,2.5,3.2c1,2,1.7,4.1,2.5,6.2
		c0.6,1.6,0.2,2.8-1,3.9c-2,1.9-4.4,3-7.2,2c-2.8-1-4.2-3.3-4.4-6.3C1250.6,1358.3,1250.6,1358,1250.6,1358z" />
		<path class="st87" d="M1420,1154.3c-0.2,2.2-0.1,4.4,0,6.6c0,0.5-0.1,1-0.1,1.5c-0.5-0.9-0.4-1.8-0.4-2.8c0-3.4,0-6.8,0-10.2
		C1420.3,1151,1419.8,1152.7,1420,1154.3z" />
		<path class="st70" d="M1318.3,1382.1c-2.7,0-5.5,0-8.2,0C1312.8,1381.4,1315.6,1381.4,1318.3,1382.1z" />
		<path class="st88" d="M1303.9,1246.9c-2.4,0.7-4.8,0.7-7.2,0C1299.1,1246.9,1301.5,1246.9,1303.9,1246.9z" />
		<path class="st88" d="M1239.6,1081.4c0,2.4,0,4.8,0,7.2C1238.9,1086.2,1238.9,1083.8,1239.6,1081.4z" />
		<path class="st89" d="M1107.3,1443.5c-2.9,0-5.8,0-8.8,0c-0.8,0-1.6,0-2.3-0.4c2.9,0,5.8,0,8.8,0
		C1105.8,1443,1106.6,1443.1,1107.3,1443.5z" />
		<path class="st90" d="M1290.5,1263.5c0.1,2.2-0.6,4-1.7,5.7c-0.8,1.3-1.6,2.6-2.3,3.9c-2.1,3.8-1.7,7,1,10.4c2.2,2.8,5,5,7,7.9
		c0.8,1.2,1.5,2.5,1.9,3.8c0.3,1.2,0.3,2.4-0.2,3.5c-0.6,1.6-1.6,2.3-3.3,2.2c-1.2,0-2.4-0.4-3.5-0.7c-1.3-0.4-2.6-0.8-3.9-1.2
		c-3.6-1.2-7.2-1.2-10.9-0.2c-1.5,0.4-3.1,0.8-4.7,0.7c-3.1-0.1-5.3-1.4-6.8-4.1c-0.8-1.5-1.4-3.1-1.7-4.7
		c-0.8-4.8-2.9-8.9-5.7-12.8c-1.5-2.2-2.8-4.4-4.4-6.6c-4.6-6.3-7.5-13.3-9.4-20.9c-1.3-5.4-2.7-10.7-4-16c-0.6-2.5-0.9-5-1.2-7.6
		c-0.2-1.7,0.3-3.3,0.8-4.9c0.3-1,1-1.4,2-1.1c1.3,0.3,2.6,0.9,3.7,1.6c2.7,1.8,5,4,6.9,6.6c5.6,7.6,13.1,12.8,21.3,17.1
		c3.6,1.9,7.4,3.5,10.8,5.7c2.9,1.9,5.5,4.1,7.1,7.3C1290.2,1260.6,1290.6,1262,1290.5,1263.5z" />
		<path class="st90" d="M1318.1,1362.5c-5.3-0.5-10.3-2-14.8-4.9c-0.2-0.1-0.4-0.3-0.6-0.4c-2.3-1.9-2.2-3.6,0.7-4.4
		c3.6-1.1,7.1-2.4,11-2.3c4.6,0.1,7.6,2.6,9.7,6.4c1,1.8,0,4.1-1.9,5C1320.9,1362.5,1319.5,1362.5,1318.1,1362.5z" />
		<path class="st91" d="M1283.7,1325c0.9-0.5,1.8-0.4,2.8-0.4c2.6,0,5.2,0,7.8,0c-0.9,0.5-1.8,0.4-2.8,0.4
		C1289,1325,1286.3,1325,1283.7,1325z" />
		<path class="st6" d="M1316.7,1385c4,0,6.7,0.6,9.4,1.5c4.1,1.4,8.3,2.2,12.7,1.9c3.5-0.2,6.4,1,9.1,3.3c3.9,3.5,7.9,7,12.4,9.8
		c1.5,1,3,2.2,4.2,3.5c2.1,2.3,2.7,5,1.8,8c-0.6,2-1.6,3.8-2.8,5.5c-1.6,2.2-3.8,3.1-6.4,3.3c-3.7,0.3-6.9-0.8-9.8-3
		c-1.1-0.9-2.2-1.8-3.3-2.7c-3.2-2.7-6.7-4.9-10.9-5.8c-1.3-0.3-2.6-0.7-3.9-1c-4.1-0.9-7.4-3.2-10.1-6.4c-1.3-1.5-2.7-2.9-4.1-4.3
		c-1.7-1.6-3.8-2.4-5.9-3c-1.6-0.4-3.1-0.8-4.4-1.8c-1.3-1-1.5-1.8-0.8-3.3c0.6-1.2,1.5-2.1,2.7-2.6
		C1310,1386.2,1313.8,1385.3,1316.7,1385z" />
		<path class="st5" d="M1302,1292.6c0-3.8,1.2-4.9,4.6-4.4c3.2,0.5,6.1,2,8.8,3.6c3.2,2,6.2,4.3,8.9,6.9c4.7,4.4,9,9.1,13,14.1
		c1.5,1.9,3.1,3.6,4.6,5.5c1.1,1.3,1.9,2.8,2.2,4.5c0.4,1.9-0.2,2.8-2.1,3.4c-0.9,0.3-1.9,0.4-2.8,0.2c-1.7-0.3-3.5-0.7-5-1.5
		c-9.4-4.8-18.1-10.4-25.3-18.2c-3.2-3.5-5.8-7.4-6.5-12.3C1302.1,1293.6,1302,1292.9,1302,1292.6z" />
		<path class="st5" d="M1278,1323.1c-1.3,0.1-2.9-0.1-4.5-0.5c-4-1-5.7-4.2-4.2-8.1c0.4-1.1,1.1-2.1,1.9-3c2.5-2.7,5.7-4.6,9-6.2
		c0.9-0.4,1.9-0.4,2.8-0.2c4.1,0.9,7.3,3.1,9.8,6.4c0.6,0.8,1.1,1.8,1.4,2.8c0.7,2.8-0.1,4.6-2.7,6
		C1288.3,1322,1283,1323.1,1278,1323.1z" />
		<path class="st16" d="M1338,1184.5c0.6,0.1,1.1,0.4,1.4,1C1338.8,1185.4,1338.3,1185,1338,1184.5z" />
		<path class="st7" d="M1430,1261.9c0.1-3.8,1.3-7.4,2.8-10.8c0.5-1.3,1-1.4,2.3-0.7c3.3,1.6,6.2,3.9,8.9,6.5
		c4.7,4.6,8.6,9.9,11.1,16.1c1.7,4.3,2.1,8.7-0.1,13c-1.9,3.7-5.3,5.3-9.2,5.5c-3.7,0.2-6.4-1.7-8.2-4.8c-1.5-2.6-2.6-5.3-3.4-8.2
		c-1.1-4-2.3-8-3.4-12C1430.3,1265,1429.9,1263.5,1430,1261.9z" />
		<path class="st7" d="M1450.5,1325c2.8,0,4.5,1.5,4.4,3.9c-0.1,2.7-1.3,4.7-3.7,6c-1.6,0.8-2.9,0.4-3.9-1.1
		c-1.1-1.7-0.9-5.8,0.3-7.3C1448.4,1325.4,1449.6,1325,1450.5,1325z" />
		<path class="st86" d="M1518.2,1413.1c0,3.4,1.3,6,2.7,8.6c1,1.7,1.9,3.5,2.7,5.4c0.9,2.2,0.8,4.3-0.4,6.5c-0.9,1.5-1.4,3.2-1.9,4.9
		c-0.5,1.5-1.3,2.7-2.7,3.5c-2.8,1.8-5.4,3.7-8.2,5.4c-1.2,0.8-1.8,1.7-1.8,3.1c0,6.8-3.5,11.8-8.1,16.2c-0.6,0.6-1.2,1-1.9,1.5
		c-3.4,2.4-6.4,2.5-9.7,0c-4.4-3.2-8.6-6.7-12.8-10.1c-3-2.4-5.7-5.1-8.4-7.9c-1.5-1.6-2.8-3.3-3.8-5.2c-2.1-3.7-0.7-7.1,1.4-9.5
		c1.3-1.5,3-2,5-1.9c1.9,0.2,3.8,0.7,5.6,1.4c5.2,2.1,10.8,2.7,16.3,3.9c1.8,0.4,2.4-0.5,1.7-2.2c-0.6-1.4-1.5-2.4-2.7-3.3
		c-1.5-1.1-3.1-2-4.8-2.7c-2.1-1-4.2-1.9-6.1-3.3c-4-2.9-4.5-6.6-1.5-10.5c1.1-1.5,2.6-2.6,4.1-3.7c1.8-1.3,3.7-2.5,5.7-3.6
		c2.4-1.4,4.2-3.2,5-5.9c1.3-4.2,4.2-6.7,7.9-8.5c0.6-0.3,1.1-0.6,1.7-0.8c6.4-2.3,11.7-6.5,16.8-10.9c2.4-2.1,5.4-3.2,8.4-3.9
		c3-0.7,5.7,0.5,8,2.4c1.6,1.3,3.1,2.8,4.2,4.5c2.5,3.6,4.5,7.5,6.6,11.4c0.3,0.6,0.6,1.3,0.8,2c0.7,2.9-0.1,4.6-2.8,5.9
		c-3.3,1.6-6.7,2.5-10.3,2.9c-2.1,0.3-3.9-0.4-5.5-1.8c-0.9-0.7-1.7-1.4-2.7-2c-2.1-1.2-3.7-1-5.4,0.7
		C1519,1407.9,1518.1,1410.5,1518.2,1413.1z" />
		<path class="st5" d="M1459.3,1247.9c-0.1,1,0,1.9-0.2,2.9c-0.4,2.2-2,2.8-3.9,1.7c-1.1-0.7-1.8-1.8-2.3-3c-1.7-3.5-3.5-7-5.4-10.4
		c-2.8-5.1-5.5-10.3-9.2-14.8c-0.5-0.6-1-1.3-1.4-2c-1.2-2.1-0.7-4.2,1.2-5.7c2.5-1.9,4-2,6.7-0.1c2.7,2,4.8,4.5,6.4,7.3
		c3.6,6.4,6,13.2,7.7,20.3C1459.2,1245.4,1459.3,1246.6,1459.3,1247.9z" />
		<path class="st92" d="M1321.2,1184.9c0.7,0.1,1.1,0.6,1.5,1c0.3,0.5,0.5,1,0.8,1.5c-0.2,0.8,0.4,1.9-0.5,2.3
		c-0.9,0.4-1.5-0.6-2.2-1.1c-0.4-0.3-0.8-0.8-1.1-1.2C1320.2,1186.6,1320.4,1185.6,1321.2,1184.9z" />
		<path class="st93" d="M1323.2,1185c0.1,0.2,0.2,0.7,0.2,0.7c0.4,1.4,2,2.9,1,4.2c-1,1.2-2.5,0.1-3.6-0.7c-0.3-0.2-0.5-0.5-0.8-0.7
		c-0.8-1-1.8-1.7-2.8-2.5c-0.3-0.3-0.5-0.5-0.8-0.8c-3.2-4.8,1.2-2.9,3.1-2.5C1321,1183,1322.5,1183.9,1323.2,1185z" />
		<path class="st28"
			d="M1318.8,1183.5c-1,0.1-1.8,0.4-2,1.5c-1.6-1.5-1.6-1.6,0.1-2.5C1317.4,1183.2,1318.4,1182.9,1318.8,1183.5z" />
		<path class="st9" d="M1313.9,1182.6c-0.3-0.2-0.7-0.5-0.5-0.9c0.2-0.5,0.6-0.4,1-0.2c0.5,0.2,1,0.4,1.5,0.6
		C1315.2,1182.1,1314.5,1182.1,1313.9,1182.6z" />
		<path class="st45" d="M1317.3,1185.5c0.9,0.2,1.5,0.7,1.8,1.5C1318.4,1186.7,1317.8,1186.2,1317.3,1185.5z" />
		<path class="st94" d="M1134.5,1241.5c0-1.2,0.5-2,1.6-2.4c1.4-0.5,2.9-1,3.7-2.4c0.2-0.4,0.6-0.5,1-0.1c0.9,0.7,1.2,2.5,0.7,3.5
		c-0.8,1.5-2.1,2.6-3.5,3.5C1136.2,1244.5,1134.6,1243.6,1134.5,1241.5z" />
		<path class="st17" d="M1149.4,1250.2c-1.4,0-1.7-0.4-1.4-1.7c0.1-0.2,0.1-0.5,0.2-0.7c0.5-1-0.1-2.5,1-3c1-0.5,2.3-0.4,3.5-0.6
		c0.9-0.1,1.3,0.3,1.5,1.1c0.4,1.5-0.2,2.9-1.5,3.7C1151.7,1249.7,1150.6,1250.2,1149.4,1250.2z" />
		<path d="M1277.9,1320.3c-1.5,0-3,0-4.5-0.6c-1.3-0.5-2-1.4-2.2-2.9c-0.2-2.4,0.2-4.6,2.2-6.3c1.3-1.2,2.7-2.3,4.2-3.1
		c4.8-2.4,11,1.5,10.9,6.9c0,1.4-0.5,2.4-1.6,3.3C1284.6,1319.4,1281.7,1320.3,1277.9,1320.3z" />
		<path class="st5" d="M1432.7,1265.7c-0.2-1.3,0.6-3.5,2.3-5.3c0.8-0.8,1.5-1.1,2.5-0.6c0.9,0.4,1.8,0.7,2.6,1.2
		c5.7,3.8,10,8.7,12.4,15.1c0.8,2,1.2,4.1,0.6,6.3c-1.3,4.7-6.2,6.8-10.4,4.4c-1.5-0.8-2.7-2-3.7-3.3
		C1435.2,1278.6,1433.1,1273.2,1432.7,1265.7z" />
		<path class="st6" d="M1514.9,1431.6c0.1,1.9-0.2,3.4-0.6,4.9c-1.2,4.3-6.3,5.1-8.8,2.7c-1.5-1.4-3-2.7-4.4-4
		c-2.7-2.5-5.9-4.4-9-6.3c-2.3-1.4-4.6-2.9-6.4-5c-2.3-2.6-2-4.8,0.8-6.8c2.3-1.6,4.7-1.9,7.3-1.3c4.7,1,9.2,2.7,13.6,4.4
		C1512.8,1422.4,1515.1,1426.3,1514.9,1431.6z" />
		<path class="st37" d="M1531.5,1388.9c2.1,0,5.1,3.2,5.1,5.3c0,0.9-0.6,1.5-1.6,1.2c-2.3-0.7-4.1-2.1-4.9-4.4
		C1529.7,1389.7,1530.3,1388.9,1531.5,1388.9z" />
		<path class="st28" d="M1505.8,1403.1c-0.8,0-1.4-0.1-1.7-0.8c-0.2-0.6-0.1-1.3,0.5-1.7c1-0.7,2-1.3,3.2-1.1
		c0.5,0.1,1.1,0.2,1.3,0.8c0.2,0.6,0,1.1-0.5,1.5C1507.8,1402.6,1506.8,1402.9,1505.8,1403.1z" />
	</g>
</svg>