<svg viewBox="0 0 75 75" fill="none" xmlns="http://www.w3.org/2000/svg" style="transform: scale(0.7)">
  <path
    d="M22.7339 11.1185C21.5576 11.7977 20.3197 13.6704 20.1761 17.7556C20.1079 19.696 18.4795 21.2137 16.5391 21.1455C14.5987 21.0772 13.081 19.4489 13.1492 17.5085C13.3253 12.5003 14.9091 7.51717 19.2182 5.02928C23.5396 2.53432 28.6633 3.66731 33.0997 6.03409C34.8128 6.94801 35.4607 9.07764 34.5468 10.7907C33.6329 12.5038 31.5032 13.1516 29.7902 12.2378C26.1647 10.3036 23.9137 10.4373 22.7339 11.1185ZM41.5846 17.2165C43.0798 15.9777 45.296 16.1856 46.5347 17.6808C49.1334 20.8173 51.6262 24.394 53.8889 28.3134C58.7653 36.759 61.7719 45.4118 62.5823 52.6697C62.9869 56.2927 62.8631 59.7403 62.017 62.6972C61.1644 65.6766 59.5036 68.3733 56.7183 69.9811C53.3484 71.9269 49.4573 71.6508 45.896 70.3542C42.3219 69.053 38.6435 66.5888 35.1368 63.3881C33.7028 62.0789 33.6014 59.8552 34.9104 58.4213C36.2194 56.9874 38.4431 56.8856 39.8771 58.1949C42.9667 61.0149 45.8703 62.8617 48.3014 63.7472C50.7455 64.6369 52.283 64.4231 53.2027 63.892C53.9733 63.4472 54.7486 62.5406 55.2572 60.7627C55.7723 58.9627 55.935 56.498 55.5947 53.4497C54.915 47.3649 52.3083 39.6378 47.7998 31.829C45.7262 28.2373 43.4569 24.987 41.1202 22.1665C39.8816 20.6714 40.0895 18.4551 41.5846 17.2165Z"
    fill="#00D8FE" />
  <path
    d="M67.9688 38.4636C67.9688 37.1053 66.9656 35.0969 63.4997 32.93C61.8534 31.9007 61.3533 29.7317 62.3827 28.0853C63.412 26.439 65.5809 25.9388 67.2272 26.9681C71.4764 29.6246 75 33.4878 75 38.4636C75 43.4535 71.4572 47.324 67.1892 49.9828C65.5411 51.0094 63.3727 50.5059 62.3461 48.8578C61.3195 47.2097 61.8234 45.0416 63.4711 44.0149C66.9591 41.8422 67.9688 39.8259 67.9688 38.4636ZM53.2622 51.7397C53.5875 53.654 52.2994 55.4695 50.385 55.7948C46.3696 56.4769 42.0256 56.8472 37.5 56.8472C27.7478 56.8472 18.7508 55.125 12.0603 52.1976C8.72025 50.7365 5.79652 48.9056 3.65873 46.6945C1.50458 44.4664 0 41.6796 0 38.4636C0 34.5726 2.18476 31.3406 5.08819 28.9048C8.00213 26.4602 11.9752 24.5066 16.5006 23.0702C18.3513 22.4828 20.3277 23.5068 20.9151 25.3574C21.5025 27.2081 20.4785 29.1845 18.6278 29.7719C14.6407 31.0375 11.5894 32.6286 9.60722 34.2915C7.61447 35.9633 7.03125 37.4015 7.03125 38.4636C7.03125 39.3532 7.42856 40.4779 8.71383 41.8074C10.0155 43.1537 12.0686 44.5268 14.8785 45.7561C20.4879 48.21 28.4831 49.8159 37.5 49.8159C41.6473 49.8159 45.5968 49.4761 49.2075 48.8625C51.1219 48.5376 52.9373 49.8258 53.2622 51.7397Z"
    fill="#00D8FE" />
  <path
    d="M22.8372 63.892C24.0135 64.5713 26.2543 64.7067 29.8639 62.7886C31.5785 61.8774 33.7071 62.5289 34.6182 64.2431C35.5293 65.9578 34.878 68.0864 33.1634 68.9977C28.7382 71.3489 23.6308 72.4692 19.3216 69.9811C15.0002 67.4864 13.4196 62.4825 13.251 57.457C13.186 55.5164 14.7063 53.8908 16.6468 53.8256C18.5874 53.7605 20.2133 55.2806 20.2783 57.2213C20.4161 61.3284 21.6574 63.2109 22.8372 63.892ZM18.6928 44.5178C16.8725 43.8422 15.9444 41.819 16.6199 39.9986C18.0369 36.18 19.8879 32.2327 22.1508 28.3134C27.0269 19.8677 33.017 12.9373 38.8972 8.60668C41.8328 6.44472 44.8801 4.82809 47.8642 4.08236C50.8707 3.3309 54.0366 3.42125 56.8215 5.02928C60.1913 6.97478 61.8981 10.4829 62.5557 14.2152C63.2157 17.961 62.9213 22.3786 61.9023 27.0159C61.4856 28.9123 59.6106 30.1119 57.7145 29.6954C55.8179 29.2787 54.6184 27.4037 55.0351 25.5073C55.9323 21.4215 56.0799 17.9835 55.6313 15.4354C55.1799 12.8738 54.2256 11.6496 53.3059 11.1185C52.5357 10.6737 51.3629 10.4554 49.569 10.9038C47.7521 11.3579 45.5364 12.4494 43.0668 14.2682C38.1368 17.899 32.7485 24.0201 28.24 31.829C26.1664 35.4206 24.4861 39.011 23.2119 42.4449C22.5364 44.2651 20.5131 45.1932 18.6928 44.5178Z"
    fill="#00D8FE" />
  <path
    d="M44.3403 37.8102C44.3403 41.3294 41.4874 44.1823 37.9682 44.1823C34.449 44.1823 31.5962 41.3294 31.5962 37.8102C31.5962 34.291 34.449 31.4382 37.9682 31.4382C41.4874 31.4382 44.3403 34.291 44.3403 37.8102Z"
    fill="#00D8FE" />
</svg>