<svg viewBox="0 0 76 24" fill="none" xmlns="http://www.w3.org/2000/svg" style="transform: scale(0.8)">
  <path
    d="M9.93469 7.08C11.0547 3.05333 13.8414 1.04 18.2947 1.04C19.068 1.04 19.8147 1.09333 20.5347 1.2L19.2547 10.16C17.3347 9.44 15.7614 9.08 14.5347 9.08C13.0147 9.08 11.8947 9.53333 11.1747 10.44C10.4547 11.3467 10.0947 12.56 10.0947 14.08V14.04L10.0547 16.68C10.0547 18.5733 10.108 20.68 10.2147 23H0.654688C0.868021 19.16 0.974688 15.5333 0.974688 12.12C0.974688 8.70667 0.868021 5.05333 0.654688 1.16C2.41469 1.24 3.76135 1.28 4.69469 1.28C5.68135 1.28 7.02802 1.24 8.73469 1.16L9.93469 7.08ZM54.7406 23C54.954 19.5067 55.0606 15.8933 55.0606 12.16C55.0606 10.96 54.754 10.0267 54.1406 9.36C53.554 8.66667 52.7673 8.32 51.7806 8.32C50.874 8.32 50.0873 8.72 49.4206 9.52C48.7806 10.32 48.4606 11.48 48.4606 13V12.96C48.4606 17.68 48.5273 21.0267 48.6606 23H39.6606C39.8206 19.08 39.9006 15.4667 39.9006 12.16C39.9006 10.9867 39.6073 10.0533 39.0206 9.36C38.4606 8.66667 37.7406 8.32 36.8606 8.32C35.9273 8.32 35.1406 8.72 34.5006 9.52C33.8873 10.2933 33.5273 11.36 33.4206 12.72C33.3673 14.7467 33.3406 16.1867 33.3406 17.04C33.3406 18.8533 33.394 20.84 33.5006 23H23.9406C24.154 19.16 24.2606 15.5333 24.2606 12.12C24.2606 8.70667 24.154 5.05333 23.9406 1.16C25.7006 1.24 27.0473 1.28 27.9806 1.28C28.9673 1.28 30.314 1.24 32.0206 1.16L33.2206 7.08C33.834 4.92 34.8073 3.33333 36.1406 2.32C37.474 1.28 39.0073 0.759998 40.7406 0.759998C42.8206 0.759998 44.514 1.33333 45.8206 2.48C47.154 3.62667 47.9806 5.12 48.3006 6.96C48.914 5.06667 49.9406 3.56 51.3806 2.44C52.8206 1.32 54.4606 0.759998 56.3006 0.759998C58.7006 0.759998 60.5806 1.57333 61.9406 3.2C63.3006 4.8 63.9806 7 63.9806 9.8V16.44C63.9806 19.4533 64.0073 21.64 64.0606 23H54.7406ZM71.4869 23.4C70.3135 23.4 69.3135 22.9867 68.4869 22.16C67.6602 21.3067 67.2469 20.2933 67.2469 19.12C67.2469 17.9467 67.6602 16.9467 68.4869 16.12C69.3135 15.2933 70.3135 14.88 71.4869 14.88C72.6335 14.88 73.6202 15.3067 74.4469 16.16C75.3002 16.9867 75.7269 17.9733 75.7269 19.12C75.7269 20.2933 75.3002 21.3067 74.4469 22.16C73.6202 22.9867 72.6335 23.4 71.4869 23.4Z"
    fill="#08090A" />
</svg>