<svg width="256" height="72" viewBox="0 0 256 72" fill="none" xmlns="http://www.w3.org/2000/svg">
<g clip-path="url(#clip0_3069_5845)">
<path d="M91.9725 49.6725L92.0939 49.6437C92.1806 49.7819 92.2731 49.9144 92.3599 50.0527C93.6434 52.1783 94.9384 54.2981 96.2046 56.4353C96.3954 56.7578 96.6093 56.8615 96.9793 56.8615C104.148 56.85 111.323 56.8615 118.492 56.8443C118.851 56.8443 119.042 56.9479 119.227 57.2648C121.788 61.683 124.366 66.0898 126.945 70.5023C127.222 70.9804 127.506 71.4585 127.824 71.9943C127.939 71.8099 128.02 71.6774 128.095 71.545C130.882 66.8099 133.669 62.069 136.444 57.3281C136.646 56.9825 136.86 56.8385 137.282 56.8385C144.654 56.8558 152.031 56.8443 159.402 56.8558C159.761 56.8558 159.957 56.7521 160.137 56.441C161.143 54.638 162.172 52.8465 163.195 51.055C163.27 50.9225 163.357 50.8015 163.444 50.6748C163.478 50.6921 163.513 50.7094 163.554 50.7209V56.827C163.75 56.8385 163.9 56.85 164.051 56.85C177.892 56.85 191.738 56.85 205.579 56.8558C205.886 56.8558 206.094 56.7751 206.296 56.539C209.031 53.3534 211.783 50.1794 214.523 47.0054C214.599 46.9132 214.674 46.8211 214.801 46.6598C214.575 46.6598 214.425 46.6598 214.281 46.6598C204.568 46.6598 194.855 46.6598 185.147 46.6482C184.783 46.6482 184.604 46.7634 184.431 47.0745C182.997 49.661 180.985 51.6944 178.429 53.1921C178.279 53.2785 178.117 53.3534 177.874 53.4744V24.9774C177.73 24.9659 177.637 24.9543 177.545 24.9543C172.711 24.9543 167.878 24.9543 163.045 24.9486C162.744 24.9486 162.611 25.0753 162.478 25.3115C161.455 27.1433 160.426 28.9636 159.397 30.7897C159.321 30.9279 159.229 31.0604 159.148 31.1929C159.108 31.1814 159.067 31.1699 159.021 31.1584V24.9889H144.694V28.4221C144.648 28.4337 144.602 28.4452 144.555 28.4567C138.988 18.9807 133.42 9.51054 127.829 -0.0057373C127.731 0.149795 127.662 0.253483 127.598 0.357172C120.712 12.1028 113.827 23.8483 106.935 35.5882C106.767 35.8704 106.785 36.072 106.947 36.3428C108.635 39.2057 110.306 42.0744 111.994 44.9374C112.15 45.2024 112.173 45.4213 112.046 45.7093C111.231 47.6045 110.439 49.5054 109.635 51.4064C109.583 51.5273 109.514 51.6483 109.421 51.8269C109.3 51.6483 109.213 51.5331 109.132 51.4006C107.085 48.048 105.045 44.6897 102.986 41.3429C102.778 40.9972 102.796 40.761 102.998 40.4269C106.045 35.4441 109.074 30.4556 112.11 25.467C112.202 25.3172 112.283 25.156 112.381 24.9774C112.266 24.9659 112.219 24.9543 112.173 24.9543C107.045 24.9543 101.917 24.9543 96.7885 24.9659C96.6093 24.9659 96.3665 25.1329 96.2624 25.2942C94.9442 27.4371 93.6491 29.5915 92.3483 31.7459C92.2616 31.8842 92.1749 32.0167 92.0823 32.1549L91.9436 32.1261V24.9716H77.6632V53.1979C77.3973 53.0481 77.2238 52.9559 77.0562 52.8465C74.7609 51.3718 72.9455 49.4363 71.61 47.063C71.4365 46.7519 71.2515 46.6367 70.8873 46.6367C61.1743 46.6482 51.4614 46.6482 41.7542 46.6482C41.6097 46.6482 41.4651 46.6655 41.2686 46.677C41.3611 46.8095 41.4131 46.8844 41.4709 46.9535C44.2114 50.1506 46.9634 53.3477 49.698 56.5562C49.9061 56.8039 50.1374 56.85 50.4323 56.85C64.0882 56.85 77.7442 56.85 91.4001 56.85C91.5678 56.85 91.7355 56.85 91.9725 56.85V49.6667V49.6725Z" fill="white"/>
<path d="M256 22.846C255.884 23.0188 255.809 23.1456 255.717 23.2608C253.52 26.1928 251.317 29.1249 249.126 32.0685C248.912 32.3565 248.692 32.4833 248.322 32.4833C227.514 32.4717 206.713 32.4717 185.905 32.4833C185.535 32.4833 185.338 32.3969 185.171 32.0282C183.13 27.5235 179.84 24.3841 175.036 22.9267C174.995 22.9151 174.955 22.8863 174.885 22.846H256Z" fill="#1A4E9B"/>
<path d="M-7.78534e-05 22.8345H81.1667C80.9354 22.9094 80.7909 22.9612 80.6406 23.013C76.0501 24.528 72.8818 27.5926 70.8987 31.9302C70.7079 32.345 70.5114 32.489 70.0488 32.489C49.3047 32.4775 28.5606 32.4775 7.81654 32.489C7.35402 32.489 7.08807 32.3392 6.82212 31.9763C4.68295 29.0961 2.52067 26.2274 0.36994 23.3587C0.260091 23.2089 0.156023 23.0591 -0.00585938 22.8402L-7.78534e-05 22.8345Z" fill="#1A4E9B"/>
<path d="M185.477 44.8394C186.703 41.458 186.865 38.1227 186.078 34.6837H247.143C247.033 34.8335 246.94 34.966 246.842 35.0927C244.489 38.2034 242.13 41.3082 239.794 44.4304C239.563 44.7415 239.32 44.8452 238.939 44.8452C221.328 44.8336 203.718 44.8394 186.107 44.8394H185.483H185.477Z" fill="#1A4E9B"/>
<path d="M69.9621 34.678C69.1584 38.1228 69.3319 41.4638 70.5402 44.8049C70.3494 44.8222 70.2049 44.8395 70.0603 44.8395C52.3573 44.8395 34.6543 44.8395 16.9513 44.8279C16.7547 44.8279 16.483 44.7185 16.3673 44.563C13.9275 41.3659 11.5051 38.1516 9.07684 34.943C9.02481 34.8739 8.98434 34.7932 8.90918 34.6722H69.9563L69.9621 34.678Z" fill="#1A4E9B"/>
<path d="M193.548 58.8028C193.438 58.9237 193.369 59.0044 193.294 59.0793C191.316 61.1242 189.327 63.1634 187.362 65.2199C187.05 65.5483 186.732 65.6865 186.269 65.6865C176.261 65.675 166.253 65.675 156.246 65.675C153.066 65.675 149.886 65.675 146.706 65.6807C146.324 65.6807 146.035 65.5828 145.746 65.3178C143.48 63.2786 141.196 61.2625 138.918 59.2348C138.78 59.1138 138.647 58.9871 138.438 58.797H193.548V58.8028Z" fill="#1A4E9B"/>
<path d="M62.498 58.774H117.498C117.405 58.8834 117.359 58.9698 117.284 59.0274C114.913 61.1357 112.543 63.2498 110.161 65.3409C109.953 65.5252 109.617 65.6635 109.34 65.6635C96.0887 65.6807 82.8432 65.6807 69.592 65.6635C69.3549 65.6635 69.0485 65.5771 68.8924 65.4158C66.8226 63.3074 64.7702 61.1761 62.7177 59.0505C62.6542 58.9871 62.6079 58.9122 62.498 58.7682V58.774Z" fill="#1A4E9B"/>
<path d="M145.984 36.3658V54.0389C145.885 53.8603 145.822 53.7624 145.781 53.6644C144.446 50.4789 143.11 47.2934 141.786 44.1021C141.717 43.935 141.711 43.6643 141.798 43.5145C143.127 41.1988 144.48 38.9004 145.822 36.5962C145.851 36.5444 145.891 36.504 145.984 36.3658ZM144.671 43.4972C144.636 43.4857 144.596 43.48 144.561 43.4684C144.238 44.0272 143.908 44.586 143.607 45.1562C143.55 45.2657 143.578 45.4616 143.63 45.5883C143.896 46.2507 144.18 46.9017 144.469 47.5526C144.503 47.6332 144.573 47.7024 144.677 47.8406V43.4972H144.671Z" fill="#1A4E9B"/>
<path d="M127.922 64.4019C127.263 63.2729 126.621 62.1784 125.98 61.0839C124.817 59.1023 123.661 57.1265 122.488 55.1506C122.337 54.9029 122.326 54.6898 122.424 54.4191C122.95 52.9674 123.465 51.5043 123.968 50.0469C124.066 49.7588 124.199 49.6379 124.528 49.6436C126.818 49.6609 129.107 49.6609 131.397 49.6436C131.697 49.6436 131.83 49.7358 131.923 50.0238C132.432 51.5158 132.969 53.002 133.478 54.4939C133.536 54.661 133.53 54.9087 133.444 55.0527C131.651 58.1345 129.842 61.2106 128.038 64.281C128.02 64.304 127.997 64.327 127.922 64.4019Z" fill="#1A4E9B"/>
<path d="M81.1323 28.3472H88.7119V53.578H81.1323V28.3472Z" fill="#E41E23"/>
<path d="M106.64 28.3242C106.189 29.0673 105.79 29.7298 105.391 30.3922C103.339 33.7736 101.287 37.155 99.2226 40.5306C99.026 40.8532 99.0144 41.0721 99.2168 41.4062C101.599 45.2945 103.963 49.2001 106.328 53.0942C106.415 53.2382 106.496 53.388 106.611 53.5838C106.432 53.5953 106.299 53.6126 106.172 53.6126C103.744 53.6126 101.31 53.6126 98.8815 53.6241C98.5577 53.6241 98.39 53.5147 98.2281 53.244C95.8288 49.275 93.4179 45.3118 91.0012 41.3486C90.8336 41.0721 90.8336 40.8762 91.0012 40.5997C93.4179 36.6423 95.8288 32.6791 98.2281 28.7044C98.4074 28.4106 98.5924 28.3127 98.9277 28.3127C101.466 28.3242 104.004 28.3184 106.646 28.3184L106.64 28.3242Z" fill="#E41E23"/>
<path d="M114.942 42.2588C114.688 41.8325 114.486 41.4926 114.283 41.147C113.37 39.5974 112.468 38.0421 111.537 36.4983C111.335 36.1642 111.329 35.9165 111.531 35.5766C115.937 28.088 120.325 20.5937 124.719 13.0993C125.708 11.4115 126.696 9.72945 127.691 8.04163C127.766 7.90914 127.847 7.78817 127.957 7.61536C128.061 7.76513 128.136 7.87458 128.205 7.98979C133.599 17.2065 138.993 26.4175 144.399 35.6285C144.567 35.9165 144.584 36.1296 144.405 36.4234C143.33 38.2207 142.283 40.0352 141.219 41.844C141.15 41.9592 141.069 42.0744 140.953 42.2472C140.855 42.0514 140.78 41.9074 140.716 41.7634C138.595 36.7518 136.473 31.7459 134.368 26.7286C134.212 26.3484 134.016 26.2332 133.611 26.2332C129.807 26.2504 126.002 26.2504 122.204 26.2332C121.793 26.2332 121.608 26.3714 121.458 26.7401C119.365 31.7574 117.255 36.769 115.15 41.7807C115.098 41.9074 115.041 42.0341 114.942 42.2645V42.2588Z" fill="#1A4E9B"/>
<path d="M112.427 53.5838C112.768 52.76 113.092 51.9766 113.422 51.199C116.561 43.7334 119.712 36.2678 122.84 28.7965C122.996 28.4221 123.187 28.3069 123.591 28.3069C126.54 28.3242 129.483 28.3242 132.431 28.3069C132.744 28.3069 132.888 28.3991 133.015 28.6928C136.444 36.8612 139.889 45.0237 143.324 53.1863C143.37 53.2958 143.41 53.411 143.474 53.5665C143.301 53.578 143.173 53.6011 143.04 53.6011C140.653 53.6011 138.271 53.6011 135.883 53.6126C135.553 53.6126 135.391 53.5204 135.282 53.1978C134.669 51.4467 134.027 49.7012 133.414 47.9501C133.31 47.6563 133.177 47.5411 132.853 47.5411C129.593 47.5526 126.338 47.5526 123.077 47.5411C122.724 47.5411 122.597 47.6736 122.493 47.9789C121.886 49.7185 121.256 51.4524 120.654 53.1921C120.545 53.5031 120.4 53.6184 120.059 53.6126C117.671 53.5953 115.289 53.6068 112.901 53.6011C112.763 53.6011 112.63 53.5896 112.427 53.578V53.5838ZM128.032 32.921H127.899C126.783 36.0144 125.673 39.1193 124.545 42.2587H131.35C130.229 39.1135 129.13 36.0144 128.026 32.921H128.032Z" fill="#E41E23"/>
<path d="M148.105 53.6126V28.3645H155.801V43.7507L155.905 43.7795C156.003 43.6182 156.113 43.4569 156.205 43.2899C158.957 38.4453 161.709 33.6065 164.45 28.7562C164.635 28.4279 164.837 28.3184 165.213 28.3184C168.156 28.3357 171.104 28.3299 174.047 28.3299H174.573V53.5838H166.901V38.1573C166.866 38.1515 166.826 38.14 166.791 38.1342C166.704 38.2725 166.618 38.4107 166.537 38.549C163.773 43.4396 161.01 48.3245 158.263 53.2209C158.096 53.5147 157.928 53.6299 157.581 53.6241C154.586 53.6068 151.597 53.6184 148.603 53.6184H148.094L148.105 53.6126Z" fill="#E41E23"/>
<path d="M91.9725 49.6725V56.8558C91.7297 56.8558 91.562 56.8558 91.4001 56.8558C77.7442 56.8558 64.0882 56.8558 50.4323 56.8558C50.1374 56.8558 49.9119 56.8097 49.698 56.562C46.9634 53.3592 44.2171 50.1621 41.4709 46.9593C41.4131 46.8902 41.3611 46.8153 41.2686 46.6828C41.4651 46.6713 41.6097 46.654 41.7542 46.654C51.4672 46.654 61.1801 46.654 70.8873 46.6425C71.2515 46.6425 71.4365 46.7577 71.61 47.0687C72.9455 49.442 74.7551 51.3718 77.0562 52.8522C77.2238 52.9617 77.4031 53.0481 77.6632 53.2036V24.9774H91.9436V32.1319L92.0823 32.1607C92.1691 32.0224 92.2616 31.8899 92.3483 31.7517C93.6491 29.5972 94.9442 27.4428 96.2624 25.2999C96.3607 25.1387 96.6093 24.9716 96.7885 24.9716C101.917 24.9543 107.045 24.9601 112.173 24.9601C112.219 24.9601 112.266 24.9716 112.381 24.9831C112.283 25.1617 112.202 25.323 112.11 25.4728C109.074 30.4613 106.045 35.4499 102.998 40.4327C102.796 40.7668 102.772 41.003 102.986 41.3486C105.045 44.6954 107.085 48.0538 109.132 51.4064C109.207 51.5331 109.3 51.6541 109.421 51.8326C109.514 51.6541 109.583 51.5388 109.635 51.4121C110.439 49.5112 111.231 47.6102 112.046 45.715C112.173 45.427 112.15 45.2081 111.994 44.9431C110.306 42.0802 108.635 39.2115 106.947 36.3485C106.785 36.0778 106.773 35.8762 106.935 35.5939C113.827 23.8541 120.712 12.1085 127.598 0.362909C127.662 0.259221 127.731 0.155532 127.829 0C133.42 9.51628 138.988 18.9865 144.555 28.4624C144.602 28.4509 144.648 28.4394 144.694 28.4279V24.9946H159.021V31.1641C159.061 31.1756 159.102 31.1871 159.148 31.1987C159.229 31.0662 159.321 30.9337 159.397 30.7954C160.426 28.9694 161.461 27.1491 162.478 25.3172C162.611 25.081 162.744 24.9543 163.045 24.9543C167.878 24.9658 172.711 24.9601 177.545 24.9601C177.637 24.9601 177.73 24.9716 177.874 24.9831V53.4801C178.117 53.3591 178.279 53.2843 178.429 53.1979C180.985 51.7001 182.997 49.6667 184.431 47.0802C184.604 46.7692 184.783 46.654 185.147 46.654C194.86 46.6655 204.573 46.6655 214.281 46.6655C214.431 46.6655 214.575 46.6655 214.801 46.6655C214.674 46.8268 214.599 46.9247 214.523 47.0111C211.777 50.1909 209.031 53.3649 206.296 56.5447C206.088 56.7809 205.88 56.8615 205.579 56.8615C191.738 56.8558 177.892 56.8615 164.051 56.8558C163.9 56.8558 163.744 56.8442 163.554 56.8327V50.7266C163.519 50.7093 163.484 50.6921 163.444 50.6805C163.363 50.8073 163.27 50.934 163.195 51.0607C162.172 52.8522 161.143 54.6437 160.137 56.4468C159.963 56.7636 159.761 56.8615 159.402 56.8615C152.031 56.85 144.654 56.8615 137.282 56.8442C136.86 56.8442 136.646 56.9825 136.444 57.3339C133.669 62.0805 130.882 66.8156 128.095 71.5507C128.02 71.6832 127.939 71.8099 127.824 72C127.512 71.4643 127.228 70.9862 126.945 70.508C124.372 66.0955 121.794 61.6888 119.227 57.2705C119.047 56.9594 118.851 56.85 118.492 56.85C111.323 56.8615 104.148 56.85 96.9793 56.8673C96.6093 56.8673 96.3954 56.7636 96.2046 56.441C94.9384 54.3039 93.6434 52.184 92.3599 50.0584C92.2731 49.9202 92.1806 49.7819 92.0939 49.6494L91.9725 49.6782V49.6725ZM90.8624 45.3003L90.9665 45.2772C91.0532 45.4212 91.1457 45.5595 91.2325 45.7093C93.1577 48.8833 95.083 52.0515 96.9909 55.2371C97.2048 55.5942 97.436 55.7094 97.8407 55.7094C105.461 55.6979 113.087 55.7037 120.707 55.6921C121.129 55.6921 121.366 55.8073 121.585 56.1818C123.574 59.6208 125.586 63.0482 127.598 66.4757C127.702 66.6543 127.818 66.8214 127.968 67.0575C128.107 66.8271 128.194 66.6831 128.28 66.5391C130.304 63.0828 132.333 59.6323 134.339 56.1645C134.548 55.8073 134.762 55.6864 135.178 55.6864C142.971 55.6979 150.765 55.6864 158.558 55.7094C159.067 55.7094 159.327 55.5424 159.57 55.1103C161.195 52.2301 162.854 49.3729 164.502 46.5042C164.577 46.3717 164.664 46.245 164.745 46.1125C164.773 46.124 164.802 46.1413 164.831 46.1528C164.831 46.3199 164.831 46.4927 164.831 46.6597C164.831 49.4708 164.837 52.2819 164.825 55.0873C164.825 55.5308 164.918 55.7037 165.415 55.6979C169 55.6749 172.584 55.6864 176.169 55.6864C176.336 55.6864 176.498 55.6691 176.678 55.6633V26.2043C176.504 26.1928 176.365 26.1698 176.227 26.1698C172.11 26.1698 167.994 26.1698 163.883 26.164C163.542 26.164 163.357 26.285 163.189 26.5788C161.536 29.5512 159.871 32.512 158.211 35.4787C158.13 35.6169 158.044 35.7494 157.888 35.9914C157.888 35.6861 157.888 35.5132 157.888 35.3462C157.888 32.489 157.876 29.6318 157.899 26.7746C157.899 26.3253 157.807 26.1525 157.309 26.1583C153.725 26.1813 150.14 26.1698 146.556 26.1698C146.377 26.1698 146.203 26.2043 145.989 26.2216V35.5075C145.989 35.5075 145.931 35.5248 145.908 35.5305C139.948 25.3518 133.987 15.1673 127.974 4.90215C127.835 5.13257 127.749 5.27082 127.662 5.41483C121.759 15.4841 115.856 25.5592 109.947 35.6227C109.774 35.9222 109.785 36.1354 109.959 36.4234C111.346 38.7449 112.711 41.0721 114.093 43.3936C114.226 43.6182 114.283 43.8025 114.174 44.0733C112.745 47.4547 111.329 50.8476 109.907 54.2347C109.872 54.3211 109.814 54.4018 109.745 54.5285C109.623 54.3327 109.531 54.1887 109.444 54.0446C106.883 49.8395 104.328 45.6344 101.749 41.4408C101.518 41.0606 101.547 40.8013 101.766 40.4442C104.547 35.8819 107.311 31.3139 110.074 26.7458C110.167 26.5903 110.254 26.4348 110.387 26.2043C110.144 26.1871 109.976 26.164 109.814 26.164C105.808 26.164 101.801 26.164 97.7945 26.1525C97.4187 26.1525 97.2106 26.285 97.0198 26.6018C95.0887 29.8104 93.1461 33.0074 91.2093 36.2045C91.1284 36.3427 91.0359 36.4695 90.8798 36.7057V36.1123C90.8798 32.9902 90.8682 29.8738 90.8914 26.7516C90.8914 26.285 90.7815 26.1467 90.3016 26.1467C86.7344 26.164 83.1615 26.1583 79.5943 26.1583C79.415 26.1583 79.2358 26.1871 79.0219 26.2043V26.6652C79.0219 36.1642 79.0219 45.6632 79.0103 55.1679C79.0103 55.5769 79.126 55.6921 79.5364 55.6864C83.1383 55.6691 86.7402 55.6806 90.3363 55.6749C90.504 55.6749 90.6659 55.6576 90.8682 55.6461V45.283L90.8624 45.3003Z" fill="#1A4E9B"/>
</g>
<defs>
<clipPath id="clip0_3069_5845">
<rect width="256" height="72" fill="white"/>
</clipPath>
</defs>
</svg>
