<svg viewBox="0 0 85 47" fill="none" xmlns="http://www.w3.org/2000/svg" style="transform: scale(0.9)">
  <path
    d="M42.5871 0C29.5119 0 18.8879 10.469 18.8879 23.3515C18.8879 36.2358 29.5119 46.6463 42.5871 46.6463C55.6586 46.6463 66.2271 36.234 66.2271 23.3515C66.2271 10.469 55.6586 0 42.5871 0ZM42.4703 5.59624C52.4065 5.59624 60.4905 13.5585 60.4905 23.3515C60.4905 33.1426 52.4065 41.0519 42.4703 41.0519C40.1108 41.0543 37.774 40.5981 35.5937 39.7094C33.4134 38.8207 31.4324 37.517 29.764 35.8728C28.0957 34.2287 26.7729 32.2764 25.8712 30.1279C24.9696 27.9793 24.5068 25.6765 24.5095 23.3515C24.5095 13.5585 32.536 5.59442 42.4703 5.59624ZM6.43192 10.2771L0 23.2949L6.43192 36.3692H12.1092C10.2959 32.2628 9.36838 27.8298 9.38553 23.3515C9.38553 18.7071 10.3367 14.2765 12.1111 10.2771H6.43192ZM14.1951 10.2771C12.2423 14.3667 11.2329 18.8318 11.2396 23.3515C11.2384 27.8524 12.2476 32.2979 14.1951 36.3692H20.627C18.201 32.448 16.918 27.944 16.9188 23.3515C16.9188 18.5683 18.2779 14.0865 20.627 10.2771H14.1951ZM31.8092 10.2771V36.3692H39.3999V10.2771H31.8092ZM45.9468 10.2771L39.5167 23.2949L45.9468 36.3692H53.5375L47.0481 23.3515L53.5375 10.2771H45.9468ZM64.373 10.2771C66.8041 14.217 68.0871 18.7405 68.0812 23.3515C68.0812 28.1384 66.7277 32.6146 64.373 36.4277H70.803C72.7546 32.337 73.7638 27.8716 73.7585 23.3515C73.7585 18.6816 72.6924 14.2418 70.8049 10.2771H64.373ZM72.8889 10.2771C74.6652 14.2765 75.6145 18.7071 75.6145 23.3515C75.6321 27.83 74.7039 32.2632 72.8889 36.3692H78.5681L85 23.2949L78.5681 10.2771H72.8889Z"
    fill="#004481" />
</svg>