<?xml version="1.0" encoding="utf-8"?>
<!-- Generator: Adobe Illustrator 27.2.0, SVG Export Plug-In . SVG Version: 6.00 Build 0)  -->
<svg version="1.1" id="Layer_1" xmlns="http://www.w3.org/2000/svg" xmlns:xlink="http://www.w3.org/1999/xlink" x="0px"
	y="0px" viewBox="0 0 2500 2500" style="enable-background:new 0 0 2500 2500; transform: scale(4.2)"
	xml:space="preserve">
	<style type="text/css">
		.st5 {
			fill: #313131;
		}

		.st10 {
			fill: #7C7C7C;
		}

		.st86 {
			fill: #FFFFFF;
		}

		.st87 {
			display: none;
			fill: #5D5D5D;
		}

		.st88 {
			display: none;
			fill: #595959;
		}

		.st89 {
			display: none;
			fill: #525252;
		}

		.st90 {
			display: none;
			fill: #FFFFFF;
		}

		.st91 {
			display: none;
			fill: #9B9B9B;
		}

		.st92 {
			fill: #BBBBBB;
		}

		.st93 {
			fill: #F2F2F2;
		}

		.st94 {
			fill: #010101;
		}
	</style>
	<g>

		<path d="M1129.3,986.4c2.2-0.3,4.1-1.4,6.1-2.2c3.4-1.4,6.5-3.3,9.7-5c0.7-0.6,1.7,0,2.4-0.4c0.1,0,0.3,0,0.4-0.1
		c0.6-0.3,1.3-0.3,1.9-0.5c1-0.4,2-0.5,3,0c0.6-0.1,1.2-0.3,1.8-0.4c1.4-0.6,2.9,0.1,4.4-0.4c1.7,0.1,3.4-0.6,5.1-0.7
		c2.8-0.9,5.6-1.3,8.5-0.6c0.9,0,1.7,0,2.6,0c4.5-0.6,9.1-1,13.6-1.7c0.6-0.3,1.3,0,1.9-0.4c0.4,0,0.9-0.1,1.3-0.1
		c0.6-0.4,1.4,0.1,2-0.4c2.2-0.5,4.4-1.3,6.7-1.5c0.9-0.5,2.1,0.2,3-0.6c0.7-0.1,1.3,0,2-0.1c2.1-0.2,4.2-0.2,6.3-0.3
		c0.3-0.1,0.5-0.1,0.8,0c1.3,0,2.6,0.4,3.8-0.5c3.4-1.5,6.2,0.4,9.2,1.4l0,0c0.4,0.4,1,0.7,1.5,1c1.5,0.1,2.7,0.9,4,1.4
		c3.9,1.5,7.8,3,11.6,4.7c1.5,0.7,3.2,1.3,5,1.2c0.6,0.4,1.4-0.1,2,0.4l0,0c0.6,0.5,1.4,0,2,0.4c1.3,0.2,2.6,0.5,3.9,0.7
		c2.3,0.4,4.3,1.5,6.2,2.7c0.4,0.3,0.8,0.5,1.3,0.6c1,0.2,1.9,0.3,2.9,0c2.3-0.4,4.4,0.3,6.5,0.9c5.9,1.8,11.8,3.6,17,6.8
		c3.9,2.4,7.7,5.1,11.4,7.8c2.5,1.8,5.1,3.5,7.8,5c5.3,2.3,10.5,4.5,15.4,7.7c2.8,1.6,5.6,3.3,8.6,4.4c0.7,0.3,1.4,0.4,1.9,0.9l0,0
		c3.9,1.2,6.6,3.9,9.5,6.5c0.7,0.6,1.2,1.3,2,1.7l0,0c1.2,0.8,2.1,2,3.3,3c0.2,0.2,0.4,0.3,0.5,0.5c0.9,0.5,1.5,1.4,2.4,1.9l0,0
		c1.3,1,2.6,1.8,3.9,2.7c0.6,0.6,1.1,1.2,1.9,1.6l0,0c0.3,0.5,1,0.5,1.4,0.8c5.8,3.3,10.2,8.1,14.2,13.2c1.1,1.4,2.4,2.5,3.6,3.8
		l0,0c0.5,1.1,1.2,1.9,2.3,2.3c0.5,0.4,0.9,0.8,1.5,1c0.7,0.9,1.8,1.4,2.6,2.2c0.4,0.7,1.1,1,1.7,1.4c0.3,0.2,0.5,0.4,0.7,0.7
		c4.8,3.2,7.6,8.2,11.3,12.4c2.3,2.6,4.4,5.4,6.4,8.3c0.9,1.4,1.9,2.8,2.1,4.5c0.2,0.4,0,0.9,0.4,1.3c0.7,1.4,1.3,2.9,2,4.3
		c0.3,0.2,0.6,0.4,0.9,0.7c0.9,1.7,1.5,3.5,1.7,5.4c0.9,4.7,0.1,9.5,1.2,14.3c0.8,3.7,1.4,7.5,0.9,11.3c0.6,2.3,1.7,4.3,2.9,6.3
		c0.7,1,1.8,1.8,1.7,3.2c0.1,3-0.2,6-0.3,9c-0.3,0.9-0.1,1.9-0.2,2.8c2.2,4.9,2.8,10.1,2.3,15.4c-0.3,3.4,0.1,6.6,0.7,9.8
		c0.4,2.7,0.2,5.3-2,7.3c-1.7,1.6-2.7,1.6-4.2-0.1c-0.9-1-1.5-2.3-1.9-3.6c-3.1-9.3-6.2-18.7-8.8-28.1
		c-3.6-13.1-11.1-23.7-21.3-32.6c-5.2-4.6-10.8-8.8-15.9-13.4c-4.3-3.8-7.1-8.8-10.6-13.2c-0.7-0.9-1.2-1.9-2-2.7
		c-2.7-3.1-4.1-6.5-4-10.7c0.1-3.6-1.5-6.2-5-7.6c-5.2-2-8.8-5.6-10.8-10.8c-0.8-2.2-2.1-4.3-3.2-6.4c-1.1-2.1-2.3-4-4.2-5.5
		c-2.5-2.1-4.4-1.7-6.1,1.1c-2.9,4.7-4.7,5.1-9.4,2.2c-1.7-1-3.2-2.4-4.8-3.5c-3.5-2.3-7.3-3.1-11.4-2.3c-4.4,0.8-8.3,2.7-12.3,4.7
		c-3.2,1.6-6.6,2.9-10.3,2.6c-2.8-0.3-5.3-1.1-7.8-2.1c-3.1-1.3-6.2-2.7-9.5-3.3c-4.4-0.9-6.9,0.5-8.5,4.6c-0.4,1-0.7,1.9-1.2,2.9
		c-1.8,4.1-5.4,5.7-9.6,4.2c-1.4-0.5-2.7-1.1-4-1.7c-4.8-2.1-7.9-0.1-8,5.1c0,2.5,0,4.9-0.6,7.4c-0.7,2.8-2.1,5.2-5,5.9
		c-7.3,2-9.9,7.5-10.5,14.1c-0.8,8.6,0.8,17,3.8,25.1c0.6,1.6,1.8,2.8,2.8,4.2c4.2,5.3,4,10.1-0.4,15.4
		c-5.5,6.6-12.4,11.2-20.1,14.7c-3.7,1.7-7.6,1.6-11.5,1c-3.6-0.5-7.1-1.7-10.8-2.2c-2.6-0.3-4.6,0.5-5.9,2.7
		c-3.2,5.3-5.4,11.1-6,17.3c-0.7,6.6,2.9,10.3,9.5,10.3c3.3,0,6.5-0.6,9.8-0.5c3.5,0,6.4,1.3,8.9,3.5c1,0.8,1.9,1.7,2.7,2.7
		c3.1,3.5,6.7,5.8,11.5,6.1c7,0.5,9.1,5.9,11,11.4c0.7,1.9,1.2,3.8,1.5,5.8c1.5,9,4.9,17.3,8.1,25.8c4,10.8,7,22,8,33.5
		c0.8,9.1,2.5,17.8,5.9,26.3c1.4,3.4,2.2,7,2.8,10.7c0.8,5.1-1.1,8.9-5.6,11.3c-3.5,1.9-7.4,3-11.1,4.5c-2.2,0.9-4.2,1.8-6.1,3.2
		c-2.9,2.1-3.9,5.2-4,8.6c0,1,0.3,1.9,0.8,2.7c0.9,1.3,2.1,1.4,3.2,0.1c0.8-1,1.3-2.2,1.8-3.4c1-2,2.3-3.8,3.9-5.4
		c3.2-3.1,6.3-3.7,10.5-1.9c3.7,1.6,6.9,3.9,10.2,6.2c2.1,1.5,4.4,2.6,7,3c3.9,0.6,7.2,2.5,9.8,5.6c2.3,2.7,2,4.4-1.4,5.8
		c-8.1,3.3-13.6,11.6-13.5,20.3c0,1.9,0.5,3.8,1.1,5.6c1.4,3.8,4,6,8.1,6.6c2.8,0.5,5.7,0.5,8.6,1.1c2.4,0.5,4.7,1.1,6.4,3
		c3.6,4.3,8.5,5.8,13.8,6c1.2,0.1,2.4,0.2,3.5,0.6c3.5,1,4.1,2.2,2.6,5.6c-1.3,3-3,5.6-4.8,8.3c-1,1.4-2,2.9-3.2,4.2
		c-1.5,1.6-3.3,2.7-5.5,3.1c-2.8,0.5-5.6,1.1-8.1,2.9c-1.1,0.8-2.2,1.5-1.9,3c0.3,1.6,1.6,2.2,2.9,2.4c2.8,0.4,5.4-0.2,8-1.1
		c2.2-0.8,3.7-0.8,5.3,1.5c1.3,1.9,3.8,2.2,6,2.7c2.6,0.6,5.2,1,7.7,1.7c3.2,0.8,5.6,2.6,7.1,5.6c1.4,2.6,2.5,5.4,3.5,8.2
		c1.2,3.6-0.5,6.4-3.2,8.6c-2.3,1.9-4.6,3.8-7,5.5c-3.3,2.4-5.6,5.5-6.7,9.4c-2,7-3.3,14.2-2,21.5c0.9,5.2,3.2,9.5,8.3,11.9
		c0.9,0.4,1.7,1.2,2.6,1.7c2.5,1.6,4.4,0.8,5.2-2.1c0.2-0.7,0.2-1.4,0.3-2.1c0.8-6.2,4.8-8.6,10.6-6.2c3.1,1.3,6.1,2.9,8.7,5.1
		c3.6,3,7.8,4.3,12.4,4.2c4.8-0.1,8.9,1.5,12.7,4.2c2.3,1.7,4.6,3.4,7,5.1c6.5,4.4,12.2,4.3,18.6-0.2c5.4-3.9,10.3-8.3,14.5-13.5
		c4.5-5.6,9.8-10.5,14.8-15.7c3.5-3.5,6.8-7.2,9.1-11.7c0.8-1.6,1.5-3.2,2.3-4.7c5.3-10.7,11.4-21.1,16.7-31.8
		c2.1-4.3,4.4-8.5,5.6-13.2c0.8-3,2-5.8,1.9-9c0.1-0.3,0.2-0.7,0.3-1c0.2-0.6,0.4-1.2,0.6-1.8c0.1-0.2,0.1-0.4,0.2-0.6
		c0.2-0.6,0.3-1.1,0.4-1.7c0.1-0.3,0.2-0.6,0.3-0.8c0.1-0.6,0.3-1.2,0.4-1.8c0.1-0.2,0.1-0.4,0.2-0.6c0.2-0.6,0.5-1.1,0.6-1.7
		c0-0.2,0.1-0.4,0.1-0.6c0.4-0.6,0.4-1.4,0.6-2.1c0.3-0.8,0.2-1.7,0.5-2.6c0-0.2,0.1-0.5,0.2-0.7c0.2-1.1,0.1-2.2,0.1-3.2
		c0-1.4,0-2.8,0-4.2c0.6-2.6,0.4-5.3,1.7-7.9c1.1-2.3,2.8-3.2,5.1-3.5c1.8-0.2,3.6,0.2,5.4,0.7c6,1.6,12.2,1.9,18.4,2.5
		c9.8,1,19.5,2.5,29.1,4.3c4.4,0.8,8.9,0.8,13.3,1.5c1,0.2,2,0.4,3,0.9c3.4,1.6,3.9,3.9,1.4,6.6c-3.2,3.6-7.1,6.5-11,9.2
		c-3.1,2.2-6.3,4.3-9.7,6.2c-3.7,2.1-6.9,4.5-9.4,8c-3.1,4.2-6.8,7.8-10.5,11.4c-2.3,2.2-4.3,4.7-5.7,7.6c-1.8,3.5-4.3,6.5-7.6,8.5
		c-6.6,4-8.3,10.4-9,17.3c-0.1,1.3-0.1,2.7,0,4.1c0.1,4,1.4,5.6,5.4,6.4c4.8,1,9.1,3,12.9,6.1c2.4,1.9,4.6,4,6.3,6.5
		c2.1,3.1,1.1,5.2-2.6,5.5c-7,0.6-13.5-1.1-19-5.7c-0.7-0.6-1.3-1.2-2.1-1.6c-2.7-1.7-5.4-1.4-7.3,1.1c-4.1,5.5-5.7,11.7-4.9,18.5
		c0.2,2,1.1,3.8,2.9,4.7c6.2,3.1,9.8,8.8,14,13.9c2.2,2.6,4.9,4.6,7.9,6.1c2.6,1.3,5.2,1.2,7.5-0.4c6.6-4.4,10.7-10.6,12.8-18.2
		c0.7-2.4-0.1-4.9-0.9-7.3c-0.7-2.4-1.7-4.7-2.1-7.1c-0.4-2.5,0.2-3.4,2.6-4c5-1.2,9.9-2.6,14.4-5.2c1-0.6,2.3-0.8,3.5-0.9
		c2.9-0.3,3.5,0.1,4.6,2.9c1,2.8,2.1,5.5,3.9,7.9c2.7,3.7,6.1,4.7,10.3,2.8c2.8-1.3,5.6-2.4,8.3-3.7c4.1-2,8.2-1.5,12.4-0.8
		c0.9,0.2,1.7,0.5,1.7,1.7c0,22.3,0,44.5,0,66.8c0,0.9,0.2,1.8-0.2,2.6c-164.2,0-328.3,0-492.5,0c0.2-1.3,1-2.2,1.5-3.3
		c4.1-4.1,8.3-7.9,12.1-12.3c4.6-5.3,9.5-10.2,15.2-14.4c0.5-0.4,1-0.7,1.4-1.3c3.6-2.6,7.2-5.3,10.7-7.9c1.5-1.1,2.9-2.3,4.2-3.5
		c1.8-1,2.9-2.8,4.7-3.8c6.8-4.6,13.1-10,19.8-14.7c0.8-0.5,1.7-0.9,2.3-1.7c2.2-1.6,4.5-3.2,6.7-4.7c1.3-0.6,2.4-1.6,3.6-2.3
		c3-1.6,4.3-1.5,6.8,0.8c8.9,8.2,16.9,17.2,24.2,26.8c4.6,6.1,9.8,11.8,15.2,17.3c5.1,5.2,10.4,10.2,16.4,14.3
		c5,3.4,10.5,3.9,16.3,3.3c1.4-0.2,2-0.6,2-2.3c0-3.6,2.3-6.1,5.7-7.1c1.1-0.3,2.2-0.7,3.3-0.8c3.7-0.4,5.8-3.1,8-5.6
		c1-1.2,0.7-2.4-0.2-3.4c-1.2-1.3-2.7-2.3-4.2-3.2c-3.2-2-6.3-4.2-7.8-7.9c-0.1-0.4-0.4-0.7-0.6-1c-3-3.4-5.4-7.1-7.4-11.1
		c-1.6-3.2-4.6-5.1-7.4-7c-3-2-5.9-4.1-8.4-6.7c-2.8-2.9-4-6.2-4.2-10.2c-0.3-7.1,0.8-14,1.7-21c0.4-3.6,0.3-7.2,0.1-10.8
		c-0.2-2.9-2.1-4.7-4.7-5.8c-2.4-1-4.9-1.6-7.2-2.5c-7.7-3.1-13-8.4-14.9-16.6c-0.9-3.8-0.5-7.6,0.6-11.4c1.5-5.1,3.2-10.1,3.1-15.7
		c-0.1-5.5,2.8-10.3,4.6-15.3c1.3-3.4,2-6.9,2-10.5c-0.1-7.4,0.1-14.8-0.4-22.3c-0.3-4.4-1.9-7.6-6.1-9.4c-4.9-2.1-9.9-4.1-14.7-6.5
		c-1.8-0.9-3.4-0.5-4.9,0.8c-1.1,1-2.2,1.9-3,3.1c-3,4-7,6.5-11.6,8.2c-3.2,1.2-6.1,2.7-8.2,5.6c-1,1.4-2.5,2-4.3,2.2
		c-5.3,0.5-10.6,1.3-15.9,1.7c-4.1,0.3-8.1-0.2-12-1.8c-2.3-0.9-4.1-2.4-5.4-4.5c-1.3-2.1-2.7-4.2-3.4-6.6c-2.7-8-7.3-14.7-12.7-21
		c-4.4-5.1-8.1-10.7-9.8-17.4c-1.1-4.1-1.4-8.4-1.7-12.6c-0.5-6.7-2.1-13.1-4.2-19.4c-1.9-5.8-3.9-11.5-4.4-17.6
		c-0.4-4.7-0.6-9.4-1.5-14c-0.3-1.3-0.6-2.6-1.2-3.9c-0.4-0.9-0.7-2-1.9-1.8c-1.1,0.1-1.2,1.2-1.4,2c-0.6,2.9-1.2,5.8-1.3,8.8
		c-0.4,8.9,0.7,17.7,2.8,26.4c2.7,11.6,4.4,23.4,5.4,35.2c0.7,7.5,2.1,14.9,5.1,21.9c4.3,10.1,7.5,20.6,9.9,31.3
		c0.6,2.9,1.7,5.7,3.6,8c3.5,4.3,5.2,9.5,7.2,14.5c1.2,2.8,2.6,5.5,4.4,7.9c8.7,11.5,14.4,24.5,19.5,37.8c1.3,3.3,2.5,6.6,3.2,10
		c0.8,4.1-0.2,6-4.2,7.2c-8.9,2.9-17.4,1.9-25.1-3.4c-5.1-3.5-10-7.4-15.2-10.9c-5.8-3.9-9.6-9.1-11.7-15.7c-3-9.4-7.8-17.9-13-26.2
		c-1.9-3.1-3.5-6.4-4.4-10c-2.1-7.6-3.8-15.4-5.1-23.2c-1.6-9.2,1.2-16.6,9.1-22c0.1-0.1,0.2-0.2,0.3-0.4c0.2-0.2,0.4-0.5,0.7-0.6
		c1.4-0.5,1.2-1.5,0.8-2.6c-1.2-2.2-2.4-4.5-3.1-6.9c-1.2-4.9-4-9-6.1-13.4c-3.8-7.9-9.5-14.6-13.8-22.2c-1.5-2.8-1.7-6-3-8.9
		c-0.4-0.6-0.6-1.2-0.8-1.9c0-0.1,0-0.3-0.1-0.4c-0.9-2.1-2.8-3.6-3.5-5.7c-1.1-2.6-1.5-5.4-1.7-8.2c0-0.1-0.1-0.3-0.1-0.4
		c-0.5-1,0.1-2-0.3-3c-0.1-0.4-0.1-0.8-0.2-1.3c-1.5-3.6-3.4-7.1-4.3-10.9c-0.1-0.2-0.1-0.5-0.1-0.7c-1.5-2.4-3-4.8-4-7.5
		c-0.5-1.5-1-3-1.5-4.6c0-0.1-0.1-0.3-0.1-0.4c-1.4-1.6-0.6-3.7-0.9-5.5c-0.5-0.5-0.1-1.2-0.5-1.8c0.2-1.3-0.4-2.5-0.6-3.8
		c-0.3-1.9-0.3-3.9,0-5.8c0.2-1.7,0.4-3.5,0.6-5.2c0.4-0.8,0-1.7,0.3-2.6c0.1-1.9,0.6-3.8,0-5.6c-0.1-0.8,0-1.5-0.1-2.3
		c-0.1-1,0.2-2-0.2-3c0-0.3-0.1-0.6-0.1-0.9c-0.3-0.9-0.1-1.8-0.2-2.7c-0.1-1,0.2-2.1-0.2-3.1l-0.1,0c-0.4-2.6-0.3-5.1,0-7.7
		c0-0.3,0.1-0.6,0.1-0.9c0.3-0.8,0.1-1.7,0.2-2.5c0-0.7,0-1.5,0.1-2.2c0.7-0.9,0.3-1.9,0.4-2.9c0-0.4,0-0.8,0.1-1.1
		c1-5.1,1.6-10.4,3.8-15.2c2.5-4.4,4.6-9,7.6-13.1c3-4.1,3.9-8.9,2.1-14c-1.2-3.1-1.5-6.3-0.1-9.5c0.3-0.6,0.6-1.2,0.3-1.8
		c3.3-6.9,5.7-14.2,8.1-21.5c1.3-1.4,1.3-3.3,2.1-4.9c1.3-2.8,3.4-5.1,5-7.6l-0.1-0.1c0.6-0.5,0.9-1.3,1.6-1.8
		c1.4-1.2,2-2.8,2.7-4.5c0.9-1.4,0.8-3.1,1.5-4.6c1.4-3.6,2.8-7.2,5.7-9.9c0.5-0.6,1-1.2,1.5-1.8c0.4-0.4,1-0.5,1.3-1.1
		c0.2-0.2,0.4-0.3,0.6-0.5c0.7-0.3,1.3-0.9,1.9-1.4c0.1-0.2,0.3-0.4,0.6-0.3c1.5-0.6,2.8-1.6,4.3-2c4.4-1.2,7.2-4.5,10-7.9
		c0.3-0.4,0.8-0.8,1.1-1.2c0.3-2,0.1-4,1-5.9c1.3-1.5,2.1-3.5,3.8-4.6c1.1-0.8,1.7-2,2-3.4c4.7-7,9.7-13.9,14.8-20.6
		c1.1-1.3,2.2-2.6,3.7-3.5c1.5-1,2.9-2,4.5-2.9c0.8-0.4,1.5-0.7,2.4-0.5c0.7-0.5,1.5-0.9,2.2-1.4c2.3-0.9,4.5-2,6.8-2.8
		c5.9-2.4,10.6-6.6,15.5-10.5c0.2-0.1,0.5-0.1,0.7-0.2C1123.1,987.5,1125.9,985.7,1129.3,986.4z" />
		<path class="st5"
			d="M1437.2,1406.1c-0.1,2-0.9,3.7-1.7,5.4c-3.4,7.1-7.2,14.1-10.9,21.1c-3.3,6.1-6.6,12.3-9.5,18.5
		c-3.4,7.1-7.9,13.3-13.5,18.8c-4.8,4.7-9.3,9.7-13.6,14.8c-4.2,5-9,9.5-14.5,13.1c-2.8,1.8-5.8,3.3-9.3,3.3c-3.2,0-6-0.8-8.6-2.5
		c-2.6-1.8-5.3-3.6-7.8-5.6c-3.9-3-8.3-4.6-13.3-4.5c-4.5,0.1-8.6-1.2-12.2-4.1c-2.4-2-5.1-3.6-8-4.9c-1.6-0.7-3.1-1.2-4.9-1
		c-2.1,0.2-3.6,1.3-4.2,3.3c-0.4,1.1-0.6,2.3-0.6,3.5c-0.1,1.5-0.5,2.8-1.3,4c-1.1,1.5-2.3,2.2-3.9,1.3c-3.6-2.1-7.5-3.7-10.1-7.2
		c-2.5-3.3-3.7-7.3-3.9-11.4c-0.3-6,0.5-11.8,2-17.6c1.3-4.9,3.9-8.9,8-11.8c2.3-1.6,4.5-3.4,6.6-5.2c3.1-2.6,3.9-5.3,2.1-8.9
		c-1.1-2.1-1.8-4.3-2.8-6.4c-1.2-2.7-3.3-4.3-6.1-4.9c-1.6-0.4-3.1-0.8-4.7-1c-3.2-0.4-6.1-1.8-9.2-2.5c-0.7-0.2-1.1-0.6-1.2-1.3
		c-0.3-2-1.2-1.9-2.7-1.3c-2.2,0.9-4.5,1.2-6.8,1.5c-1.5,0.2-3,0-4.4-0.7c-1.4-0.6-2.3-1.6-2.4-3.3c-0.1-1.7,0.6-2.6,2-3.5
		c2.9-1.8,6-3,9.4-3.5c2.1-0.3,3.8-1.3,5.1-2.9c2.9-3.5,5.5-7.3,7.4-11.4c1.5-3.2,1.3-3.9-2.2-4.5c-2.2-0.4-4.4-0.7-6.6-0.9
		c-3.4-0.3-6.5-1.4-8.7-4.1c-3.2-3.8-7.4-4.8-12-5c-1.9-0.1-3.8-0.4-5.7-0.8c-3.2-0.6-5.4-2.5-6.9-5.4c-2.5-4.8-2.5-9.8-0.9-14.9
		c1.8-5.5,5.1-9.9,10.1-13c1.2-0.7,2.5-1.1,3.7-1.6c1.7-0.7,2-1.7,0.8-3.1c-2.3-2.8-5-4.9-8.7-5.4c-3.5-0.5-6.5-2.1-9.3-4.1
		c-2.6-1.9-5.2-3.7-8.2-5c-0.9-0.4-1.9-0.8-2.9-1.1c-2.6-0.7-4.7,0-6.6,1.7c-1.6,1.5-2.9,3.2-3.9,5.1c-0.7,1.5-1.4,3-2.3,4.5
		c-1.1,2.1-2.8,2.3-4.4,0.5c-1.5-1.6-1.9-3.6-1.7-5.8c0.4-5.4,3.8-8.6,8.5-10.7c3.3-1.4,6.7-2.6,10.1-3.9c1.3-0.5,2.5-1.1,3.7-1.7
		c3.8-2.1,5.3-5.3,4.7-9.6c-0.7-5-2.2-9.8-4.1-14.5c-2.8-6.8-4-13.9-4.4-21.2c-0.3-4.7-1.3-9.3-2.2-13.9c-2.1-11-6-21.4-10-31.7
		c-1.6-4-2.6-8.2-3.5-12.4c-0.7-3.6-1.5-7.2-2.8-10.6c-0.3-0.7-0.6-1.3-0.9-2c-1.6-3.6-4.2-6-8.3-6.3c-0.6,0-1.3-0.2-1.9-0.3
		c-3.1-0.3-5.7-1.6-7.8-3.7c-1.4-1.4-2.8-2.8-4.2-4.2c-2.7-2.7-5.9-4.1-9.9-4.1c-3.3,0-6.5,0.8-9.8,0.6c-1.4-0.1-2.7-0.2-4-0.7
		c-3.7-1.5-5.7-4.2-6-8.2c-0.2-2.3,0.1-4.6,0.7-6.9c1.1-4.5,2.8-8.8,5-12.9c1.8-3.3,4.1-4.8,8.3-4c3.4,0.6,6.7,1.6,10.1,2.2
		c4.3,0.8,8.4,0.4,12.4-1.5c5.5-2.6,10.4-6,14.9-10c2-1.8,3.7-4,5.1-6.3c2-3.3,1.8-6.5-0.2-9.7c-0.4-0.6-0.8-1.2-1.2-1.8
		c-2.5-2.7-3.8-5.9-4.6-9.3c-1.5-6.1-2.6-12.2-2.4-18.5c0.1-3.8,1-7.4,2.7-10.8c1.3-2.6,3.3-4.5,6.1-5.4c0.9-0.3,1.8-0.7,2.7-1
		c2.4-0.9,3.7-2.6,4.3-5.1c0.3-1.6,0.6-3.1,0.6-4.7c0-1.4-0.1-2.9,0.1-4.3c0.4-3.9,3.7-6.2,7.5-5.2c1.9,0.5,3.5,1.6,5.3,2.2
		c1.2,0.5,2.4,0.8,3.7,0.7c2.1-0.1,3.7-1,4.6-2.9c0.6-1.2,1.1-2.5,1.5-3.8c1.5-4.8,4.4-6.4,9.9-5.5c3.4,0.6,6.5,2,9.7,3.4
		c2.3,1,4.6,1.8,7.1,2.1c3.4,0.4,6.5-0.7,9.4-2.1c2.3-1.1,4.6-2.2,6.9-3.3c2.2-1,4.5-1.6,6.9-2c4-0.6,7.8,0,11.2,2.3
		c1.1,0.7,2.2,1.6,3.3,2.4c1.4,1.1,2.8,2.1,4.5,2.7c2.4,0.8,3,0.6,4.4-1.5c0.4-0.6,0.7-1.3,1-1.9c0.4-0.8,1-1.4,1.6-2.1
		c0.9-1.1,2-1.2,3.2-0.7c1.7,0.7,3.1,1.6,4.2,3c1.3,1.6,2.5,3.3,3.4,5.2c1.6,3.2,3.1,6.3,4.7,9.4c1,2,2.4,3.7,4.6,4.7
		c2.4,1.1,4.6,2.6,6.9,3.8c1.3,0.7,2,1.8,2.2,3.2c0.2,1.8,0.5,3.6,0.5,5.5c0,2.4,0.8,4.5,2.2,6.4c2.8,3.7,5.6,7.4,8.3,11.2
		c2.7,3.9,6.1,7,9.7,9.9c5.8,4.8,11.8,9.5,17.1,15c7.8,8.1,13.4,17.4,16.4,28.3c2.6,9.4,5.7,18.6,8.7,27.9c0.5,1.4,1,2.7,2.1,3.7
		c0.6,0.6,1.1,0.6,1.6,0.1c1.5-1.3,2.2-3.1,2.4-5.1c0.1-2.2-0.4-4.3-0.6-6.4c-0.1-0.8-0.3-1.6-0.1-2.4c0.8-5.5,0.3-11-1.2-16.4
		c-0.1-0.5-0.3-1.1-0.4-1.6c0.2-0.3,0.3-0.3,0.4,0.1c0.4,0.4,0.7,0.9,1.1,1.3c0.8,0.8,1.7,1.5,1.6,2.8c0,3.2-0.4,6.3-0.2,9.5
		c0,1,0,2,0.4,3c1,4.6,1.3,9.3,2.6,13.8c1.2,4,0.5,8.2,0.9,12.4c1.2,3.3,2.6,6.6,3.3,10.1c0.6,2.9,1,5.7,0.2,8.6
		c-0.5,1.9-1.4,3.3-3.1,4.3c-2.8,1.7-4.6,1.3-6.5-1.4c-2-2.8-3.5-6-4.6-9.2c-2.5-7.4-5.5-14.5-8.6-21.6c-3.7-8.3-6.3-16.9-8.8-25.6
		c-3.1-10.5-6.8-20.7-13.7-29.4c-5-6.2-10.7-11.7-16.5-17.1c-5-4.7-9.8-9.6-14-15.1c-4.1-5.3-9.2-9.3-15.2-12.1
		c-4.8-2.2-8.6-5.5-11.2-10.1c-1.1-2-2.5-3.9-4.2-5.5c-1.8-1.8-3.9-2.9-6.5-2.1c-5.6,1.7-9.6-0.4-12.7-5c-0.9-1.3-1.9-2.6-3.3-3.4
		c-3.2-1.9-6.5-0.2-6.8,3.5c-0.2,2.6,0.4,5.2,0.7,7.9c0.2,2.2,0.4,4.5-0.2,6.7c-0.8,2.8-2.3,3.6-5,2.4c-3-1.4-5.2-3.7-7.3-6.1
		c-2.8-3.2-5.7-6.5-9.4-8.8c-4.9-3.1-10.7-2.1-13.9,2.8c-2.9,4.5-6.3,8.3-11.1,11c-3.2,1.8-4.5,5-4.7,8.7c-0.2,2.2-0.1,4.5,0,6.7
		c0.1,5,1,9.9,1.6,14.8c0.7,5.7,0,11-2.2,16.2c-1.9,4.7-3.7,9.4-4.5,14.4c-0.9,5.3,0.5,9.8,5.2,13c3.1,2.1,6.4,2.6,10,1.3
		c1.3-0.5,2.5-1,3.6-1.8c5.2-3.9,11.2-5.2,17.6-5.1c7.1,0.1,13.4-2.7,19.8-5.1c4.1-1.5,8.1-3.1,12.2-4.4c8-2.5,15.2-0.9,21.2,5
		c3.1,3,3.3,5.4,1.1,9c-1.6,2.6-3.1,5.2-4.4,8c-1.7,3.7-1,6.1,2.6,8.3c1.9,1.1,3.9,1.7,5.8,2.8c4.4,2.6,7.5,6.6,10.3,10.7
		c2.5,3.7,5.3,7.2,8.1,10.6c0.7,0.8,1.5,1.6,1,2.7c-0.5,1.2-1.6,1.5-2.7,1.6c-2.8,0.4-7.2-2.3-8-4.8c2.8-2.4,2.8-2.5,0.3-5.5
		c-3.6-4.3-7.8-7.8-12.7-10.5c-3.6-2-7.8-2.3-11.8-2.6c-5-0.3-9.9,0.8-14.8,0.4c-1.5-0.1-3.4,0.4-3.8-1.6c-0.4-1.7,0.5-3.2,2-4.2
		c2.1-1.4,3.8-3.1,5.1-5.3c2.3-4.1,0.8-7.4-3.7-8.5c-3.8-1-7.6,0-11.4,0.1c-8.8,0.2-16.6,3.6-24.6,6.7c-7.3,2.7-14.6,5.3-22.6,4.7
		c-4.8-0.3-9.5-1-14.3-0.9c-5.5,0.1-7.4,2.5-6,7.8c1.2,4.7,3.6,8.4,7.6,11.2c4.7,3.3,9.9,4.7,15.5,5c1.6,0.1,3-0.3,4.3-1.1
		c3.2-1.8,6.7-3,10.4-3.5c1-0.1,1.9-0.2,2.9-0.1c2.2,0.3,3.2,2,2.2,4c-0.8,1.7-2.2,2.9-3.7,4c-2.6,2-5.6,3.4-8.4,5.1
		c-2.6,1.6-3.6,3.8-3.8,6.7c-0.5,7.8,2.7,14.3,7,20.4c4.1,5.8,9.3,10.5,15.5,14.1c2.3,1.3,4.8,2.2,7.4,2.8c2.5,0.5,4.7-0.1,6-2.4
		c2-3.3,4.3-6.4,6.5-9.5c1.9-2.7,1.6-4.5-1-6.6c-1.8-1.5-3.7-2.7-5.9-3.7c-4.6-2-9.6-8-9.1-13.8c0.2-2.7,1.4-5,3-6.9
		c5-5.7,10.4-10.8,18-13c3.2-0.9,3.7-0.8,4.5,2.4c0.2,1,0.5,2,0.8,3c1,3.3,1.2,3.3,4.7,3.4c2.6,0,5.5,2.5,5.7,5.1
		c0.1,1.4,0.8,2.2,2,2.6c1.3,0.4,2.6,0.8,4,0.5c3-0.5,3.8-2.4,2-4.9c-0.6-0.9-1.8-1.6-0.9-2.9c0.9-0.6,1.5-0.1,2.1,0.4
		c0.8,0.7,1.6,1.3,2.4,1.9c2.5,1.6,2.7,3.2,0.5,5.4c-0.4,0.4-0.9,0.7-1.1,1.2c-0.8,0.9-1.8,1.3-2.8,1.8c-5.6,1.1-10.4-0.8-14.8-3.9
		c-2.4-1.7-4-3.5-6.2-5.5c-0.5-0.5-1.7-1.7-2.6-0.7c-0.7,0.8-0.7,1.4-0.5,2.1c0.9,3,0.1,5.7-1.4,8.2c-0.3,0.5-0.6,1-0.8,1.5
		c-1.1,2.6,0,4.3,2.9,4.2c2-0.1,4-0.3,5.9-0.6c2-0.3,4-0.3,6-0.1c1.6,0.1,2.6,1.1,2.4,2.7c-0.4,2.5,0.9,4.3,2.2,6.1
		c1.6,2.3,3.1,4.6,3.6,7.5c0.4,2.7,0,5.3-0.6,7.8c-0.7,3.5-1.1,6.9-1.1,10.4c0.1,5.7-1.6,7.7-7.1,9.1c-1.2,0.3-2.3,0.5-3.5,0.7
		c-2.1,0-4.3,0-6.4,0c-12.7-1.7-24.3-6.1-34.8-13.4c-3.8-2.6-7-5.8-9.9-9.3c-6-7.1-11.2-14.8-15.3-23.1c-0.4-0.7-0.8-1.4-1.3-2
		c-3.2-3.6-8.1-2.7-9.8,1.7c-1.5,3.9-1.5,7.9-0.7,12c1.4,7.1,3.6,13.9,5.9,20.7c2.8,8.6,5.3,17.3,7,26.1c2.1,11,6.9,20.9,12.6,30.3
		c1.6,2.6,3,5.3,4.5,7.9c2.2,3.8,3.6,8,4.2,12.4c0.8,6,3.6,10.9,7.8,15c1.7,1.6,3,3.5,4,5.6c2.7,5.7,6,11.1,8.1,17.1
		c1.4,4.2,1.9,8.4-0.2,12.6c-0.8,1.6-1.3,3.4,0.2,4.9c1.5,1.6,3.4,1.5,5.4,1c3.2-0.9,6.3-2.3,9.8-2c1.4,0.1,2.7,0.2,4,0.5
		c9.1,2.7,18.5,3.5,27.9,4.4c4.3,0.4,8.8-0.2,13.2,0c2.9,0.1,5.3,1.1,6.6,4c0.7,1.7,0.7,3.2-0.2,4.8c-2.6,4.5-8.2,6.7-14.7,5.8
		c-4.4-0.6-8.8-1.7-13.2-2.2c-2.5-0.2-5-0.2-7.4,0c-4.7,0.5-9.1,1.8-12.6,5.2c-3.2,3.2-3.3,6.9-0.1,10.1c3,3.1,6.7,5.5,10.4,7.7
		c6.8,4,12.2,9.5,17,15.6c0.8,1.1,1.8,2,2.9,2.8c1.9,1.4,3.3,3.3,4.4,5.3c2.1,3.9,0.4,8.7-3.6,10.8c-2.6,1.4-5.5,1.8-8.3,2.3
		c-2.1,0.4-4.2,0.8-6.3,1.6c-3.4,1.3-4.2,3.1-3,6.6c0.5,1.5,1.4,2.9,2.3,4.2c1.9,3,4.1,5.7,6.2,8.5c2.1,2.6,4.8,4.4,8.1,5.3
		c2.5,0.7,5,1.4,7.5,1.2c6.4-0.5,11.2,2.5,15.7,6.4c3.5,3,7,6.1,10.9,8.6c6,3.8,12,3.8,18,0c2.5-1.6,4.8-3.4,6.9-5.5
		c5.5-5.5,11-10.9,16.4-16.5c4.1-4.2,7.6-9,10.3-14.3c6.9-13.4,13.8-26.7,21.1-39.9C1435.4,1408.2,1435.1,1406.2,1437.2,1406.1z" />
		<path class="st5" d="M1043.4,1328.7c-0.7,1.6-1.9,2.7-3,4c-4.4,4.7-6.3,10.2-5.4,16.5c1.4,9.3,3.4,18.5,6.2,27.6
		c1,3.2,2.7,6.1,4.5,9c2.3,3.8,4.6,7.7,6.9,11.5c1.7,2.9,2.5,6.2,3.7,9.3c0.7,1.9,1.3,3.8,2,5.6c1.7,4.4,4.4,8,8,10.8
		c5.9,4.4,11.8,8.7,17.9,12.9c4.5,3.1,9.6,5.1,15.2,5c3.5-0.1,6.8-1,10-2.1c2.4-0.8,2.9-2.1,2.4-4.8c-0.8-4.3-2.5-8.3-4-12.3
		c-3.5-9.4-7.8-18.5-12.9-27.3c-1.1-1.9-2.3-3.8-3.7-5.6c-3.3-4.2-6-8.7-7.7-13.7c-1.6-4.7-4-9-7-13.1c-1.2-1.6-2-3.4-2.4-5.4
		c-0.4-1.7-0.9-3.4-1.3-5.1c-2-8.8-4.7-17.4-8.2-25.8c-3.5-8.1-5.2-16.6-5.9-25.3c-1-12.4-3.2-24.5-5.9-36.6
		c-1.6-7.3-2.5-14.8-2.2-22.4c0.1-4.1,0.8-8.1,1.8-12.1c0.1-0.5,0.3-1.1,0.5-1.6c0.6-1.4,1.6-1.6,2.8-0.4c1,1,1.6,2.2,2.1,3.5
		c1.2,3.2,1.7,6.6,2,10.1c0.3,3.1,0.6,6.2,0.8,9.3c0.4,4.1,1.5,8,2.8,11.9c1.4,4.4,2.9,8.8,4,13.3c1.1,4.3,1.7,8.7,1.8,13
		c0.3,10.4,4.3,19.2,11,26.9c1.2,1.4,2.3,2.8,3.5,4.3c3.7,4.4,6.5,9.3,8.4,14.7c0.8,2.3,2,4.5,3.1,6.8c2.4,4.7,6.3,6.7,11.3,7.3
		c5.2,0.7,10.2-0.2,15.3-0.7c2.3-0.2,4.6-0.6,6.9-0.7c1.4-0.1,2.6-0.4,3.3-1.6c2.1-3.3,5.4-4.9,8.9-6.2c3.7-1.4,7.1-3.3,9.8-6.3
		c1-1.1,2-2.3,3.1-3.4c3.8-3.9,4.2-3.9,9.1-1.6c3.5,1.7,7,3.1,10.5,4.7c2.1,0.9,4.2,2,6.1,3.3c1.5,1,2.3,2.3,2.6,4.1
		c0.6,3.4,0.8,6.8,0.9,10.2c0.2,6,0,12,0.1,18c0,2.6-0.4,5.1-1.4,7.5c-1.2,3.1-2.2,6.2-3.5,9.2c-1.3,3.1-1.9,6.3-1.8,9.6
		c0,3.2-0.5,6.2-1.6,9.2c-1.3,3.8-2.4,7.6-2.4,11.7c0,6.3,2.9,11.2,7.4,15.3c2.4,2.2,5.3,3.8,8.5,4.7c1.8,0.5,3.7,1.2,5.5,1.8
		c4.4,1.6,5.9,4,6.1,8.7c0.3,7.1-0.9,14-1.7,21c-0.4,3.5-0.4,7-0.2,10.5c0.4,5.3,3.9,8.8,7.9,11.8c2.3,1.7,4.7,3.3,7.1,4.9
		c2.5,1.8,4.5,4.1,5.8,6.9c1.3,2.8,2.7,5.4,5,7.5c1.2,1.1,2.2,2.6,2.8,4.1c0.7,1.6,1.7,2.9,3.2,3.8c1.4,0.9,2.8,1.9,4.2,2.8
		c2,1.2,3.7,2.8,5.3,4.5c0.8,0.9,0.8,1.6,0,2.5c-1.6,1.6-3.2,3.2-4.6,4.9c-0.7,0.9-1.7,1.3-2.9,1.6c-2,0.5-4,1-6.1,1.5
		c-2.3,0.6-4.4,3.2-4.5,5.6c0,0.6,0.2,1.1,0.6,1.5c0.4,0.6,1.2,0.8,1.4,1.7c-4.6,0.3-9.2,1.1-13.8,0.3c-5-0.9-9-3.6-12.7-6.8
		c-4.4-3.7-8.7-7.5-12.7-11.7c-6.5-6.9-12.6-14-18.4-21.4c-2.7-3.4-5.4-6.8-8.1-10.1c-1.4-1.7-3.2-2.9-4.7-4.4
		c-2.6-2.5-5.2-5-7.7-7.6c-1.3-1.3-2.6-1.6-4.3-1c-1.7,0.6-3.3,1.6-5.1,1.9c1-1.1,2-2.2,3-3.3c0.4-0.6,0.3-1.3,0-1.9
		c-0.3-0.8-0.7-1.6-1-2.3c-5.4-8-9.9-16.7-15.3-24.8c-0.8-1.2-1.7-2.3-2.9-3.1c-0.6-0.5-1.2-0.8-1.9-1c-3.3-1.3-6.8-1.4-10.3-1.9
		c-3.4-0.5-6.8,0.1-10.3,0.3c-7-0.6-12.9-3.9-18.7-7.6c-6.8-4.3-13-9.3-18-15.6c-2.5-3.1-3.4-6.8-4.7-10.3c-0.3-0.7-0.4-1.5-0.9-2.1
		c-0.9-2.4-1.6-4.9-2.8-7.3c-2.1-4.6-5-8.7-7.5-13c-6.1-10.4-10.9-21.4-13.4-33.3c-1.3-6-0.6-11.7,2.1-17.1
		C1035.4,1333.7,1038.7,1330.4,1043.4,1328.7z" />
		<path class="st5" d="M1549.3,1379.8c0,0.1,0.1,0.3,0.2,0.4c0,9.1,0,18.1-0.1,27.2c0,1.2-0.1,2.4-0.1,3.6c-0.7,1.7-2.3,2.1-3.8,2.5
		c-3,0.9-5.9,2-8.4,3.9c-1.9,1.5-1.8,2.7,0.4,3.7c2.6,1.2,5.5,1.5,8.4,1.6c1.3,0.1,2.6-0.1,3.5,1.2c0,0.8,0.1,1.6,0.1,2.4l-0.1,0
		c-0.7,1.1-1.8,1.1-3,1.2c-3.9,0.4-7.8,0.8-11.4,2.4c-2.3,1.1-4.2,2.3-3.7,5.4c0.2,0.9-0.3,1.7-1,2.3c-1.2,1.2-2.1,2.6-3.3,3.8
		c-2.2,2.5-1.9,4.8,0.9,6.6c1.8,1.2,3.7,2.2,5.8,2.7c3.8,1,7.6,1.8,11.5,2.1c1.5,0.1,3,0.3,4.1,1.6l0,0c0,1.8,0,3.5-0.1,5.3
		c-0.3,0.3-0.5,0.6-0.9,0.8c-2.8,1.7-3,2.3-1,4.9c1,1.3,1.3,2.8,1.9,4.3c0,3.4,0,6.8,0,10.2c-2.5,0.1-4.9-0.5-7.4-0.5
		c-1.8,0-3.5,0.3-5.1,1c-3,1.4-6,2.7-9,4c-4.8,2.2-8.8,1.1-11.9-3.2c-1.8-2.6-3-5.4-4.1-8.4c-0.7-2-1.1-2.3-3.1-2
		c-1.5,0.2-3,0.6-4.3,1.4c-3.8,2.2-7.8,3.5-12.1,4.3c-0.5,0.1-1.1,0.3-1.6,0.4c-1.3,0.3-1.8,1.1-1.5,2.3c0.3,1.2,0.6,2.5,1,3.7
		c0.5,1.8,1.2,3.5,1.7,5.2c1,3.5,0.7,7-0.8,10.3c-2.2,4.6-4.9,8.9-8.8,12.5c-0.9,0.9-1.9,1.7-3,2.3c-3,1.9-6.1,2.1-9.3,0.5
		c-4.4-2.2-7.6-5.6-10.5-9.3c-0.6-0.8-1.2-1.5-1.7-2.3c-2.2-3-4.6-5.7-8.1-7.3c-3.9-1.9-5.2-5.1-5.2-9.2c0-5.1,1.2-9.8,3.6-14.3
		c0.2-0.4,0.4-0.7,0.6-1c3.2-5.1,7.1-5.7,11.7-1.7c5.3,4.6,11.5,6.3,18.4,5.9c0.4,0,0.8-0.1,1.2-0.2c1.9-0.5,2.2-1.3,1.2-2.9
		c-1.5-2.6-3.7-4.6-6-6.5c-3.8-3.1-8.1-5.5-13-6.2c-0.5-0.1-1.1-0.3-1.6-0.4c-2.7-0.7-4.2-2.6-4.4-5.3c-0.6-6,0.3-11.8,2.7-17.3
		c0.8-1.9,2.3-3.4,3.9-4.8c0.4-0.3,0.7-0.6,1.2-0.9c4.4-2.7,7.7-6.4,9.9-11.1c0.9-2,2.3-3.6,3.9-5.1c4.9-4.6,9.5-9.5,13.5-14.9
		c1.3-1.8,3.1-3,5-4.1c6.5-3.9,13-7.9,18.8-12.8c1.6-1.3,3.1-2.8,4.5-4.3c1.7-2,1.4-3.3-1-4.5c-1.8-0.8-3.7-1.1-5.6-1.2
		c-6.6-0.3-13-1.7-19.4-2.7c-8.9-1.5-17.8-2.8-26.8-3.5c-3.9-0.3-7.8-0.9-11.5-1.9c-1.5-0.4-3-0.6-4.5-0.6c-3.1,0.1-4.9,1.3-6,4.3
		c-0.4,1-0.6,2-0.6,3c0,1,0,1.9-0.4,2.8c-1-1.6-0.4-3.2-0.3-4.8c0.1-2.3,0.4-4.6,1.1-6.8c0.6-1.8,1.6-2.6,3.5-1.9
		c3,0.8,5.9,1.9,9.1,2c6.7-0.6,13.1,1.6,19.7,2.3c0.2,0,0.3,0,0.4,0c1.3,0.5,2.6,0.1,4,0.2c1.1,0,2.2-0.1,3.3,0.1
		c4.6,0.4,9.2,0.6,13.8,1.1c0.6,0,1.2,0.1,1.8,0.1c0.6,0.3,1.4,0,2,0.3c0.8,0.1,1.5,0.1,2.3,0.2c1,0.4,2-0.1,3,0.3
		c0.8,0.1,1.6,0.1,2.3,0.2c0.8,0.4,1.7-0.1,2.5,0.3c0.6,0,1.2,0.1,1.8,0.1c0.6,0.4,1.4,0,2,0.3c1.8,0.4,3.7,0.6,5.6,0.6
		c0.8,0.3,1.7,0,2.6,0.2c4.1,1.1,8.4,0.8,12.4,2.5c3.6,1.4,7,3.1,10.2,5.3C1547.9,1377.1,1548.9,1378.2,1549.3,1379.8z" />
		<path class="st5" d="M1337.4,1193.2c-1.3-0.1-2.4-0.7-3.7-0.6c0,0,0,0,0,0c-0.6-0.4-1.4,0-2-0.4c-0.3-0.2-0.6-0.4-0.9-0.5
		c-1.5-0.8-3.2-1.3-4.2-2.7c-1.2-0.5-2.9,0.8-3.6-1.2c-0.3-0.6-1-1-0.9-1.8c0-0.2,0.1-0.3,0.1-0.5c0.4-1-0.3-2.6,1.3-3
		c1.6-0.4,2.5,0.7,3.5,1.7c0.9,0.8,1.5,1.9,2.2,2.9c1.1,1.5,2.5,2.5,4.3,2.7c1.7,0.2,2.3-0.4,1.6-2c-0.8-2-2.3-3.6-3.6-5.4
		c-0.8-1.1-1.7-2.1-2.3-3.3c-0.3-0.6-0.4-1.3,0.1-1.8c0.6-0.6,1.3-0.6,2-0.2c0.5,0.3,1,0.5,1.4,0.9c1.4,1.4,2.9,2.7,4.4,4
		c0.7,0.6,1.7,1.4,0.9,2.6c-0.7,0.3-0.6,0.7-0.2,1.1c0.9,0.9,1.9,1.7,2.9,2.5c1.2,1,2.5,2,3.3,3.4c0.9,1.4,0.5,2.1-1.1,2.1
		C1341.1,1193.6,1339.2,1193.3,1337.4,1193.2z" />
		<path class="st10" d="M1322.8,1187.8c0.2,0.3,0.5,0.6,0.7,0.9c1.2-0.5,0.4-1.6,1.1-2.2c0.7,0.5,1.3,1.1,1.7,1.9
		c0.1,0.2,0.2,0.5,0.2,0.8c-0.2,1.7-0.9,4.1-2.3,5.7l0,0c-0.5,0.7-1,1.5-1.9,1.9c-0.2,0.1-0.4,0.3-0.6,0.4c-0.2,0.4-0.5,0.3-0.8,0.1
		c0.7-1.1,1.6-2,2-3.2c0.2-0.6,0.3-1.2-0.3-1.7c-1.7-1.3-3.1-2.9-5-3.9c-2.8-0.2-5.4-3.5-4.9-6.1c0.5-0.8,1.4-0.7,2.2-0.8
		c0.5,0,1,0.1,1.3,0.5c0.5,0.7-0.3,1.7,0.6,2.3c0.2,0.2,0.5,0.3,0.8,0.4c0.6,0.3,1.2,0.8,1.7,1.3c0.2,0.2,0.5,0.4,0.8,0.6
		C1320.7,1188.1,1321.6,1188.6,1322.8,1187.8z" />
		<path class="st5" d="M1077.1,1259.6c-0.1-1.9,1-3.8,2.5-5.2c4.5-4.3,7.8-9.7,11.7-14.5c3.7-4.5,7.7-8.8,13-11.5
		c1.3-0.7,2.6-1.6,3.7-2.6c0.7-0.7,1.5-0.9,2.4-0.3c0.9,0.6,0.9,1.5,0.6,2.4c-0.5,1.4-1.2,2.6-2.1,3.7c-3.3,4.3-5.1,9.1-6.7,14.2
		c-1.9,5.9-3.8,11.9-6.3,17.6c-0.4,0.8-0.7,1.6-1.1,2.4c-1.4,2.8-3.6,4.4-6.9,4.2c-0.4,0-0.8,0-1.2,0.1c-3,1-4.9-0.5-6.5-2.7
		C1078.4,1265.1,1077.1,1262.8,1077.1,1259.6z" />
		<path class="st5" d="M1451.4,1548.1c-3.1,0.1-5.6-0.8-7.6-2.8c-1-1-1.6-2.2-2-3.5c-0.5-1.6-0.1-3,1.3-4c1.2-0.8,2.3-1.8,3.5-2.6
		c2.9-1.9,4.1-4.7,4.5-8.1c0.2-1.5,0.4-3,0.5-4.5c0.1-1.2,0.8-1.9,1.8-2.3c1.6-0.6,3.3-0.8,4.9-0.5c3.5,0.7,6.4,2.5,8.6,5.2
		c1.8,2.2,1.7,4.9,1,7.6c-0.9,3.4-3,6.1-5.3,8.8c-1.5,1.8-3.1,3.4-5.1,4.7C1455.7,1547.4,1453.5,1548.2,1451.4,1548.1z" />
		<path class="st5" d="M1164.9,1246.9c-0.7,1-1.5,1.1-2.3,1.2c-5.6,0.8-10.8,3-16.3,4c-3.1,0.6-6.3,1.3-9.4,1.9
		c-3.1,0.6-6.1,1.2-9,2.3c-1.1,0.4-2.1,0.6-3.3,0.6c-2.2,0-2.8-0.5-3.3-2.6c-0.5-2.5,0.3-4.7,1.5-6.9c1.8-3.1,4.2-5.7,7-7.8
		c3.3-2.6,6.7-4.9,10.9-5.8c0.5-0.1,1-0.2,1.3-0.6c0.9-1.3,1.9-0.8,2.9-0.1c0.7,0.4,1.2,1,1.6,1.7c3.5,6.1,9.2,9.1,15.6,11
		C1163.1,1246.1,1164,1246.1,1164.9,1246.9z" />
		<path class="st5" d="M1253.5,1446.3c-2,0.2-3.9-0.2-5.9-0.5c-3.9-0.7-6.2-3.3-8.1-6.5c-0.6-1-0.2-2,0.4-2.9c0.9-1.2,2-2,3.4-2.5
		c4.1-1.7,8.5-2.1,12.8-2.8c2-0.3,4-0.4,5.8-1.2c2.8-1.2,5.2-0.4,7.5,1c2.3,1.4,4.4,3.2,5.3,6c1,2.9,0.1,5-2.7,6.3
		c-3.5,1.7-7.3,2.2-11.1,2.7C1258.5,1446.1,1256.1,1446.6,1253.5,1446.3z" />
		<path class="st5" d="M1061.8,1347.6c0.1,2.5-1.1,4.6-2,6.8c-0.4,1-1.1,2-1.3,3.1c-0.3,1.7-1.2,2.9-2.7,3.9
		c-1.1,0.8-1.4,0.3-1.8-0.4c-0.9-1.7-1.7-3.4-2.1-5.3c-0.8-3.9-1.5-7.8-2.1-11.8c-0.4-2.7,2.6-5.2,5.2-4.6
		C1059,1340.1,1062.2,1344.1,1061.8,1347.6z" />
		<!-- <path class="st16" d="M1442.5,1381.7c0.1,0,0.3,0,0.4-0.1c0.1,1,0,2-0.4,3c-0.3-0.2-0.4-0.4-0.2-0.7
		C1442.4,1383.2,1442.5,1382.4,1442.5,1381.7z" /> -->
		<path d="M1549.4,1469.8c-1-1.3-2.1-2.6-3.1-3.9c-1.1-1.4-2.3-3-1.4-4.7c0.9-1.7,2.8-1.4,4.5-1.4
		C1549.4,1463.2,1549.4,1466.5,1549.4,1469.8z" />
		<path d="M1549.4,1423.8c-2.9,0.1-5.7,0-8.6-0.5c-2.1-0.4-4-1.1-5.8-2.2c-1.6-1-1.8-1.9-0.4-3.2c1.8-1.8,3.9-3,6.2-4.1
		c2.8-1.2,5.8-1.8,8.6-2.9C1549.5,1415.2,1549.5,1419.5,1549.4,1423.8z" />
		<path d="M1316.9,1182.5c-0.3-0.2-0.7-0.3-1-0.5c-0.7,0-1.7-0.9-2,0.6c1,2.3,2.8,3.9,4.5,5.6c0.5,1.1,1.4,1.7,2.1,2.6
		c1,1.1,1.3,2.3,1,3.8c-0.2,1.1-0.9,1.8-2,2.2c-3.6,1.2-6.8,0.4-9.8-1.5c-0.8-0.5-1.1-1.2-0.3-1.9c0.8-0.8,0.5-1.5-0.1-2.3
		c-0.6-0.6-1.3-1.2-2-1.7c-1-0.6-2-0.7-3.1,0c-1.3,0.8-1.9,0.6-2.7-0.6c-0.5-0.7-0.8-1.5-1.2-2.4c-0.7-1.8-1.2-3.6-1.5-5.5
		c-0.2-1.4-0.5-1.5-1.8-1.1c-5.1,1.6-9.8,3.9-13.6,7.8c-1.4,1.4-2.9,2.8-4.2,4.3c-5.4,5.8-4,12,0.3,16.4c1.6,1.6,3.4,2.8,5.5,3.7
		c2.6,1.2,5,2.9,6.9,5c1.7,1.9,1.7,3.3,0.4,5.5c-0.5,0.7-0.9,1.5-1.5,2.2c-1.9,2.4-3.7,5-5.3,7.7c-2.1,3.7-4.3,4.5-8.4,3.6
		c-4.6-1-8.6-3.4-12.3-6.3c-7.1-5.4-12.5-12.2-16.1-20.5c-1.8-4.3-2.1-8.8-1.7-13.4c0.2-2.3,1.3-4,3.2-5.3c2.9-1.9,6.2-3.4,9-5.5
		c1.2-0.9,2.4-1.9,3.2-3.2c0.4-0.7,0.9-1.4,0.5-2.2c-0.5-0.9-1.3-0.8-2.1-0.8c-3.9,0.3-7.7,1.1-11,3.1c-2.7,1.7-5.4,1.9-8.3,1.5
		c-6-0.8-11.5-2.7-16-6.9c-3.8-3.5-6-7.9-6.2-12.8c-0.2-4.4,1.8-6.2,5.5-6.4c2.8-0.2,5.6-0.4,8.4,0.1c10.5,1.9,20.5,0.1,30.2-3.9
		c3.7-1.5,7.5-2.9,11.2-4.3c3.5-1.3,7.1-2,10.8-2.1c1.9-0.1,3.9-0.1,5.7-0.7c3.2-0.9,6.3-0.4,9.5,0.2c5,1,6.9,5.5,4.4,9.9
		c-1.2,2-2.6,3.9-4.6,5.2c-1.6,1-2.4,2.4-2.9,4c0.6,0.7,1.4,0.6,2.1,0.6c3,0,6.1,0,9.1-0.3c5.8-0.7,11.5,0.2,17.1,1.6
		c0.5,0.1,0.9,0.3,1.3,0.5c5.6,3.4,10.8,7.5,14.8,12.8c0.9,1.2,1.5,2.4,1.8,3.9c0.2,1.2-0.3,1.7-1.5,1.4c-0.9-0.2-1.7-0.5-2.5-0.7
		l0,0c-0.4-0.4-1-0.6-1.4-1c0,0,0,0,0,0c-2.4-2.6-5.1-4.8-8.1-7.2c0,1.3,0.5,1.7,0.9,2.3c1.4,1.9,2.8,3.7,4.1,5.6
		c0.7,1,1.3,2.2,1.8,3.3c1,2.2,0.6,2.8-1.9,2.8c-2.7-0.1-5-1-6.6-3.3c-0.6-0.8-1.1-1.6-1.7-2.3c-0.6-0.8-1.2-1.5-2.1-1.9
		c-0.7-0.4-1.3-0.4-1.2,0.6c0,0.6,0.2,1.3-0.6,1.6c-0.7,0.1-1.3,0.1-2,0c-0.9-0.4-1.6-1.2-2.6-1.5
		C1317.5,1184,1316.8,1183.5,1316.9,1182.5z" />
		<path class="st86" d="M1250.6,1358c-0.1-3.3,1-5.8,2.8-8c1.5-1.8,2.9-1.9,4.8-0.4c1.1,0.9,1.9,1.9,2.5,3.2c1,2,1.7,4.1,2.5,6.2
		c0.6,1.6,0.2,2.8-1,3.9c-2,1.9-4.4,3-7.2,2c-2.8-1-4.2-3.3-4.4-6.3C1250.6,1358.3,1250.6,1358,1250.6,1358z" />
		<path class="st5" d="M1302,1292.6c0-3.8,1.2-4.9,4.6-4.4c3.2,0.5,6.1,2,8.8,3.6c3.2,2,6.2,4.3,8.9,6.9c4.7,4.4,9,9.1,13,14.1
		c1.5,1.9,3.1,3.6,4.6,5.5c1.1,1.3,1.9,2.8,2.2,4.5c0.4,1.9-0.2,2.8-2.1,3.4c-0.9,0.3-1.9,0.4-2.8,0.2c-1.7-0.3-3.5-0.7-5-1.5
		c-9.4-4.8-18.1-10.4-25.3-18.2c-3.2-3.5-5.8-7.4-6.5-12.3C1302.1,1293.6,1302,1292.9,1302,1292.6z" />
		<path class="st5" d="M1278,1323.1c-1.3,0.1-2.9-0.1-4.5-0.5c-4-1-5.7-4.2-4.2-8.1c0.4-1.1,1.1-2.1,1.9-3c2.5-2.7,5.7-4.6,9-6.2
		c0.9-0.4,1.9-0.4,2.8-0.2c4.1,0.9,7.3,3.1,9.8,6.4c0.6,0.8,1.1,1.8,1.4,2.8c0.7,2.8-0.1,4.6-2.7,6
		C1288.3,1322,1283,1323.1,1278,1323.1z" />
		<path class="st86" d="M1518.2,1413.1c0,3.4,1.3,6,2.7,8.6c1,1.7,1.9,3.5,2.7,5.4c0.9,2.2,0.8,4.3-0.4,6.5c-0.9,1.5-1.4,3.2-1.9,4.9
		c-0.5,1.5-1.3,2.7-2.7,3.5c-2.8,1.8-5.4,3.7-8.2,5.4c-1.2,0.8-1.8,1.7-1.8,3.1c0,6.8-3.5,11.8-8.1,16.2c-0.6,0.6-1.2,1-1.9,1.5
		c-3.4,2.4-6.4,2.5-9.7,0c-4.4-3.2-8.6-6.7-12.8-10.1c-3-2.4-5.7-5.1-8.4-7.9c-1.5-1.6-2.8-3.3-3.8-5.2c-2.1-3.7-0.7-7.1,1.4-9.5
		c1.3-1.5,3-2,5-1.9c1.9,0.2,3.8,0.7,5.6,1.4c5.2,2.1,10.8,2.7,16.3,3.9c1.8,0.4,2.4-0.5,1.7-2.2c-0.6-1.4-1.5-2.4-2.7-3.3
		c-1.5-1.1-3.1-2-4.8-2.7c-2.1-1-4.2-1.9-6.1-3.3c-4-2.9-4.5-6.6-1.5-10.5c1.1-1.5,2.6-2.6,4.1-3.7c1.8-1.3,3.7-2.5,5.7-3.6
		c2.4-1.4,4.2-3.2,5-5.9c1.3-4.2,4.2-6.7,7.9-8.5c0.6-0.3,1.1-0.6,1.7-0.8c6.4-2.3,11.7-6.5,16.8-10.9c2.4-2.1,5.4-3.2,8.4-3.9
		c3-0.7,5.7,0.5,8,2.4c1.6,1.3,3.1,2.8,4.2,4.5c2.5,3.6,4.5,7.5,6.6,11.4c0.3,0.6,0.6,1.3,0.8,2c0.7,2.9-0.1,4.6-2.8,5.9
		c-3.3,1.6-6.7,2.5-10.3,2.9c-2.1,0.3-3.9-0.4-5.5-1.8c-0.9-0.7-1.7-1.4-2.7-2c-2.1-1.2-3.7-1-5.4,0.7
		C1519,1407.9,1518.1,1410.5,1518.2,1413.1z" />
		<path class="st5" d="M1459.3,1247.9c-0.1,1,0,1.9-0.2,2.9c-0.4,2.2-2,2.8-3.9,1.7c-1.1-0.7-1.8-1.8-2.3-3c-1.7-3.5-3.5-7-5.4-10.4
		c-2.8-5.1-5.5-10.3-9.2-14.8c-0.5-0.6-1-1.3-1.4-2c-1.2-2.1-0.7-4.2,1.2-5.7c2.5-1.9,4-2,6.7-0.1c2.7,2,4.8,4.5,6.4,7.3
		c3.6,6.4,6,13.2,7.7,20.3C1459.2,1245.4,1459.3,1246.6,1459.3,1247.9z" />
		<path class="st92" d="M1321.2,1184.9c0.7,0.1,1.1,0.6,1.5,1c0.3,0.5,0.5,1,0.8,1.5c-0.2,0.8,0.4,1.9-0.5,2.3
		c-0.9,0.4-1.5-0.6-2.2-1.1c-0.4-0.3-0.8-0.8-1.1-1.2C1320.2,1186.6,1320.4,1185.6,1321.2,1184.9z" />
		<path class="st93" d="M1323.2,1185c0.1,0.2,0.2,0.7,0.2,0.7c0.4,1.4,2,2.9,1,4.2c-1,1.2-2.5,0.1-3.6-0.7c-0.3-0.2-0.5-0.5-0.8-0.7
		c-0.8-1-1.8-1.7-2.8-2.5c-0.3-0.3-0.5-0.5-0.8-0.8c-3.2-4.8,1.2-2.9,3.1-2.5C1321,1183,1322.5,1183.9,1323.2,1185z" />
		<path class="st94" d="M1134.5,1241.5c0-1.2,0.5-2,1.6-2.4c1.4-0.5,2.9-1,3.7-2.4c0.2-0.4,0.6-0.5,1-0.1c0.9,0.7,1.2,2.5,0.7,3.5
		c-0.8,1.5-2.1,2.6-3.5,3.5C1136.2,1244.5,1134.6,1243.6,1134.5,1241.5z" />
		<path d="M1277.9,1320.3c-1.5,0-3,0-4.5-0.6c-1.3-0.5-2-1.4-2.2-2.9c-0.2-2.4,0.2-4.6,2.2-6.3c1.3-1.2,2.7-2.3,4.2-3.1
		c4.8-2.4,11,1.5,10.9,6.9c0,1.4-0.5,2.4-1.6,3.3C1284.6,1319.4,1281.7,1320.3,1277.9,1320.3z" />
		<path class="st5" d="M1432.7,1265.7c-0.2-1.3,0.6-3.5,2.3-5.3c0.8-0.8,1.5-1.1,2.5-0.6c0.9,0.4,1.8,0.7,2.6,1.2
		c5.7,3.8,10,8.7,12.4,15.1c0.8,2,1.2,4.1,0.6,6.3c-1.3,4.7-6.2,6.8-10.4,4.4c-1.5-0.8-2.7-2-3.7-3.3
		C1435.2,1278.6,1433.1,1273.2,1432.7,1265.7z" />
	</g>
</svg>